<?xml version="1.0" encoding="UTF-8" standalone="no"?>
<!-- Created with Inkscape (http://www.inkscape.org/) -->

<svg
   xmlns:dc="http://purl.org/dc/elements/1.1/"
   xmlns:cc="http://creativecommons.org/ns#"
   xmlns:rdf="http://www.w3.org/1999/02/22-rdf-syntax-ns#"
   xmlns:svg="http://www.w3.org/2000/svg"
   xmlns="http://www.w3.org/2000/svg"
   xmlns:sodipodi="http://sodipodi.sourceforge.net/DTD/sodipodi-0.dtd"
   xmlns:inkscape="http://www.inkscape.org/namespaces/inkscape"
   width="95.468529mm"
   height="142.44434mm"
   viewBox="0 0 95.468529 142.44434"
   version="1.1"
   id="svg2766"
   inkscape:version="0.92.3 (2405546, 2018-03-11)"
   sodipodi:docname="bbb_aida.svg">
  <defs
     id="defs2760">
    <inkscape:path-effect
       effect="bspline"
       id="path-effect4498"
       is_visible="true"
       weight="33.333333"
       steps="2"
       helper_size="0"
       apply_no_weight="true"
       apply_with_weight="true"
       only_selected="false" />
    <inkscape:path-effect
       effect="bspline"
       id="path-effect4506"
       is_visible="true"
       weight="33.333333"
       steps="2"
       helper_size="0"
       apply_no_weight="true"
       apply_with_weight="true"
       only_selected="false" />
    <inkscape:path-effect
       effect="bspline"
       id="path-effect4510"
       is_visible="true"
       weight="33.333333"
       steps="2"
       helper_size="0"
       apply_no_weight="true"
       apply_with_weight="true"
       only_selected="false" />
    <inkscape:path-effect
       effect="bspline"
       id="path-effect4514"
       is_visible="true"
       weight="33.333333"
       steps="2"
       helper_size="0"
       apply_no_weight="true"
       apply_with_weight="true"
       only_selected="false" />
    <inkscape:path-effect
       effect="bspline"
       id="path-effect4518"
       is_visible="true"
       weight="33.333333"
       steps="2"
       helper_size="0"
       apply_no_weight="true"
       apply_with_weight="true"
       only_selected="false" />
    <inkscape:path-effect
       effect="bspline"
       id="path-effect4522"
       is_visible="true"
       weight="33.333333"
       steps="2"
       helper_size="0"
       apply_no_weight="true"
       apply_with_weight="true"
       only_selected="false" />
    <inkscape:path-effect
       effect="bspline"
       id="path-effect4543"
       is_visible="true"
       weight="33.333333"
       steps="2"
       helper_size="0"
       apply_no_weight="true"
       apply_with_weight="true"
       only_selected="false" />
    <inkscape:path-effect
       effect="bspline"
       id="path-effect4547"
       is_visible="true"
       weight="33.333333"
       steps="2"
       helper_size="0"
       apply_no_weight="true"
       apply_with_weight="true"
       only_selected="false" />
    <inkscape:path-effect
       effect="bspline"
       id="path-effect4555"
       is_visible="true"
       weight="33.333333"
       steps="2"
       helper_size="0"
       apply_no_weight="true"
       apply_with_weight="true"
       only_selected="false" />
    <inkscape:path-effect
       effect="bspline"
       id="path-effect4559"
       is_visible="true"
       weight="33.333333"
       steps="2"
       helper_size="0"
       apply_no_weight="true"
       apply_with_weight="true"
       only_selected="false" />
    <inkscape:path-effect
       effect="bspline"
       id="path-effect4563"
       is_visible="true"
       weight="33.333333"
       steps="2"
       helper_size="0"
       apply_no_weight="true"
       apply_with_weight="true"
       only_selected="false" />
    <inkscape:path-effect
       effect="bspline"
       id="path-effect4567"
       is_visible="true"
       weight="33.333333"
       steps="2"
       helper_size="0"
       apply_no_weight="true"
       apply_with_weight="true"
       only_selected="false" />
    <inkscape:path-effect
       effect="bspline"
       id="path-effect4571"
       is_visible="true"
       weight="33.333333"
       steps="2"
       helper_size="0"
       apply_no_weight="true"
       apply_with_weight="true"
       only_selected="false" />
    <inkscape:path-effect
       effect="bspline"
       id="path-effect4575"
       is_visible="true"
       weight="33.333333"
       steps="2"
       helper_size="0"
       apply_no_weight="true"
       apply_with_weight="true"
       only_selected="false" />
    <inkscape:path-effect
       effect="bspline"
       id="path-effect4579"
       is_visible="true"
       weight="33.333333"
       steps="2"
       helper_size="0"
       apply_no_weight="true"
       apply_with_weight="true"
       only_selected="false" />
    <inkscape:path-effect
       effect="bspline"
       id="path-effect4583"
       is_visible="true"
       weight="33.333333"
       steps="2"
       helper_size="0"
       apply_no_weight="true"
       apply_with_weight="true"
       only_selected="false" />
    <inkscape:path-effect
       effect="bspline"
       id="path-effect4587"
       is_visible="true"
       weight="33.333333"
       steps="2"
       helper_size="0"
       apply_no_weight="true"
       apply_with_weight="true"
       only_selected="false" />
    <inkscape:path-effect
       effect="bspline"
       id="path-effect4595"
       is_visible="true"
       weight="33.333333"
       steps="2"
       helper_size="0"
       apply_no_weight="true"
       apply_with_weight="true"
       only_selected="false" />
    <inkscape:path-effect
       effect="bspline"
       id="path-effect4599"
       is_visible="true"
       weight="33.333333"
       steps="2"
       helper_size="0"
       apply_no_weight="true"
       apply_with_weight="true"
       only_selected="false" />
  </defs>
  <sodipodi:namedview
     id="base"
     pagecolor="#ffffff"
     bordercolor="#666666"
     borderopacity="1.0"
     inkscape:pageopacity="0.0"
     inkscape:pageshadow="2"
     inkscape:zoom="0.35"
     inkscape:cx="-393.87276"
     inkscape:cy="223.47186"
     inkscape:document-units="mm"
     inkscape:current-layer="layer1"
     showgrid="false"
     fit-margin-top="0"
     fit-margin-left="0"
     fit-margin-right="0"
     fit-margin-bottom="0"
     inkscape:window-width="1920"
     inkscape:window-height="1043"
     inkscape:window-x="1920"
     inkscape:window-y="0"
     inkscape:window-maximized="1" />
  <metadata
     id="metadata2763">
    <rdf:RDF>
      <cc:Work
         rdf:about="">
        <dc:format>image/svg+xml</dc:format>
        <dc:type
           rdf:resource="http://purl.org/dc/dcmitype/StillImage" />
        <dc:title></dc:title>
      </cc:Work>
    </rdf:RDF>
  </metadata>
  <g
     inkscape:label="Layer 1"
     inkscape:groupmode="layer"
     id="layer1"
     transform="translate(-59.610977,-65.515933)">
    <g
       id="g5750"
       transform="translate(257.84086,111.41648)"
       inkscape:export-xdpi="289.40701"
       inkscape:export-ydpi="289.40701">
      <path
         inkscape:original-d="m -107.71291,24.102221 c -0.99725,0.56961 -1.99505,1.13979 -2.99344,1.71054 -0.0945,0.16585 -0.18944,0.33204 -0.28511,0.49891 -0.11861,0.23796 -0.23698,0.47458 -0.35635,0.71272 0.0721,2.02459 0.14315,4.08572 0.21383,6.12944 -0.26084,1.33021 -0.52212,2.66028 -0.78401,3.99126 -0.4035,1.06904 -0.80719,2.13761 -1.21164,3.20727 -0.76015,1.02165 -1.51991,2.04257 -2.28072,3.06471 -1.16426,0.879 -2.37517,1.7575 -3.56361,2.63708 -1.02156,0.52238 -2.04259,1.04477 -3.06472,1.568 -1.21187,0.16585 -2.4227,0.33204 -3.63491,0.49891 -1.6871,-0.16696 -3.373,-0.33317 -5.06033,-0.49891 -1.42532,-0.3095 -2.85036,-0.61826 -4.27635,-0.92654 -0.73615,-0.40456 -1.47242,-0.80832 -2.20945,-1.21163 -0.87871,-0.76102 -1.805,-1.52105 -2.70836,-2.28073 -0.73596,-0.9034 -1.47242,-1.80612 -2.20944,-2.70835 -0.47457,-1.47343 -0.94975,-2.9465 -1.42547,-4.41889 -0.40322,-1.82947 -0.80718,-3.61172 -1.21161,-5.41671 -0.18945,-0.28559 -0.37957,-0.57075 -0.57021,-0.85527 -0.28437,-0.1668 -0.5696,-0.33318 -0.85526,-0.49892 -1.47329,0.0232 -2.94537,0.0469 -4.4189,0.0713 -0.14208,0.21334 -0.28452,0.42707 -0.42762,0.64146 -0.14252,0.28539 -0.28454,0.56961 -0.42764,0.85527 5.5e-4,2.1665 5.5e-4,4.3233 0,6.4858 -0.61728,1.73418 -1.23483,3.51554 -1.85309,5.27417 -0.49854,0.85502 -0.99725,1.70997 -1.49672,2.56581 -0.83161,0.87915 -1.66246,1.75749 -2.49453,2.63708 -1.21187,0.68886 -2.42272,1.37737 -3.63492,2.0669 -1.44943,0.42731 -2.89783,0.8547 -4.34761,1.28291 -1.11656,0.0945 -2.23265,0.18951 -3.34982,0.28508 -1.63959,-0.26203 -3.27796,-0.52323 -4.9178,-0.78399 -1.14011,-0.52338 -2.28015,-1.0459 -3.42107,-1.568 -0.73609,-0.4283 -1.4724,-0.85583 -2.20944,-1.2829 -0.71233,-0.59465 -1.4249,-1.18844 -2.13818,-1.78182 -0.61718,-0.71334 -1.23483,-1.42602 -1.85309,-2.13818 -0.30825,-0.90329 -0.61712,-1.80613 -0.92654,-2.70834 -0.37941,-0.97427 -0.75966,-1.94869 -1.14036,-2.92218 -0.35569,-1.09307 -0.71216,-2.23378 -1.06909,-3.34982 -0.18944,-0.61806 -0.37956,-1.23595 -0.57018,-1.85307 -0.28436,-0.42796 -0.56961,-0.85584 -0.85527,-1.28292 -0.68819,-0.40431 -1.42488,-0.80831 -2.13816,-1.21162"
         inkscape:path-effect="#path-effect4498"
         inkscape:connector-curvature="0"
         id="path4496"
         d="m -107.71291,24.102221 c -0.99714,0.569797 -1.99495,1.139971 -2.54155,1.508121 -0.5466,0.368149 -0.64156,0.534326 -0.74873,0.736734 -0.10717,0.202408 -0.22549,0.439054 -0.24974,1.570505 -0.0242,1.131451 0.0477,3.192551 -0.0473,4.879463 -0.095,1.686911 -0.35626,3.016983 -0.6889,4.216975 -0.33264,1.199993 -0.73632,2.268565 -1.31851,3.314243 -0.5822,1.045677 -1.34195,2.066599 -2.30861,3.011568 -0.96666,0.944969 -2.16917,1.834826 -3.27414,2.535874 -1.10498,0.701049 -2.12601,1.223438 -3.24303,1.568106 -1.11702,0.344667 -2.32785,0.51086 -3.77757,0.510885 -1.44972,2.5e-5 -3.13562,-0.166192 -4.69199,-0.403793 -1.55636,-0.2376 -2.9814,-0.546358 -4.06258,-0.902772 -1.08119,-0.356413 -1.81746,-0.760173 -2.63033,-1.336512 -0.81287,-0.57634 -1.72931,-1.348075 -2.54901,-2.17967 -0.81971,-0.831596 -1.55616,-1.734331 -2.16199,-2.922297 -0.60583,-1.187965 -1.08102,-2.661031 -1.523,-4.311432 -0.44199,-1.650401 -0.8409,-3.433781 -1.13784,-4.478925 -0.29694,-1.045143 -0.48706,-1.330305 -0.72443,-1.555844 -0.23738,-0.225539 -0.5226,-0.391927 -1.40188,-0.463247 -0.87927,-0.07132 -2.35135,-0.04757 -3.15921,0.07096 -0.80786,0.118525 -0.95032,0.332237 -1.09314,0.582133 -0.14282,0.249896 -0.28491,0.53408 -0.35636,1.760213 -0.0714,1.226134 -0.0714,3.382934 -0.37653,5.332521 -0.30509,1.949586 -0.93006,3.72834 -1.48838,5.035173 -0.55832,1.306834 -1.05704,2.16178 -1.7225,3.029321 -0.66546,0.867541 -1.49631,1.745875 -2.51823,2.530197 -1.02191,0.784321 -2.23275,1.472837 -3.56357,2.031346 -1.33081,0.558508 -2.77921,0.985907 -4.06241,1.247336 -1.28321,0.261429 -2.3993,0.356412 -3.77775,0.273252 -1.37845,-0.08316 -3.01682,-0.344347 -4.4069,-0.736398 -1.39008,-0.392051 -2.53012,-0.914572 -3.46867,-1.389779 -0.93854,-0.475207 -1.67485,-0.902741 -2.39959,-1.413626 -0.72475,-0.510885 -1.43731,-1.104686 -2.10259,-1.758088 -0.66528,-0.653402 -1.28293,-1.366079 -1.74623,-2.173947 -0.4633,-0.807868 -0.77217,-1.710709 -1.11658,-2.648932 -0.34442,-0.938224 -0.72468,-1.91264 -1.08942,-2.947046 -0.36474,-1.034407 -0.7281,-2.172919 -1.00128,-3.039975 -0.27318,-0.867055 -0.4633,-1.484944 -0.70078,-2.00737 -0.23748,-0.522426 -0.52273,-0.950306 -1.01241,-1.360792 -0.48967,-0.410487 -1.22059,-0.824672 -1.93349,-1.228649"
         style="fill:none;stroke:#000000;stroke-width:1;stroke-linecap:butt;stroke-linejoin:miter;stroke-miterlimit:4;stroke-dasharray:none;stroke-opacity:1" />
      <path
         inkscape:original-d="m -189.53375,25.527671 c 0.71328,0.26077 1.47353,0.52211 2.20945,0.784 0.4755,0.0232 0.95086,0.0469 1.42544,0.0713 0.42774,-0.28534 0.85584,-0.57075 1.28292,-0.85527 1.63732,-0.75965 3.27908,-1.52105 4.9178,-2.28072 2.5178,-0.21429 5.03714,-0.4282 7.55488,-0.64145 2.447,-0.16683 4.89462,-0.33317 7.34106,-0.49891 1.40191,0.21321 2.80396,0.42707 4.20507,0.64145 0.83182,0.47442 1.66362,0.94973 2.49455,1.42545 0.8319,0.42698 1.66359,0.85471 2.49454,1.28291 0.78436,0.16569 1.56856,0.33204 2.352,0.4989 1.66269,0.0707 3.32662,0.14197 4.98907,0.21383 0.99805,-0.0244 1.9962,-0.0481 2.99343,-0.0713 0.80786,-0.26176 1.61608,-0.52324 2.42329,-0.784 1.18744,-0.7127 2.37631,-1.42602 3.5636,-2.13818 1.06907,-0.52294 2.13875,-1.0459 3.20727,-1.56799 1.25894,-0.49916 2.51888,-0.99839 3.77747,-1.49673 1.44897,-0.11928 2.89896,-0.23813 4.34762,-0.35636 1.9716,-0.0243 3.94428,-0.048 5.91561,-0.0713 1.97186,0.28444 3.94431,0.56961 5.91562,0.85527 0.73686,0.2607 1.47352,0.5221 2.20944,0.78399 0.49926,0.11817 0.99838,0.23702 1.49672,0.35637 0.90262,-0.21421 1.80614,-0.47572 2.70836,-0.71273"
         inkscape:path-effect="#path-effect4506"
         inkscape:connector-curvature="0"
         id="path4504"
         d="m -189.53375,25.527671 c 0.7157,0.253958 1.47329,0.522782 2.07911,0.665282 0.60581,0.142501 1.08117,0.166278 1.53239,0.03554 0.45121,-0.130736 0.87932,-0.416137 1.91154,-0.938161 1.03221,-0.522025 2.67397,-1.283422 4.75219,-1.770276 2.07822,-0.486854 4.59756,-0.70076 7.07993,-0.890795 2.48237,-0.190035 4.92999,-0.356379 6.8541,-0.332592 1.9241,0.02379 3.32615,0.237658 4.44247,0.58208 1.11632,0.344422 1.94812,0.819733 2.77956,1.27108 0.83143,0.451348 1.66312,0.879076 2.47088,1.176012 0.80776,0.296936 1.59196,0.463279 2.81508,0.582014 1.22313,0.118736 2.88705,0.190052 4.21732,0.213792 1.33027,0.02374 2.32842,-3.4e-5 3.23102,-0.142612 0.9026,-0.142577 1.71082,-0.404058 2.70813,-0.890882 0.99732,-0.486824 2.18619,-1.200151 3.31438,-1.817666 1.12818,-0.617516 2.19787,-1.140469 3.3616,-1.651068 1.16373,-0.510599 2.42367,-1.00982 3.77741,-1.318525 1.35374,-0.308705 2.80373,-0.427556 4.51384,-0.498807 1.71012,-0.07125 3.6828,-0.09503 5.65434,0.03563 1.97155,0.130658 3.944,0.415831 5.29801,0.689032 1.35401,0.2732 2.09067,0.534595 2.7083,0.724621 0.61763,0.190026 1.11675,0.308868 1.81444,0.250203 0.69769,-0.05867 1.60705,-0.297973 2.50917,-0.535373"
         style="fill:none;stroke:#000000;stroke-width:1;stroke-linecap:butt;stroke-linejoin:miter;stroke-miterlimit:4;stroke-dasharray:none;stroke-opacity:1" />
      <path
         inkscape:original-d="m -184.33087,32.441101 c 0.40446,1.87629 0.80833,3.75313 1.21164,5.63054 0.45206,1.18757 0.90335,2.37518 1.35419,3.56361 0.42831,0.78364 0.85584,1.56743 1.28289,2.352 0.64218,0.61729 1.28349,1.23483 1.92437,1.85309 1.1884,0.59336 2.3763,1.18731 3.56362,1.78181 1.02194,0.33198 2.0437,0.66464 3.06471,0.99782 1.11679,0.0469 2.23376,0.0945 3.34981,0.14255 1.21162,-0.0718 2.42383,-0.14311 3.63491,-0.21382 1.35407,-0.57046 2.70891,-1.14093 4.06253,-1.71054 0.99787,-0.61795 1.99619,-1.23596 2.99345,-1.85309 0.61784,-0.78404 1.23594,-1.56855 1.85307,-2.35199 0.33291,-0.59404 0.66578,-1.18844 0.99781,-1.78182 0.35653,-1.18709 0.7133,-2.37631 1.06909,-3.56362 -0.0945,-1.33023 -0.18944,-2.66141 -0.28508,-3.99126 -0.35565,-1.02173 -0.71215,-2.04371 -1.06908,-3.06472 -0.59318,-0.90306 -1.18732,-1.80613 -1.78182,-2.70836 -0.97334,-0.61816 -1.94756,-1.23595 -2.92216,-1.85308 -1.21126,-0.33322 -2.51775,-0.66577 -3.77744,-0.99781 -3.80184,0.30838 -7.60187,0.61713 -11.40363,0.92654 -0.99741,0.30833 -1.99504,0.61712 -2.99344,0.92654 -1.2832,0.37981 -2.56524,0.80719 -3.84871,1.21164 -0.59367,0.73629 -1.1873,1.47239 -1.7818,2.20945 -0.16597,0.83164 -0.33205,1.66245 -0.49893,2.49453 z"
         inkscape:path-effect="#path-effect4510"
         inkscape:connector-curvature="0"
         id="path4508"
         d="m -184.12897,33.379318 c 0.20189,0.938217 0.60577,2.815055 1.03345,4.347603 0.42767,1.532548 0.87897,2.720156 1.31854,3.706247 0.43957,0.986091 0.86709,1.769888 1.40178,2.470916 0.53468,0.701029 1.17598,1.318577 2.09073,1.924433 0.91475,0.605856 2.10265,1.199806 3.20734,1.663048 1.10469,0.463242 2.12645,0.795909 3.19545,0.985919 1.06899,0.19001 2.18597,0.237543 3.34983,0.225653 1.16386,-0.01189 2.37607,-0.0832 3.65869,-0.403909 1.28262,-0.320711 2.63746,-0.891172 3.81319,-1.485015 1.17574,-0.593843 2.17406,-1.211851 2.98152,-1.912545 0.80747,-0.700693 1.42557,-1.485206 1.90053,-2.17397 0.47496,-0.688764 0.80782,-1.283168 1.15202,-2.173403 0.34419,-0.890235 0.70096,-2.079455 0.83153,-3.338151 0.13058,-1.258697 0.0355,-2.589867 -0.19016,-3.765561 -0.22566,-1.175694 -0.58216,-2.197674 -1.0572,-3.159612 -0.47505,-0.961938 -1.06918,-1.865015 -1.85298,-2.625095 -0.78381,-0.76008 -1.75802,-1.377876 -2.85238,-1.847175 -1.09437,-0.469299 -2.39775,-0.813589 -4.92841,-0.825492 -2.53066,-0.0119 -6.33069,0.296847 -8.73024,0.605638 -2.39955,0.308792 -3.39718,0.617581 -4.53457,0.97301 -1.1374,0.355429 -2.42625,0.76118 -3.36491,1.331346 -0.93866,0.570166 -1.53228,1.306268 -1.91266,2.090608 -0.38038,0.78434 -0.54655,1.615132 -0.62977,2.031216 -0.0832,0.416084 -0.0832,0.416074 0.11868,1.354291 z"
         style="fill:none;stroke:#000000;stroke-width:1;stroke-linecap:butt;stroke-linejoin:miter;stroke-miterlimit:4;stroke-dasharray:none;stroke-opacity:1" />
      <path
         inkscape:original-d="m -141.49609,32.084751 c 0.16683,1.49615 0.33319,2.99287 0.49893,4.49016 0.59469,1.30654 1.18843,2.61277 1.7818,3.91999 0.71343,0.87863 1.42602,1.7575 2.13816,2.63707 1.04599,0.54591 2.09125,1.09229 3.136,1.63928 1.42574,0.37948 2.85148,0.75967 4.27636,1.14036 0.90309,-0.0243 1.80614,-0.0481 2.70836,-0.0713 1.59128,-0.33295 3.18407,-0.66577 4.77525,-0.99781 1.33045,-0.78425 2.6614,-1.56857 3.99127,-2.35199 0.92664,-0.95039 1.85365,-1.90117 2.77961,-2.8509 0.45169,-1.09276 0.90336,-2.18626 1.35419,-3.27854 0.26173,-1.37764 0.52322,-2.75643 0.784,-4.1338 -0.11819,-1.90028 -0.23701,-3.80177 -0.35637,-5.70181 -0.35569,-0.76059 -0.71216,-1.52104 -1.06909,-2.28072 -0.71192,-0.42806 -1.42488,-0.85583 -2.13818,-1.2829 -2.20938,-0.35701 -4.41831,-0.71329 -6.62834,-1.06909 -1.90044,-5.6e-4 -3.80064,-5.6e-4 -5.70179,0 -1.28272,0.28461 -2.56525,0.56962 -3.84872,0.85527 -1.28299,0.59368 -2.56524,1.18731 -3.84871,1.78181 -0.95024,0.49861 -1.90003,0.99725 -2.85091,1.49673 -0.52246,0.68889 -1.04477,1.37737 -1.56799,2.0669 -0.0708,1.33107 -0.14209,2.66028 -0.21383,3.99127 z"
         inkscape:path-effect="#path-effect4514"
         inkscape:connector-curvature="0"
         id="path4512"
         d="m -141.41296,32.832858 c 0.0831,0.748107 0.24943,2.244833 0.62963,3.646866 0.38019,1.402033 0.97392,2.708265 1.62735,3.801287 0.65343,1.093023 1.36602,1.971891 2.24522,2.684718 0.8792,0.712827 1.92445,1.259214 3.15979,1.722442 1.23533,0.463229 2.66107,0.843425 3.82515,1.021545 1.16408,0.17812 2.06713,0.154346 3.31392,-0.02379 1.24679,-0.178138 2.83958,-0.510958 4.3004,-1.069228 1.46082,-0.55827 2.79178,-1.34258 3.91998,-2.209582 1.12819,-0.867002 2.0552,-1.817784 2.74389,-2.839082 0.68869,-1.021298 1.14036,-2.114799 1.49656,-3.349742 0.3562,-1.234943 0.6177,-2.613732 0.68892,-4.252498 0.0712,-1.638766 -0.0476,-3.540254 -0.28519,-4.870427 -0.23757,-1.330173 -0.59403,-2.090626 -1.12832,-2.684321 -0.53428,-0.593694 -1.24724,-1.021467 -2.70843,-1.41352 -1.46119,-0.392053 -3.67012,-0.748333 -5.72531,-0.926554 -2.05518,-0.17822 -3.95538,-0.17822 -5.54727,-0.03571 -1.59189,0.142514 -2.87442,0.42752 -4.15764,0.8671 -1.28322,0.43958 -2.56547,1.033214 -3.68232,1.579749 -1.11686,0.546536 -2.06665,1.045177 -2.80342,1.639222 -0.73677,0.594045 -1.25907,1.282533 -1.5563,2.29285 -0.29722,1.010318 -0.36843,2.339532 -0.40409,3.005038 -0.0357,0.665507 -0.0357,0.665527 0.0475,1.413634 z"
         style="fill:none;stroke:#000000;stroke-width:1;stroke-linecap:butt;stroke-linejoin:miter;stroke-miterlimit:4;stroke-dasharray:none;stroke-opacity:1" />
      <path
         inkscape:original-d="m -137.14845,30.873111 c 0.83207,-1.06966 1.66357,-2.13874 2.49454,-3.20726 1.21148,-0.71288 2.42382,-1.42602 3.63489,-2.13818 1.42523,-0.16677 2.85146,-0.33317 4.27634,-0.49891 1.28292,0.35564 2.56639,0.71216 3.84872,1.0691 1.11685,1.18695 2.2813,2.42269 3.42109,3.63488"
         inkscape:path-effect="#path-effect4518"
         inkscape:connector-curvature="0"
         id="path4516"
         d="m -137.14845,30.873111 c 0.832,-1.069714 1.66351,-2.13879 2.68482,-3.029375 1.02131,-0.890586 2.23364,-1.603729 3.55177,-2.043039 1.31813,-0.439311 2.74436,-0.605705 4.09813,-0.510662 1.35378,0.09504 2.63725,0.451567 3.83701,1.2231 1.19976,0.771532 2.36347,2.007967 3.50385,3.219606"
         style="fill:none;stroke:#000000;stroke-width:1;stroke-linecap:butt;stroke-linejoin:miter;stroke-miterlimit:4;stroke-dasharray:none;stroke-opacity:1" />
      <path
         inkscape:original-d="m -175.63562,31.870921 c 1.23596,-1.02214 2.47136,-2.0437 3.70617,-3.06472 0.66545,-0.42798 1.33099,-0.85583 1.99564,-1.2829 1.211,-0.0243 2.42383,-0.0481 3.63489,-0.0713 0.73669,0.0469 1.47353,0.0945 2.20945,0.14256 1.59119,1.49508 3.18407,2.99287 4.77526,4.49016"
         inkscape:path-effect="#path-effect4522"
         inkscape:connector-curvature="0"
         id="path4520"
         d="m -175.63562,31.870921 c 1.23601,-1.022083 2.4714,-2.043656 3.42155,-2.768109 0.95016,-0.724453 1.6157,-1.152299 2.55349,-1.377782 0.93778,-0.225484 2.15061,-0.249274 3.12446,-0.237386 0.97385,0.01189 1.71069,0.05943 2.87399,0.831009 1.1633,0.771577 2.75618,2.269362 4.34792,3.766068"
         style="fill:none;stroke:#000000;stroke-width:1;stroke-linecap:butt;stroke-linejoin:miter;stroke-miterlimit:4;stroke-dasharray:none;stroke-opacity:1" />
      <ellipse
         ry="2.9578094"
         rx="3.2072632"
         cy="28.77059"
         cx="-128.4532"
         id="path4524"
         style="opacity:1;fill:#000000;fill-opacity:1;fill-rule:nonzero;stroke:#000000;stroke-width:1;stroke-linecap:round;stroke-linejoin:round;stroke-miterlimit:4;stroke-dasharray:none;stroke-dashoffset:0;stroke-opacity:1;paint-order:markers fill stroke" />
      <ellipse
         ry="2.9578094"
         rx="3.2072632"
         cy="31.08692"
         cx="-167.0829"
         id="path4524-9"
         style="opacity:1;fill:#000000;fill-opacity:1;fill-rule:nonzero;stroke:#000000;stroke-width:1;stroke-linecap:round;stroke-linejoin:round;stroke-miterlimit:4;stroke-dasharray:none;stroke-dashoffset:0;stroke-opacity:1;paint-order:markers fill stroke" />
      <path
         inkscape:original-d="m -155.4959,52.014571 c -0.36901,0.26823 -0.73859,0.53701 -1.10874,0.80636 0.23815,0.59577 0.4749,1.19005 0.71151,1.78593 0.2739,0.60554 0.547,1.21106 0.81963,1.81744 0.25014,0.26088 0.49947,0.52211 0.74836,0.784 0.23815,-0.1431 0.47572,-0.28565 0.71274,-0.42763 0.0717,-0.32039 0.14314,-0.64202 0.21381,-0.96218 -0.3195,-0.51031 -0.64089,-1.02214 -0.96217,-1.53236 -0.1775,-0.4162 -0.3558,-0.83208 -0.53455,-1.24727 -0.19948,-0.34177 -0.39981,-0.68342 -0.60059,-1.02429 z"
         inkscape:path-effect="#path-effect4543"
         inkscape:connector-curvature="0"
         id="path4541"
         d="m -155.58032,52.319366 c -0.28452,-0.03647 -0.6541,0.232312 -0.72048,0.664961 -0.0664,0.432648 0.17038,1.026925 0.42564,1.627652 0.25525,0.600727 0.52834,1.206255 0.78977,1.640008 0.26144,0.433753 0.51079,0.694971 0.75464,0.754171 0.24385,0.0592 0.48143,-0.08334 0.6355,-0.314662 0.15407,-0.231322 0.22554,-0.552945 0.10102,-0.967922 -0.12452,-0.414977 -0.4459,-0.926812 -0.69534,-1.390069 -0.24943,-0.463258 -0.42767,-0.879161 -0.61679,-1.257588 -0.18911,-0.378426 -0.38944,-0.720078 -0.67396,-0.756551 z"
         style="fill:none;stroke:#000000;stroke-width:1;stroke-linecap:butt;stroke-linejoin:miter;stroke-miterlimit:4;stroke-dasharray:none;stroke-opacity:1" />
      <path
         inkscape:original-d="m -158.41893,51.409801 c 0.0678,0.70501 0.13504,1.41057 0.2016,2.1167 0.80749,0.50376 1.61329,1.00737 2.41908,1.51191"
         inkscape:path-effect="#path-effect4547"
         inkscape:connector-curvature="0"
         id="path4545"
         d="m -158.41893,51.409801 c 0.0671,0.705072 0.13435,1.410635 0.57152,2.015877 0.43716,0.605242 1.24295,1.108859 2.04916,1.612733"
         style="fill:none;stroke:#000000;stroke-width:1;stroke-linecap:butt;stroke-linejoin:miter;stroke-miterlimit:4;stroke-dasharray:none;stroke-opacity:1" />
      <path
         sodipodi:nodetypes="ccccccc"
         inkscape:original-d="m -153.11349,56.032311 c 1.42601,0.37955 2.85146,0.75967 4.27635,1.14035 1.1881,0.0944 2.37631,0.18951 3.5636,0.2851 0.90297,-0.33303 1.80614,-0.66578 2.70839,-0.99782 1.19567,-0.74294 2.39261,-1.48645 3.58808,-2.22885 1.18435,-0.51134 2.36815,-1.02213 3.55137,-1.53235 -0.14613,-0.78996 -0.43985,-2.36824 -0.43985,-2.36824"
         inkscape:path-effect="#path-effect4555"
         inkscape:connector-curvature="0"
         id="path4553"
         d="m -153.11349,56.032311 c 1.42583,0.380218 2.85128,0.760335 4.15784,0.997867 1.30656,0.237531 2.49477,0.332592 3.53998,0.213731 1.04522,-0.118861 1.94839,-0.451606 2.99734,-0.989181 1.04894,-0.537574 2.24588,-1.28109 3.4358,-1.907901 1.18992,-0.62681 2.37373,-1.137598 2.89193,-1.787769 0.5182,-0.650171 0.37167,-1.439144 0.22505,-2.228557"
         style="fill:none;stroke:#000000;stroke-width:1;stroke-linecap:butt;stroke-linejoin:miter;stroke-miterlimit:4;stroke-dasharray:none;stroke-opacity:1" />
      <path
         sodipodi:nodetypes="cccccccccccc"
         inkscape:original-d="m -166.79782,63.515931 c 1.40225,1.68621 2.80395,3.37299 4.20507,5.06034 0.73708,0.97353 1.47353,1.94755 2.20945,2.92217 1.47368,1.90021 2.9465,3.80064 4.4189,5.70181 1.18849,0.71219 2.37632,1.42488 3.56364,2.13817 1.21202,0.49828 2.4238,0.99725 3.63489,1.49672 1.56818,0.0944 3.18407,0.18949 4.77525,0.28509 1.33968,-0.0603 2.6797,-0.12004 4.01868,-0.17922 1.56518,-1.05573 3.1298,-2.1109 4.69387,-3.16552 1.27771,-1.68903 2.55483,-3.3775 3.83142,-5.06541 0.83175,-1.40171 1.66359,-2.80395 2.49452,-4.20508 0.87918,-2.42268 1.75863,-4.84709 2.63711,-7.26979"
         inkscape:path-effect="#path-effect4559"
         inkscape:connector-curvature="0"
         id="path4557"
         d="m -166.79782,63.515931 c 1.40164,1.686718 2.80333,3.373503 3.87242,4.703926 1.0691,1.330423 1.80555,2.30444 2.91035,3.741863 1.10479,1.437424 2.57762,3.337848 3.90818,4.644615 1.33056,1.306767 2.51839,2.01946 3.71812,2.625249 1.19973,0.60579 2.41151,1.104759 3.80131,1.400971 1.3898,0.296212 3.0056,0.392678 4.47106,0.410304 1.46546,0.01763 2.80548,-0.04214 4.25759,-0.599794 1.45211,-0.557659 3.01673,-1.61283 4.43754,-2.984752 1.4208,-1.371922 2.69793,-3.060383 3.75205,-4.605214 1.05413,-1.54483 1.88596,-2.947074 2.74095,-4.858983 0.85499,-1.911909 1.73444,-4.336318 2.61323,-6.758905"
         style="fill:none;stroke:#000000;stroke-width:1;stroke-linecap:butt;stroke-linejoin:miter;stroke-miterlimit:4;stroke-dasharray:none;stroke-opacity:1" />
      <path
         inkscape:original-d="m -166.79782,63.515931 c 1.63982,0.0945 3.32662,0.1895 4.98908,0.28508 1.47305,-0.0481 2.94648,-0.0956 4.41889,-0.14253 1.94791,0.0944 3.89678,0.18949 5.84435,0.28508 1.02185,0.11819 2.04371,0.23702 3.06471,0.35637 1.0929,-0.14304 2.18626,-0.28566 3.27854,-0.42764 1.47269,-0.11927 2.9465,-0.23813 4.41889,-0.35635 1.7579,-0.42803 3.51669,-0.85584 5.27418,-1.28292 1.23547,-0.28554 2.47135,-0.57074 3.70617,-0.85526 1.78141,-0.0481 3.65921,-0.0956 5.48799,-0.14255"
         inkscape:path-effect="#path-effect4563"
         inkscape:connector-curvature="0"
         id="path4561"
         d="m -166.79782,63.515931 c 1.63987,0.0937 3.32659,0.190084 4.89437,0.213825 1.56778,0.02374 3.04121,-0.02378 4.75134,-2.2e-5 1.71014,0.02376 3.65901,0.118826 5.1437,0.225733 1.48469,0.106908 2.50655,0.225732 3.56357,0.213817 1.05701,-0.01192 2.15037,-0.154528 3.43285,-0.285143 1.28247,-0.130615 2.75628,-0.249466 4.37145,-0.522646 1.61518,-0.273179 3.37397,-0.700996 4.87045,-1.057299 1.49648,-0.356302 2.73236,-0.641502 4.24045,-0.807105 1.50809,-0.165603 3.38585,-0.214378 5.21462,-0.26188"
         style="fill:none;stroke:#000000;stroke-width:1;stroke-linecap:butt;stroke-linejoin:miter;stroke-miterlimit:4;stroke-dasharray:none;stroke-opacity:1" />
      <path
         sodipodi:nodetypes="ccccccccc"
         inkscape:original-d="m -166.79782,63.515931 c 1.66358,0.87846 3.32662,1.75748 4.98908,2.63707 1.21204,1.42471 2.42383,2.85035 3.63489,4.27636 1.92498,0.97352 3.84928,1.94755 5.77309,2.92217 1.61586,0.78334 3.23158,1.61494 4.84652,2.42327 1.78213,-0.0481 3.56419,-0.0956 5.34543,-0.14255 1.30682,-0.49932 2.6139,-0.99839 3.92001,-1.49673 1.08945,-0.89066 2.17949,-1.78167 3.2684,-2.67167 2.90235,-3.41011 5.80414,-6.81966 8.70538,-10.22864"
         inkscape:path-effect="#path-effect4567"
         inkscape:connector-curvature="0"
         id="path4565"
         d="m -166.79782,63.515931 c 1.66323,0.879129 3.32626,1.758157 4.76339,2.910226 1.43713,1.152068 2.64891,2.577709 4.21707,3.777554 1.56815,1.199846 3.49245,2.173871 5.25754,3.062353 1.76508,0.888482 3.3903,1.701092 5.08901,2.081152 1.69872,0.380059 3.48077,0.332536 5.02486,0.05928 1.54408,-0.273256 2.85116,-0.772323 4.04891,-1.466944 1.19775,-0.69462 2.28778,-1.585639 4.28336,-3.735744 1.99559,-2.150104 4.89738,-5.559651 7.79866,-8.968596"
         style="fill:none;stroke:#000000;stroke-width:1;stroke-linecap:butt;stroke-linejoin:miter;stroke-miterlimit:4;stroke-dasharray:none;stroke-opacity:1" />
      <path
         inkscape:original-d="m -165.44364,64.157381 c 1.75862,0.35579 3.51667,0.71215 5.27416,1.06908 2.23322,0.47447 4.46697,0.94973 6.69961,1.42545 2.2571,0.0944 4.51449,0.18949 6.77089,0.28509 1.92446,-0.30933 3.84928,-0.61825 5.77309,-0.92654 1.90052,-0.33306 3.80177,-0.66577 5.70179,-0.99781 2.8505,-1.04555 5.93994,-2.51886 8.90908,-3.77744"
         inkscape:path-effect="#path-effect4571"
         inkscape:connector-curvature="0"
         id="path4569"
         d="m -165.44364,64.157381 c 1.75849,0.356448 3.51654,0.712807 5.51189,1.128506 1.99535,0.415698 4.2291,0.890964 6.47403,1.176011 2.24492,0.285048 4.50232,0.380096 6.59279,0.273162 2.09048,-0.106933 4.0153,-0.415853 5.92747,-0.736528 1.91217,-0.320675 3.81342,-0.653392 6.15934,-1.411518 2.34592,-0.758125 5.49408,-2.092942 8.4631,-3.351803"
         style="fill:none;stroke:#000000;stroke-width:1;stroke-linecap:butt;stroke-linejoin:miter;stroke-miterlimit:4;stroke-dasharray:none;stroke-opacity:1" />
      <path
         sodipodi:nodetypes="ccccccccccccccccccc"
         inkscape:original-d="m -189.46248,37.786541 c 5.6e-4,-2.51886 -0.28452,-4.79958 -0.42762,-7.19851 0.47561,-1.92451 0.23812,-3.37414 0.35635,-5.06036 1.44925,-4.94036 2.89897,-9.88369 4.34762,-14.824676 0.28562,-1.7583896 0.57074,-3.5166796 0.85526,-5.2741696 0.76055,-2.090465 1.52107,-4.181884 2.28073,-6.27197397 1.71056,-1.42556003 3.42164,-2.85147003 5.13163,-4.27635003 3.75291,-1.8055 7.50793,-3.61171 11.26105,-5.4167204 2.5184,-0.95069 5.03715,-1.90116 7.55488,-2.8509 2.94569,0.14195 5.89243,0.28453 8.8378,0.42764 2.80344,-0.0956 5.60732,-0.19062 8.41014,-0.28509 2.75587,1.09205 5.51231,2.18512 8.26762,3.2785304 3.65883,1.47225 7.31787,2.94537 10.97597,4.4189 1.47343,2.47002 2.9465,4.94100003 4.4189,7.41234 1.09348,1.947684 2.18626,3.895664 3.27853,5.844344 0.52327,1.94774 1.04591,3.8956696 1.568,5.8443456 0.99858,2.32813 1.75861,4.941 2.63708,7.41234 0.35697,1.2825 1.33098,2.0901 1.99563,3.13599 -0.11371,2.80983 -0.23698,5.84379 -0.35632,8.76654"
         inkscape:path-effect="#path-effect4575"
         inkscape:connector-curvature="0"
         id="path4573"
         d="m -189.46248,37.786541 c -0.1491,-2.509969 -0.28511,-4.799545 -0.28777,-6.973198 -0.003,-2.173653 0.0978,-3.599488 0.88157,-6.912813 0.78382,-3.313326 2.23354,-8.256654 3.10062,-11.606327 0.86708,-3.3496733 1.15221,-5.1079626 1.67481,-7.0319631 0.5226,-1.9240005 1.28312,-4.0154195 2.51842,-5.77315564 1.2353,-1.75773616 2.94638,-3.18363856 5.67787,-4.79873956 2.73148,-1.6151009 6.48649,-3.4213161 9.62225,-4.7991317 3.13577,-1.377816 5.65451,-2.328288 8.38615,-2.732043 2.73164,-0.403755 5.67838,-0.26117 8.55281,-0.237426 2.87443,0.02374 5.67831,-0.0713 8.45751,0.427559 2.7792,0.498863 5.53564,1.591931 8.74271,2.874758 3.20707,1.2828272 6.86611,2.755948 9.43167,4.7275857 2.56556,1.9716378 4.03865,4.4426108 5.32158,6.6521121 1.28294,2.2095014 2.37571,4.1574866 3.18349,6.1055947 0.80778,1.9481081 1.3304,3.8960435 2.01549,6.0612465 0.68509,2.165203 1.59562,4.72453 2.37708,6.497343 0.78147,1.772813 1.42801,2.788803 1.70356,4.716445 0.27554,1.927643 0.15223,4.961601 0.0334,7.884373"
         style="fill:none;stroke:#000000;stroke-width:1;stroke-linecap:butt;stroke-linejoin:miter;stroke-miterlimit:4;stroke-dasharray:none;stroke-opacity:1" />
      <path
         sodipodi:nodetypes="cccccccccccccccccccccccccccc"
         inkscape:original-d="m -189.46248,37.786541 c -0.61713,-1.47353 -1.23483,-2.94649 -1.85309,-4.4189 -0.54116,-0.52125 -1.0831,-1.04214 -1.6255,-1.56238 -0.30184,-0.051 -0.60419,-0.10134 -0.90715,-0.15118 0.0678,-0.7072 0.13504,-1.41169 0.2016,-2.11669 -0.18411,-1.09155 -0.36901,-2.18445 -0.55438,-3.27582 -0.21772,-0.42037 -0.4362,-0.84052 -0.65515,-1.25993 -0.43454,-1.20255 -0.87006,-2.40575 -1.30593,-3.60777 0.42809,-8.88352 0.85584,-17.7711756 1.2829,-26.6559096 2.04357,-4.1341 4.08686,-8.2681804 6.12944,-12.4014204 2.66097,-2.66097 5.32224,-5.32225 7.98254,-7.98253 2.3758,-2.23329 4.75206,-4.46697 7.12722,-6.69961 3.80085,-1.47317 7.60297,-2.9465 11.40361,-4.4189 3.13601,-0.66566 6.27254,-1.33098 9.40797,-1.99563 2.80338,0.0469 5.60735,0.0945 8.41017,0.14255 3.04092,0.522 6.08249,1.04476 9.12288,1.568 3.80121,1.89975 7.60297,3.80063 11.4036,5.7018 3.46896,5.22577 6.93775,10.45273 10.40579,15.67995 2.09129,3.4206 4.18188,6.8416004 6.27199,10.2632404 0.71331,2.04268 1.426,4.08573 2.13818,6.12944003 0.52331,2.18546997 1.04587,4.37081397 1.56799,6.55706397 0.14315,1.99544 0.28566,3.9906996 0.42763,5.9868856 -0.23708,2.04312 -0.47458,4.08573 -0.71273,6.12944 -0.11819,0.80744 -0.23702,1.61494 -0.35636,2.42327 0.14315,1.21202 0.28566,2.4227 0.42763,3.6349 -0.0469,1.28286 -0.0945,2.61276 -0.14251,3.91998 -0.47479,-0.49969 -0.94972,-0.99838 -1.42544,-1.49672 -0.88032,1.58053 -1.85252,3.32549 -2.7796,4.98908"
         inkscape:path-effect="#path-effect4579"
         inkscape:connector-curvature="0"
         id="path4577"
         d="m -189.46248,37.786541 c -0.61781,-1.473244 -1.23551,-2.946206 -1.81515,-3.942891 -0.57965,-0.996685 -1.12159,-1.517578 -1.54349,-1.803144 -0.4219,-0.285567 -0.72425,-0.335953 -0.84199,-0.71481 -0.11775,-0.378857 -0.0507,-1.08336 -0.10944,-1.981557 -0.0588,-0.898196 -0.24373,-1.991087 -0.44529,-2.746835 -0.20156,-0.755748 -0.42004,-1.1759 -0.74678,-1.986936 -0.32674,-0.811035 -0.76227,-2.014232 -0.76609,-7.057137 -0.004,-5.042906 0.42393,-13.9305618 1.6594,-20.440021 1.23548,-6.5094592 3.27876,-10.643543 5.63065,-14.04059 2.35189,-3.397047 5.01317,-6.058321 7.53122,-8.505102 2.51806,-2.446781 4.89431,-4.680467 7.98237,-6.533229 3.08805,-1.852762 6.89018,-3.326085 10.35849,-4.395053 3.46831,-1.068968 6.60484,-1.734293 9.57419,-2.043071 2.96936,-0.308778 5.77333,-0.261251 8.69515,0.02382 2.92182,0.285074 5.96339,0.807845 9.38407,2.019356 3.42069,1.211511 7.22245,3.112391 10.85709,6.675737 3.63463,3.563346 7.10343,8.790301 9.88309,13.1142 2.77965,4.323899 4.87026,7.7448888 6.27196,10.4769656 1.4017,2.7320768 2.1144,4.7751259 2.73214,6.8896794 0.61775,2.1145535 1.14033,4.2998927 1.47298,6.3906831 0.33264,2.0907904 0.47516,4.0860499 0.42767,6.1056519 -0.0475,2.019603 -0.28501,4.062212 -0.4632,5.487776 -0.17819,1.425565 -0.29694,2.233076 -0.28508,3.243318 0.0119,1.010241 0.15429,2.22093 0.20227,3.468428 0.048,1.247498 -3.7e-4,2.57737 -0.26181,2.98142 -0.26145,0.404049 -0.73638,-0.09464 -1.41421,0.446127 -0.67782,0.540764 -1.65001,2.285732 -2.57691,3.949421"
         style="fill:none;stroke:#000000;stroke-width:1;stroke-linecap:butt;stroke-linejoin:miter;stroke-miterlimit:4;stroke-dasharray:none;stroke-opacity:1" />
      <path
         inkscape:original-d="m -157.51178,-38.297349 c 0.20223,-0.67252 0.40373,-1.34449 0.60476,-2.01589 1.41027,-1.20888 2.8228,-2.41963 4.23338,-3.6286 1.74691,-0.67224 3.49477,-1.34449 5.2413,-2.01589 3.82927,0.46963 7.66096,0.94018 11.49058,1.41112 1.5459,1.00726 3.09162,2.01533 4.63656,3.02384 0.94122,0.87291 1.88205,1.74654 2.82224,2.62066 0.13504,1.07455 0.26936,2.14972 0.40318,3.22542 -0.0666,0.60448 -0.13376,1.20897 -0.2016,1.81431"
         inkscape:path-effect="#path-effect4583"
         inkscape:connector-curvature="0"
         id="path4581"
         d="m -157.51178,-38.297349 c 0.20179,-0.672651 0.40337,-1.344597 1.20922,-2.28466 0.80585,-0.940063 2.21839,-2.150805 3.79717,-3.091285 1.57878,-0.94048 3.32664,-1.612735 6.11444,-1.71346 2.7878,-0.100724 6.61949,0.369833 9.30708,1.108947 2.68758,0.739114 4.2333,1.747189 5.47632,2.687859 1.24303,0.94067 2.18386,1.814301 2.72139,2.788389 0.53753,0.974089 0.67193,2.049249 0.70557,2.889268 0.0336,0.84002 -0.0335,1.444509 -0.10079,2.049912"
         style="fill:none;stroke:#000000;stroke-width:1;stroke-linecap:butt;stroke-linejoin:miter;stroke-miterlimit:4;stroke-dasharray:none;stroke-opacity:1" />
      <path
         inkscape:original-d="m -195.66319,24.458581 c -0.54586,0.0232 -1.09228,0.0469 -1.63927,0.0713 -0.21349,0.57024 -0.42706,1.1398 -0.64146,1.71054 0.21464,1.26009 0.42821,2.51773 0.64146,3.77745 0.78486,1.568 1.56857,3.13542 2.352,4.70398 0.64212,1.13996 1.28347,2.28016 1.92435,3.42109 0.40452,0.80732 0.80832,1.61494 1.21163,2.42326 0.59467,0.95 1.18845,1.90004 1.78182,2.85091 0.23817,1.04492 0.47572,2.09009 0.71273,3.13599 0.0719,0.97387 0.14315,1.94755 0.21381,2.92217 0.11947,0.90269 0.23815,1.805 0.35638,2.70835 0.30957,0.71255 0.61824,1.42489 0.92653,2.13818 0.61849,0.18957 1.23597,0.37955 1.85308,0.57018"
         inkscape:path-effect="#path-effect4587"
         inkscape:connector-curvature="0"
         id="path4585"
         d="m -195.66319,24.458581 c -0.54584,0.02374 -1.09225,0.04751 -1.47266,0.344466 -0.38041,0.296958 -0.59399,0.866512 -0.59403,1.782043 -4e-5,0.91553 0.21352,2.173171 0.71256,3.587147 0.49903,1.413977 1.28275,2.981395 1.99552,4.335676 0.71278,1.354281 1.35413,2.494478 1.87683,3.468585 0.52269,0.974107 0.9265,1.781723 1.4255,2.66092 0.499,0.879196 1.09278,1.829238 1.50855,2.827 0.41578,0.997761 0.65332,2.042933 0.80778,3.052767 0.15447,1.009833 0.22571,1.983513 0.32076,2.922189 0.0951,0.938676 0.21378,1.84098 0.42766,2.649035 0.21387,0.808055 0.52255,1.520393 0.98617,1.972013 0.46362,0.451621 1.0811,0.641614 1.69842,0.831559"
         style="fill:none;stroke:#000000;stroke-width:1;stroke-linecap:butt;stroke-linejoin:miter;stroke-miterlimit:4;stroke-dasharray:none;stroke-opacity:1" />
      <path
         sodipodi:nodetypes="cccccc"
         inkscape:original-d="m -105.43213,29.020031 c -0.32504,3.02773 -0.65064,6.05605 -0.97682,9.0849 0.30302,1.51171 0.60534,3.02327 0.90714,4.53575 -0.23469,1.1421 -0.4698,2.28411 -0.70556,3.42702 -0.43644,0.67178 -0.87298,1.34336 -1.3103,2.01588 -0.67207,0.33575 -1.34337,0.67141 -2.01591,1.00795"
         inkscape:path-effect="#path-effect4595"
         inkscape:connector-curvature="0"
         id="path4593"
         d="m -105.43213,29.020031 c -0.32554,3.027676 -0.65115,6.055995 -0.6628,8.326368 -0.0117,2.270373 0.29065,3.781935 0.32433,5.109114 0.0337,1.32718 -0.20145,2.469188 -0.5374,3.37653 -0.33596,0.907342 -0.77248,1.578931 -1.32705,2.083223 -0.55458,0.504292 -1.22588,0.839942 -1.89853,1.176265"
         style="fill:none;stroke:#000000;stroke-width:1;stroke-linecap:butt;stroke-linejoin:miter;stroke-miterlimit:4;stroke-dasharray:none;stroke-opacity:1" />
      <path
         sodipodi:nodetypes="cccccccccccccccc"
         inkscape:original-d="m -109.23118,43.245441 c -0.0986,1.91369 -0.20096,3.89683 -0.3024,5.84609 -0.88939,5.40222 -1.77909,10.80358 -2.66948,16.2062 -2.70813,3.94365 -5.51118,7.88693 -8.26762,11.83124 -1.18751,1.33008 -2.3752,2.66029 -3.56364,3.99126 -2.37623,3.27944 -4.75094,6.55651 -7.12724,9.83561 -1.33012,1.04497 -2.66028,2.09009 -3.99126,3.136 -3.04182,0.71248 -6.08135,1.42487 -9.12288,2.13816 -2.47076,-0.0481 -5.03603,-0.0956 -7.55488,-0.14255 -2.61336,-1.5689 -5.2261,-3.13655 -7.83999,-4.70398 -4.1335,-3.84953 -8.26704,-7.698 -12.40141,-11.54615 -2.85035,-3.18408 -5.70124,-6.36757 -8.55272,-9.55051 -0.66462,-1.90115 -1.32984,-3.80177 -1.99563,-5.70181 -0.617,-1.94834 -1.23482,-3.89679 -1.85306,-5.84434 -0.49827,-1.28324 -0.99726,-2.56638 -1.49674,-3.84872 -0.3407,-2.37026 -0.68215,-4.74105 -1.02406,-7.11074"
         inkscape:path-effect="#path-effect4599"
         inkscape:connector-curvature="0"
         id="path4597"
         d="m -109.23118,43.245441 c -0.099,1.91367 -0.20157,3.896798 -0.6969,7.572517 -0.49534,3.675719 -1.38505,9.077077 -3.2001,13.739058 -1.81504,4.66198 -4.58618,8.627564 -6.55811,11.264783 -1.97194,2.637219 -3.15963,3.967428 -4.942,6.272609 -1.78237,2.305182 -4.15707,5.582264 -6.0102,7.744373 -1.85313,2.162109 -3.18328,3.207234 -5.36967,4.086597 -2.18638,0.879362 -5.22591,1.591747 -7.98212,1.924875 -2.75621,0.333128 -5.32146,0.284725 -7.88776,-0.523162 -2.56629,-0.807887 -5.17904,-2.375529 -8.55281,-5.084046 -3.37377,-2.708517 -7.50731,-6.556988 -10.99969,-10.073129 -3.49239,-3.516142 -6.34328,-6.699629 -8.10138,-9.24182 -1.7581,-2.542191 -2.42331,-4.442813 -3.06471,-6.367015 -0.64139,-1.924201 -1.25919,-3.872659 -1.81744,-5.488029 -0.55826,-1.61537 -1.05726,-2.898505 -1.47733,-4.724892 -0.42007,-1.826387 -0.7615,-4.197179 -1.10279,-6.566959"
         style="fill:none;stroke:#000000;stroke-width:1;stroke-linecap:butt;stroke-linejoin:miter;stroke-miterlimit:4;stroke-dasharray:none;stroke-opacity:1" />
      <path
         inkscape:connector-curvature="0"
         id="path5631"
         d="m -188.09063,25.366782 c -0.25724,-0.06722 -0.46772,-0.144122 -0.46772,-0.170882 0,-0.02676 0.60942,-2.333159 1.35426,-5.125338 0.74484,-2.792177 2.00514,-7.662522 2.80066,-10.8229826 1.76384,-7.007402 2.60928,-8.88755797 5.00338,-11.126908 0.92223,-0.86262 2.51628,-2.06527 3.54233,-2.67256 2.89553,-1.71378 8.49872,-4.44686 11.90106,-5.8050104 4.934,-1.96955 5.99795,-2.10972 15.04181,-1.98162 8.97127,0.12708 9.02191,0.13681 16.58711,3.1900704 8.73709,3.52623 10.86391,5.12402 14.08932,10.58475 2.25966,3.825698 3.60867,6.742266 4.72556,10.2167026 0.59068,1.837479 1.50243,4.531887 2.02612,5.987577 0.5237,1.455684 0.89777,2.734736 0.83127,2.842328 -0.30042,0.486088 -2.0487,0.42231 -4.31283,-0.157334 -1.34647,-0.344712 -3.75189,-0.76871 -5.34539,-0.942216 -3.5499,-0.386532 -10.28025,-0.162205 -12.51896,0.417261 -0.88199,0.228291 -3.91231,1.568292 -6.73405,2.977775 -5.00229,2.498688 -5.18587,2.566066 -7.34991,2.697485 -1.22071,0.07413 -3.46155,0.0087 -4.97963,-0.145447 -2.44907,-0.24865 -3.08165,-0.430786 -5.61266,-1.616043 -1.56888,-0.734695 -3.37989,-1.472914 -4.02447,-1.640491 -2.12355,-0.552066 -11.26494,-0.248541 -16.20056,0.537914 -2.31927,0.369559 -4.29278,1.002594 -6.34054,2.033828 -1.67963,0.845849 -2.7817,1.043739 -4.01616,0.721141 z"
         style="opacity:1;fill:#fdd5ba;fill-opacity:1;fill-rule:nonzero;stroke:none;stroke-width:1.01015258;stroke-linecap:round;stroke-linejoin:round;stroke-miterlimit:4;stroke-dasharray:none;stroke-dashoffset:0;stroke-opacity:1;paint-order:markers fill stroke" />
      <path
         inkscape:connector-curvature="0"
         id="path5633"
         d="m -171.16416,48.024219 c -1.42139,-0.18927 -3.52504,-0.926603 -5.40263,-1.893631 -1.31773,-0.678677 -1.79986,-1.014447 -2.63231,-1.833213 -0.8797,-0.865233 -1.12149,-1.212593 -1.76744,-2.539156 -0.91353,-1.876076 -1.50651,-3.682968 -2.22768,-6.788039 -0.5957,-2.564897 -0.60564,-2.936782 -0.11357,-4.251962 0.58815,-1.571967 1.6054,-2.382878 4.08474,-3.256204 3.33231,-1.173779 8.57042,-1.87929 13.872,-1.868397 3.17166,0.0065 4.69108,0.38626 6.58603,1.646023 1.7948,1.193181 3.01984,3.117032 3.71521,5.834518 0.39051,1.526076 0.36145,4.503425 -0.058,5.944547 -0.62748,2.15579 -1.76187,4.011977 -3.27735,5.362707 -1.48551,1.324009 -4.31246,2.749375 -6.62342,3.339565 -1.46843,0.375018 -4.49634,0.524182 -6.15557,0.303242 z m 6.3744,-13.006128 c 1.61125,-0.338937 3.81951,-1.242409 5.26129,-2.15256 0.39627,-0.250153 0.47931,-0.373618 0.42885,-0.63759 -0.0344,-0.180052 0.002,-0.367049 0.0801,-0.41555 0.23405,-0.14465 -2.78161,-2.890181 -4.26019,-3.878582 -1.14887,-0.767993 -2.01318,-1.009685 -3.59899,-1.006401 -2.93723,0.0061 -4.06169,0.422415 -6.5677,2.43173 -2.6781,2.147284 -2.57276,2.044287 -2.4072,2.353638 0.0967,0.180681 0.10098,0.302067 0.0126,0.356698 -0.25506,0.157639 -0.12937,0.283922 0.90168,0.905952 1.25647,0.758028 2.29207,1.187844 3.77304,1.56597 2.52967,0.64588 4.77448,0.813697 6.37654,0.476695 z"
         style="opacity:1;fill:#fdd5ba;fill-opacity:1;fill-rule:nonzero;stroke:none;stroke-width:0.50507629;stroke-linecap:round;stroke-linejoin:round;stroke-miterlimit:4;stroke-dasharray:none;stroke-dashoffset:0;stroke-opacity:1;paint-order:markers fill stroke" />
      <path
         inkscape:connector-curvature="0"
         id="path5635"
         d="m -130.60601,45.021457 c -1.57495,-0.347355 -3.69043,-1.107614 -4.72743,-1.698937 -1.5982,-0.911338 -2.83772,-2.283372 -3.82348,-4.232264 -1.2452,-2.461824 -1.93236,-5.981203 -1.66716,-8.538678 0.32688,-3.152331 0.8716,-3.819263 4.60541,-5.638647 2.31121,-1.126193 3.89551,-1.708978 5.67948,-2.089203 0.92012,-0.196109 1.73244,-0.240794 4.27631,-0.235235 3.33923,0.0073 5.02655,0.178652 7.75711,0.787762 3.52443,0.786202 4.17,1.730706 4.48051,6.555288 0.23848,3.705307 -0.89577,7.998899 -2.65369,10.045295 -2.70907,3.153632 -6.84692,5.053181 -11.32118,5.197173 -1.18778,0.03822 -1.94073,-0.0058 -2.60588,-0.152554 z m 4.4451,-12.428725 c 1.36079,-0.28108 2.77272,-0.733065 5.05576,-1.618445 1.73936,-0.67454 1.87917,-0.754063 1.82489,-1.038006 -0.0323,-0.169124 0.008,-0.348623 0.0891,-0.398886 0.35412,-0.218863 -2.38471,-2.873303 -3.80037,-3.683264 -2.88218,-1.649013 -7.05597,-1.486728 -10.2279,0.397682 -1.12035,0.665586 -2.50266,1.935427 -3.62342,3.328622 -0.72697,0.903666 -0.78425,1.019009 -0.58022,1.168202 0.14016,0.102486 0.19589,0.26163 0.14632,0.417819 -0.0725,0.228402 0.13192,0.298823 2.15944,0.743926 1.23173,0.270405 2.75067,0.576123 3.37541,0.679374 1.59186,0.263086 4.3147,0.264538 5.581,0.003 z"
         style="opacity:1;fill:#fdd5ba;fill-opacity:1;fill-rule:nonzero;stroke:none;stroke-width:0.50507629;stroke-linecap:round;stroke-linejoin:round;stroke-miterlimit:4;stroke-dasharray:none;stroke-dashoffset:0;stroke-opacity:1;paint-order:markers fill stroke" />
      <path
         inkscape:connector-curvature="0"
         id="path5637"
         d="m -149.25405,95.332468 c -4.69826,-0.60764 -9.53768,-3.848926 -18.56972,-12.437375 -6.84632,-6.510086 -11.28165,-11.713422 -12.90953,-15.144914 -0.50795,-1.070737 -3.60864,-10.013757 -4.30899,-12.428032 -0.32562,-1.122463 -0.83954,-3.795297 -1.16502,-6.059088 l -0.23712,-1.64914 -0.39465,0.07893 c -0.21707,0.04341 -0.46766,0.07893 -0.55689,0.07893 -0.12261,0 -0.13311,0.203901 -0.043,0.835218 0.21254,1.489054 0.76827,4.836006 0.85428,5.144936 0.1218,0.437539 -0.16305,0.379098 -0.68208,-0.139938 -0.6254,-0.625395 -0.96731,-1.863584 -1.28059,-4.637503 -0.42697,-3.780615 -0.76261,-5.165627 -1.63544,-6.748557 -3.4169,-6.19683 -5.57575,-10.338028 -6.09569,-11.693041 -0.46832,-1.220496 -0.82025,-2.773786 -0.84241,-3.718086 -0.0335,-1.42838 0.13939,-1.692183 1.1671,-1.780723 l 0.53387,-0.046 0.3121,0.786551 c 0.44876,1.130993 0.68068,2.344018 0.76922,4.023265 0.0426,0.80849 0.13402,1.62088 0.20309,1.80531 0.0691,0.184428 0.42855,0.542063 0.79883,0.794745 1.04552,0.713454 1.69438,1.722953 2.86429,4.456229 0.36533,0.85353 0.55634,1.156083 0.696,1.102487 0.10588,-0.04063 0.34604,-0.07387 0.53369,-0.07387 h 0.34119 l -0.0883,-1.837478 c -0.0486,-1.010613 -0.12506,-2.393733 -0.16998,-3.073601 -0.0607,-0.91889 -0.0404,-1.23612 0.079,-1.23612 0.0884,0 0.47685,0.316196 0.86331,0.702657 0.69057,0.690567 0.71778,0.748617 1.58169,3.374276 1.22571,3.725262 2.68932,7.589348 3.20792,8.469264 0.61379,1.041435 2.76392,3.158049 4.11201,4.047914 3.089,2.039038 6.04459,3.08511 9.78942,3.464766 4.6999,0.476486 10.46921,-1.567992 13.75515,-4.874434 1.68821,-1.69875 2.77232,-3.556977 3.70172,-6.344971 0.6669,-2.000557 0.94043,-3.652551 1.13988,-6.884193 0.10153,-1.645254 0.25033,-3.114175 0.33066,-3.264271 0.1996,-0.372948 0.73983,-0.469728 2.64097,-0.473104 1.7925,-0.0032 2.2046,0.133731 2.46886,0.820232 0.0763,0.198279 0.52068,1.803763 0.98746,3.56774 1.24058,4.688157 1.7106,5.909164 2.92808,7.606429 1.14892,1.601706 3.68176,3.813003 5.28819,4.616876 2.20095,1.101376 6.44059,1.885762 10.22306,1.891403 3.48555,0.0052 5.30386,-0.590372 8.41899,-2.757575 3.65805,-2.544905 5.52068,-5.351028 6.4747,-9.754393 0.31825,-1.468893 0.53234,-4.354521 0.53764,-7.246699 0.003,-1.889297 0.006,-1.904831 0.37098,-2.292504 0.20212,-0.214672 0.64806,-0.549103 0.99097,-0.74318 l 0.62348,-0.35287 0.0978,0.908119 c 0.0538,0.499465 0.0587,2.216068 0.011,3.814675 -0.086,2.877378 -0.0841,2.906554 0.18953,2.906554 0.15201,0 0.3826,0.05685 0.51243,0.126331 0.20005,0.107066 0.32238,-0.0254 0.80214,-0.868625 0.60677,-1.066466 0.89305,-1.274876 0.77011,-0.560644 -0.2522,1.465223 -0.38388,4.781352 -0.2799,7.049233 0.24437,5.330365 0.14347,6.350407 -0.78047,7.889745 -0.38846,0.647187 -1.51315,1.697035 -1.66033,1.549847 -0.0323,-0.03232 0.003,-0.771294 0.0781,-1.642168 0.0753,-0.870873 0.16389,-1.959255 0.19686,-2.418625 l 0.0599,-0.835215 h -0.56966 -0.56967 l -0.092,1.503391 c -0.21671,3.540593 -0.87659,8.398148 -1.63837,12.060537 -1.74819,8.404783 -4.19919,13.19586 -11.33981,22.166458 -1.17752,1.479282 -2.91725,3.711913 -3.86607,4.961397 -5.95937,7.847751 -7.03499,8.800286 -11.448,10.137929 -3.80281,1.152684 -8.1545,1.653178 -11.08201,1.274554 z m 8.12994,-13.95729 c 2.80387,-0.561298 5.94566,-2.880212 8.56464,-6.321444 2.60548,-3.423499 4.0442,-6.186961 6.01784,-11.558875 0.73541,-2.00165 0.7837,-2.225966 0.4792,-2.225966 -0.11621,0 -0.20045,-0.121111 -0.20045,-0.288182 0,-0.287904 -0.002,-0.288099 -2.50565,-0.20383 -2.88272,0.09705 -3.93059,0.25073 -7.90704,1.159661 -3.5593,0.813578 -4.58437,0.98738 -7.96209,1.349984 -2.82692,0.303474 -4.28818,0.303567 -9.75534,7.94e-4 -1.32298,-0.07331 -4.67554,-0.159145 -7.45014,-0.190739 -4.74247,-0.05401 -5.04471,-0.0434 -5.04471,0.177054 0,0.128977 -0.0865,0.306306 -0.19226,0.394065 -0.16062,0.133298 0.11034,0.526423 1.6462,2.388381 1.01115,1.225849 2.94067,3.642003 4.28781,5.369232 2.87457,3.685614 4.18803,5.233064 5.13142,6.045591 2.61923,2.255885 6.01734,3.712356 9.3725,4.017161 1.5501,0.140822 4.55855,0.07937 5.51807,-0.11271 z m -3.24628,-23.763256 c 0.96199,-0.25814 1.93598,-0.696465 3.60814,-1.623782 0.80849,-0.448357 2.07134,-1.136131 2.80633,-1.528384 2.31283,-1.234326 2.74122,-1.729912 2.73746,-3.166848 -0.003,-1.006258 -0.0857,-1.128033 -0.70122,-1.028144 l -0.49182,0.07981 0.0812,0.777012 c 0.0762,0.729359 0.0576,0.80059 -0.3045,1.16146 -0.21213,0.211447 -1.04719,0.736727 -1.85568,1.167286 -0.80849,0.430562 -2.08433,1.129377 -2.8352,1.552922 -3.60976,2.03618 -4.79767,2.153589 -9.74154,0.962805 l -2.01959,-0.486439 -0.78674,-1.596879 c -0.43271,-0.878285 -0.93015,-1.710513 -1.10544,-1.849398 -0.70377,-0.557628 -1.68631,-0.113022 -1.83733,0.831398 -0.0466,0.291517 -0.14821,0.508881 -0.22576,0.483031 -0.29468,-0.09823 -0.64357,-0.739474 -0.73274,-1.346745 -0.051,-0.347245 -0.1378,-0.629047 -0.19293,-0.626229 -0.0551,0.0028 -0.31438,0.0051 -0.57614,0.0051 h -0.47591 l 0.0898,0.634765 c 0.18292,1.292788 0.7705,2.142492 2.10243,3.040327 0.41055,0.276743 0.80735,0.712136 1.10968,1.217586 0.56621,0.946639 0.92064,1.2476 1.47387,1.25155 0.44518,0.0032 1.12051,-0.435631 1.12051,-0.728069 0,-0.139105 0.22221,-0.119296 1.03567,0.09233 3.40439,0.885648 6.15292,1.143325 7.71741,0.723516 z"
         style="opacity:1;fill:#fdd5ba;fill-opacity:1;fill-rule:nonzero;stroke:none;stroke-width:0.50507629;stroke-linecap:round;stroke-linejoin:round;stroke-miterlimit:4;stroke-dasharray:none;stroke-dashoffset:0;stroke-opacity:1;paint-order:markers fill stroke" />
      <path
         inkscape:connector-curvature="0"
         id="path5639"
         d="m -170.34111,50.577456 c -4.57695,-0.638043 -9.29241,-3.181514 -11.60713,-6.260774 -0.81086,-1.078683 -2.04206,-4.130694 -3.76151,-9.324404 -0.37854,-1.143378 -0.85521,-2.352693 -1.05928,-2.687365 -0.31858,-0.522467 -1.39518,-1.448289 -2.24012,-1.926402 -0.20336,-0.11507 -0.21128,-0.490342 -0.0424,-2.005269 0.1143,-1.025038 0.22699,-1.882881 0.25043,-1.90632 0.0234,-0.02344 0.51024,0.07938 1.08179,0.228494 1.29165,0.336973 1.63811,0.261834 4.02897,-0.873781 2.38946,-1.134946 3.80347,-1.610709 5.82709,-1.960597 3.69449,-0.638786 11.33169,-1.110406 14.05068,-0.867672 2.19447,0.195905 3.22819,0.530161 5.95313,1.924939 2.41371,1.235477 3.26316,1.443117 6.89806,1.686145 4.95261,0.331131 6.87534,-0.0011 9.92188,-1.714217 4.1482,-2.332654 7.03606,-3.584303 9.47713,-4.107564 1.28521,-0.275492 2.45696,-0.337087 6.30337,-0.331359 5.09473,0.0076 6.80693,0.198615 10.29986,1.149112 1.77204,0.482211 3.33156,0.530752 4.67803,0.145603 0.37458,-0.10714 0.48259,0.0066 0.8977,0.945221 0.25953,0.586859 0.47188,1.143479 0.47188,1.236933 0,0.09346 -0.51172,0.480774 -1.13717,0.86071 -1.45285,0.882563 -1.69629,1.360517 -1.7028,3.343185 -0.0185,5.646375 -0.6005,9.030756 -2.01623,11.724881 -1.74819,3.326815 -6.36029,6.729682 -9.94181,7.335197 -2.45051,0.414298 -7.43002,-0.09014 -10.54105,-1.067845 -1.76451,-0.554532 -3.58938,-1.802283 -5.31668,-3.635264 -1.76352,-1.871422 -2.5417,-3.566932 -3.72752,-8.121682 -0.52246,-2.006801 -1.08578,-3.934994 -1.25181,-4.284876 -0.4591,-0.967486 -1.21838,-1.232321 -3.53307,-1.232321 -3.48757,0 -3.70944,0.238964 -3.94805,4.252233 -0.19973,3.35911 -0.41886,4.791209 -1.03251,6.747814 -1.46072,4.657365 -4.03767,7.571004 -8.27884,9.360479 -2.93161,1.23693 -6.28315,1.74579 -9.00206,1.366766 z m 4.99189,-1.598176 c 4.64762,-0.984671 8.61927,-3.71067 10.32269,-7.085121 1.02653,-2.033529 1.41176,-3.671043 1.40142,-5.95694 -0.0261,-5.770941 -3.06252,-10.030716 -7.9595,-11.166403 -2.22911,-0.516967 -8.58793,-0.322144 -13.28374,0.406987 -2.13318,0.331224 -5.15574,1.233469 -6.60969,1.973019 -1.33347,0.678265 -2.11782,1.504511 -2.7793,2.927765 -0.71831,1.545527 -0.67778,2.838958 0.19513,6.226572 1.25152,4.85698 2.51197,7.477485 4.42164,9.192718 1.5536,1.39541 4.7555,2.918394 7.32356,3.483451 1.54285,0.339476 5.3611,0.338357 6.96779,-0.0021 z m 39.5335,-2.843771 c 3.84826,-0.671081 6.48678,-1.972524 9.00318,-4.440785 1.83845,-1.803283 2.64627,-3.217206 3.39745,-5.946494 0.35971,-1.306917 0.41593,-1.985939 0.41469,-5.008184 -0.002,-3.861467 -0.26217,-5.179801 -1.2902,-6.527623 -1.089,-1.427755 -3.91506,-2.255909 -9.36198,-2.743446 -5.17369,-0.463082 -8.74332,0.223959 -13.47842,2.594171 -4.12474,2.064692 -5.03833,3.689239 -4.79854,8.532791 0.13532,2.733143 0.62881,4.69274 1.75414,6.96541 1.47953,2.987993 3.52677,4.770012 6.69032,5.823569 3.19738,1.064824 4.9076,1.232202 7.66936,0.750591 z"
         style="opacity:1;fill:#550000;fill-opacity:1;fill-rule:nonzero;stroke:none;stroke-width:0.71428573;stroke-linecap:round;stroke-linejoin:round;stroke-miterlimit:4;stroke-dasharray:none;stroke-dashoffset:0;stroke-opacity:1;paint-order:markers fill stroke" />
      <path
         inkscape:connector-curvature="0"
         id="path5641"
         d="m -147.39608,80.254054 c -2.30219,-0.350499 -5.19684,-1.591649 -7.04738,-3.021732 -1.38089,-1.067147 -2.72932,-2.587173 -5.8983,-6.648866 -3.0976,-3.97021 -3.10487,-3.980336 -2.96163,-4.123573 0.18182,-0.181825 0.83388,0.323027 2.95055,2.284431 2.40268,2.226437 3.62221,3.048923 7.28712,4.91464 4.06588,2.069838 5.30143,2.442099 8.12649,2.448433 2.66559,0.006 4.01168,-0.292491 6.23762,-1.383056 1.90273,-0.932214 3.71912,-2.594589 7.32144,-6.70065 1.4693,-1.674765 2.74029,-3.073373 2.82443,-3.108023 0.27403,-0.112853 0.16399,0.28716 -0.51964,1.888884 -1.659,3.886994 -3.83184,7.155056 -6.58632,9.906156 -1.60171,1.59975 -2.17686,2.038443 -3.59271,2.740329 l -1.68571,0.835663 -2.9445,0.02684 c -1.61947,0.01476 -3.19963,-0.01201 -3.51146,-0.05948 z"
         style="opacity:1;fill:#de8787;fill-opacity:1;fill-rule:nonzero;stroke:none;stroke-width:0.71428573;stroke-linecap:round;stroke-linejoin:round;stroke-miterlimit:4;stroke-dasharray:none;stroke-dashoffset:0;stroke-opacity:1;paint-order:markers fill stroke" />
      <path
         inkscape:connector-curvature="0"
         id="path5643"
         d="m -151.36483,66.094292 c -3.52289,-0.354087 -8.06443,-1.212945 -8.17547,-1.546077 -0.10161,-0.304821 2.19439,-0.307014 7.45912,-0.0071 5.60027,0.319008 9.41803,-0.05531 16.11422,-1.579938 1.81645,-0.413578 3.90004,-0.788588 4.63021,-0.833353 l 1.32758,-0.08139 -1.03456,0.488818 c -2.74733,1.298083 -7.09845,2.461551 -12.00562,3.210245 -1.87318,0.285793 -6.86088,0.495015 -8.31548,0.348814 z"
         style="opacity:1;fill:#de8787;fill-opacity:1;fill-rule:nonzero;stroke:none;stroke-width:0.71428573;stroke-linecap:round;stroke-linejoin:round;stroke-miterlimit:4;stroke-dasharray:none;stroke-dashoffset:0;stroke-opacity:1;paint-order:markers fill stroke" />
      <path
         inkscape:connector-curvature="0"
         id="path5645"
         d="m -190.95625,33.231206 c -0.22398,-0.3624 -0.81601,-1.021495 -1.31563,-1.464656 l -0.9084,-0.805752 -0.0927,-1.795386 c -0.0768,-1.487246 -0.23476,-2.200838 -0.9204,-4.157739 l -0.82769,-2.362351 0.0105,-6.236607 c 0.0226,-13.4179486 1.5472,-22.7246236 4.76997,-29.117764 1.85419,-3.67822 4.21784,-6.73018 8.63087,-11.14426 4.91403,-4.9152 7.42706,-6.88405 11.19331,-8.76951 4.8551,-2.43054 11.23149,-4.36758 16.87823,-5.12732 3.67061,-0.49385 10.50701,-0.12272 14.36309,0.77976 9.56607,2.23883 15.18939,6.67624 22.61961,17.84933 5.80084,8.72293 9.02281,14.5289904 10.37344,18.69315043 2.08724,6.43526097 2.69992,11.57472357 2.04089,17.12009657 -0.23683,1.992857 -0.34916,4.252827 -0.35138,7.06938 l -0.003,4.140065 -0.64649,0.21848 c -0.35556,0.120166 -0.96852,0.592394 -1.36212,1.049398 -0.3936,0.457007 -0.7564,0.790152 -0.80623,0.740326 -0.0498,-0.04983 -0.10847,-1.311259 -0.13033,-2.803184 -0.0444,-3.027812 0.0742,-2.59262 -2.23121,-8.192672 -0.63089,-1.532517 -1.57569,-4.168899 -2.09955,-5.858632 -1.66372,-5.3663656 -2.3102,-6.8917416 -4.62304,-10.9081056 -1.89721,-3.294612 -2.70384,-4.469202 -4.07792,-5.938092 -2.13072,-2.27775 -5.07387,-3.96379 -11.2533,-6.4466604 -7.93848,-3.18965 -8.88539,-3.36382 -18.41043,-3.38622 -7.97964,-0.0188 -8.98979,0.10173 -12.81517,1.52865 -2.44957,0.91373 -7.93314,3.4027704 -10.61936,4.8202204 -7.4745,3.94412 -9.64297,6.55913003 -11.37244,13.714337 -0.42084,1.741111 -1.47515,5.8445606 -2.34291,9.1187786 -2.90451,10.959267 -3.25003,12.826466 -3.05127,16.489212 0.055,1.013449 0.0299,1.842635 -0.0557,1.842635 -0.0857,0 -0.33899,-0.296511 -0.56297,-0.658908 z"
         style="opacity:1;fill:#552200;fill-opacity:1;fill-rule:nonzero;stroke:none;stroke-width:0.71428573;stroke-linecap:round;stroke-linejoin:round;stroke-miterlimit:4;stroke-dasharray:none;stroke-dashoffset:0;stroke-opacity:1;paint-order:markers fill stroke" />
      <path
         inkscape:connector-curvature="0"
         id="path5647"
         d="m -130.98468,-35.302199 c -3.50408,-1.76431 -7.84289,-3.00891 -12.53714,-3.5963 -2.64989,-0.33159 -8.55828,-0.28134 -11.04023,0.0939 -1.13481,0.17157 -2.10189,0.27334 -2.14907,0.22615 -0.18768,-0.18767 0.95098,-1.81256 1.79978,-2.56832 1.36256,-1.21321 3.49127,-2.54916 4.81736,-3.02333 2.43659,-0.87124 8.27735,-0.68994 12.56148,0.38992 2.91618,0.73505 6.51757,2.9616 7.75699,4.79574 0.77515,1.14709 1.02636,2.08455 0.95604,3.5678 l -0.0558,1.17656 z"
         style="opacity:1;fill:#552200;fill-opacity:1;fill-rule:nonzero;stroke:none;stroke-width:0.71428573;stroke-linecap:round;stroke-linejoin:round;stroke-miterlimit:4;stroke-dasharray:none;stroke-dashoffset:0;stroke-opacity:1;paint-order:markers fill stroke" />
      <path
         inkscape:connector-curvature="0"
         id="path5649"
         d="m -154.33828,56.400305 c -0.28235,-0.29981 -0.55838,-0.810267 -1.01923,-1.884873 -0.3082,-0.71865 -0.42613,-1.083275 -0.42916,-1.326835 -0.002,-0.161628 0.006,-0.203763 0.0474,-0.25986 0.0274,-0.03682 0.0644,-0.06695 0.0823,-0.06695 0.0487,0 0.17171,0.198194 0.34467,0.555151 0.40148,0.828606 0.54046,1.103259 0.74113,1.464659 0.43002,0.774436 0.51838,0.985094 0.51838,1.235774 0,0.111992 -0.0141,0.177263 -0.0549,0.254698 -0.0713,0.135178 -0.12385,0.14161 -0.23062,0.02824 z"
         style="opacity:1;fill:#ffd42a;fill-opacity:1;fill-rule:nonzero;stroke:none;stroke-width:0.08928572;stroke-linecap:round;stroke-linejoin:round;stroke-miterlimit:4;stroke-dasharray:none;stroke-dashoffset:0;stroke-opacity:1;paint-order:markers fill stroke" />
    </g>
  </g>
</svg>
