<?xml version="1.0" encoding="UTF-8" standalone="no"?>
<!-- Created with Inkscape (http://www.inkscape.org/) -->

<svg
   xmlns:dc="http://purl.org/dc/elements/1.1/"
   xmlns:cc="http://creativecommons.org/ns#"
   xmlns:rdf="http://www.w3.org/1999/02/22-rdf-syntax-ns#"
   xmlns:svg="http://www.w3.org/2000/svg"
   xmlns="http://www.w3.org/2000/svg"
   xmlns:sodipodi="http://sodipodi.sourceforge.net/DTD/sodipodi-0.dtd"
   xmlns:inkscape="http://www.inkscape.org/namespaces/inkscape"
   width="85.692734mm"
   height="135.05687mm"
   viewBox="0 0 85.692734 135.05687"
   version="1.1"
   id="svg3744"
   inkscape:version="0.92.3 (2405546, 2018-03-11)"
   sodipodi:docname="bbb_thiseas.svg">
  <defs
     id="defs3738">
    <inkscape:path-effect
       effect="bspline"
       id="path-effect5754"
       is_visible="true"
       weight="33.333333"
       steps="2"
       helper_size="0"
       apply_no_weight="true"
       apply_with_weight="true"
       only_selected="false" />
    <inkscape:path-effect
       effect="bspline"
       id="path-effect5758"
       is_visible="true"
       weight="33.333333"
       steps="2"
       helper_size="0"
       apply_no_weight="true"
       apply_with_weight="true"
       only_selected="false" />
    <inkscape:path-effect
       effect="bspline"
       id="path-effect5762"
       is_visible="true"
       weight="33.333333"
       steps="2"
       helper_size="0"
       apply_no_weight="true"
       apply_with_weight="true"
       only_selected="false" />
    <inkscape:path-effect
       effect="bspline"
       id="path-effect5766"
       is_visible="true"
       weight="33.333333"
       steps="2"
       helper_size="0"
       apply_no_weight="true"
       apply_with_weight="true"
       only_selected="false" />
    <inkscape:path-effect
       effect="bspline"
       id="path-effect5770"
       is_visible="true"
       weight="33.333333"
       steps="2"
       helper_size="0"
       apply_no_weight="true"
       apply_with_weight="true"
       only_selected="false" />
    <inkscape:path-effect
       effect="bspline"
       id="path-effect5774"
       is_visible="true"
       weight="33.333333"
       steps="2"
       helper_size="0"
       apply_no_weight="true"
       apply_with_weight="true"
       only_selected="false" />
    <inkscape:path-effect
       effect="bspline"
       id="path-effect5778"
       is_visible="true"
       weight="33.333333"
       steps="2"
       helper_size="0"
       apply_no_weight="true"
       apply_with_weight="true"
       only_selected="false" />
    <inkscape:path-effect
       effect="bspline"
       id="path-effect5782"
       is_visible="true"
       weight="33.333333"
       steps="2"
       helper_size="0"
       apply_no_weight="true"
       apply_with_weight="true"
       only_selected="false" />
    <inkscape:path-effect
       effect="bspline"
       id="path-effect5786"
       is_visible="true"
       weight="33.333333"
       steps="2"
       helper_size="0"
       apply_no_weight="true"
       apply_with_weight="true"
       only_selected="false" />
    <inkscape:path-effect
       effect="bspline"
       id="path-effect5790"
       is_visible="true"
       weight="33.333333"
       steps="2"
       helper_size="0"
       apply_no_weight="true"
       apply_with_weight="true"
       only_selected="false" />
    <inkscape:path-effect
       effect="bspline"
       id="path-effect5794"
       is_visible="true"
       weight="33.333333"
       steps="2"
       helper_size="0"
       apply_no_weight="true"
       apply_with_weight="true"
       only_selected="false" />
    <inkscape:path-effect
       effect="bspline"
       id="path-effect5798"
       is_visible="true"
       weight="33.333333"
       steps="2"
       helper_size="0"
       apply_no_weight="true"
       apply_with_weight="true"
       only_selected="false" />
    <inkscape:path-effect
       effect="bspline"
       id="path-effect5802"
       is_visible="true"
       weight="33.333333"
       steps="2"
       helper_size="0"
       apply_no_weight="true"
       apply_with_weight="true"
       only_selected="false" />
    <inkscape:path-effect
       effect="bspline"
       id="path-effect5806"
       is_visible="true"
       weight="33.333333"
       steps="2"
       helper_size="0"
       apply_no_weight="true"
       apply_with_weight="true"
       only_selected="false" />
    <inkscape:path-effect
       effect="bspline"
       id="path-effect5810"
       is_visible="true"
       weight="33.333333"
       steps="2"
       helper_size="0"
       apply_no_weight="true"
       apply_with_weight="true"
       only_selected="false" />
    <inkscape:path-effect
       effect="bspline"
       id="path-effect5831"
       is_visible="true"
       weight="33.333333"
       steps="2"
       helper_size="0"
       apply_no_weight="true"
       apply_with_weight="true"
       only_selected="false" />
    <inkscape:path-effect
       effect="bspline"
       id="path-effect5835"
       is_visible="true"
       weight="33.333333"
       steps="2"
       helper_size="0"
       apply_no_weight="true"
       apply_with_weight="true"
       only_selected="false" />
    <inkscape:path-effect
       effect="bspline"
       id="path-effect5839"
       is_visible="true"
       weight="33.333333"
       steps="2"
       helper_size="0"
       apply_no_weight="true"
       apply_with_weight="true"
       only_selected="false" />
    <inkscape:path-effect
       effect="bspline"
       id="path-effect5843"
       is_visible="true"
       weight="33.333333"
       steps="2"
       helper_size="0"
       apply_no_weight="true"
       apply_with_weight="true"
       only_selected="false" />
    <inkscape:path-effect
       effect="bspline"
       id="path-effect5847"
       is_visible="true"
       weight="33.333333"
       steps="2"
       helper_size="0"
       apply_no_weight="true"
       apply_with_weight="true"
       only_selected="false" />
    <inkscape:path-effect
       effect="bspline"
       id="path-effect5851"
       is_visible="true"
       weight="33.333333"
       steps="2"
       helper_size="0"
       apply_no_weight="true"
       apply_with_weight="true"
       only_selected="false" />
    <inkscape:path-effect
       effect="bspline"
       id="path-effect5855"
       is_visible="true"
       weight="33.333333"
       steps="2"
       helper_size="0"
       apply_no_weight="true"
       apply_with_weight="true"
       only_selected="false" />
    <inkscape:path-effect
       effect="bspline"
       id="path-effect5859"
       is_visible="true"
       weight="33.333333"
       steps="2"
       helper_size="0"
       apply_no_weight="true"
       apply_with_weight="true"
       only_selected="false" />
    <inkscape:path-effect
       effect="bspline"
       id="path-effect5863"
       is_visible="true"
       weight="33.333333"
       steps="2"
       helper_size="0"
       apply_no_weight="true"
       apply_with_weight="true"
       only_selected="false" />
  </defs>
  <sodipodi:namedview
     id="base"
     pagecolor="#ffffff"
     bordercolor="#666666"
     borderopacity="1.0"
     inkscape:pageopacity="0.0"
     inkscape:pageshadow="2"
     inkscape:zoom="0.35"
     inkscape:cx="-406.6324"
     inkscape:cy="255.22558"
     inkscape:document-units="mm"
     inkscape:current-layer="layer1"
     showgrid="false"
     fit-margin-top="0"
     fit-margin-left="0"
     fit-margin-right="0"
     fit-margin-bottom="0"
     inkscape:window-width="1920"
     inkscape:window-height="1043"
     inkscape:window-x="1920"
     inkscape:window-y="0"
     inkscape:window-maximized="1" />
  <metadata
     id="metadata3741">
    <rdf:RDF>
      <cc:Work
         rdf:about="">
        <dc:format>image/svg+xml</dc:format>
        <dc:type
           rdf:resource="http://purl.org/dc/dcmitype/StillImage" />
        <dc:title></dc:title>
      </cc:Work>
    </rdf:RDF>
  </metadata>
  <g
     inkscape:label="Layer 1"
     inkscape:groupmode="layer"
     id="layer1"
     transform="translate(-62.986966,-81.304898)">
    <g
       transform="translate(-45.107053,81.702363)"
       id="g5688"
       inkscape:export-xdpi="289.40701"
       inkscape:export-ydpi="289.40701">
      <path
         inkscape:original-d="m 186.299,52.966819 c -0.29989,0.0498 -0.60004,0.0997 -0.90049,0.15007 -0.78429,-0.16721 -1.56721,-0.33378 -2.35124,-0.50026 2.9e-4,-0.13372 2.9e-4,-0.26709 0,-0.40021 -0.21604,-0.56606 -0.43328,-1.13421 -0.65034,-1.7009 -0.51652,-0.30036 -1.0336,-0.6006 -1.55083,-0.90048 -1.71758,-0.43392 -3.43487,-0.8674 -5.15272,-1.30069 -2.25117,-0.41722 -4.50211,-0.83406 -6.75358,-1.25066 -2.70141,-0.20041 -5.40258,-0.40049 -8.1043,-0.60032 -1.08373,0.0664 -2.16752,0.13312 -3.25171,0.20011 -0.2666,0.0664 -0.53333,0.13312 -0.80042,0.2001 -0.25017,0.20008 -0.49999,0.39994 -0.7504,0.60032 -0.18338,0.28356 -0.36658,0.56669 -0.5503,0.85045 -0.0999,-0.0169 -0.19982,-0.0337 -0.30016,-0.0501 -1.23651,-0.35125 -2.46769,-0.70065 -3.70196,-1.05056 -1.65084,-0.0836 -3.30147,-0.16703 -4.95261,-0.25012 -0.033,-0.10038 -0.0664,-0.20039 -0.10006,-0.30016 -0.0996,-0.28329 -0.19982,-0.56725 -0.30016,-0.85045 -0.26638,-0.33361 -0.53333,-0.66731 -0.80042,-1.00053 -1.0335,-0.40046 -2.10083,-0.80071 -3.15167,-1.20064 -3.13517,-0.53398 -6.30307,-1.06751 -9.45501,-1.60085 -1.2338,-0.13369 -2.46769,-0.26708 -3.70196,-0.40021 -1.71764,-0.10037 -3.43487,-0.20039 -5.15272,-0.30015 -1.20055,-2.9e-4 -2.401,-2.9e-4 -3.60192,0 -0.55826,0.16216 -1.14013,0.3481 -1.71062,0.52257 -0.25928,0.27108 -0.51854,0.56571 -0.77823,0.84898 -0.0824,0.23579 -0.1648,0.47138 -0.24762,0.70749 -0.0824,0.0469 -0.1648,0.094 -0.24761,0.14149 -1.0297,-0.0239 -2.05142,-0.0474 -3.07755,-0.0707"
         inkscape:path-effect="#path-effect5754"
         inkscape:connector-curvature="0"
         id="path5752"
         d="m 186.299,52.966819 c -0.29986,0.04997 -0.59999,0.09999 -1.14242,0.04159 -0.54243,-0.0584 -1.32535,-0.22498 -1.71733,-0.375239 -0.39198,-0.15026 -0.39198,-0.28363 -0.50017,-0.633154 -0.10819,-0.349525 -0.32543,-0.917677 -0.69215,-1.3511 -0.36671,-0.433423 -0.88379,-0.733662 -2.00114,-1.100562 -1.11735,-0.3669 -2.83464,-0.800391 -4.81914,-1.225644 -1.9845,-0.425254 -4.23544,-0.842093 -6.71186,-1.15061 -2.47642,-0.308517 -5.17759,-0.508604 -7.0703,-0.575321 -1.8927,-0.06672 -2.97649,-2.1e-5 -3.65187,0.06666 -0.67537,0.06668 -0.94211,0.133361 -1.20075,0.26681 -0.25864,0.133448 -0.50846,0.333306 -0.72541,0.575236 -0.21694,0.241931 -0.40015,0.525059 -0.54194,0.658623 -0.14179,0.133564 -0.24173,0.116883 -0.91017,-0.06695 -0.66844,-0.183834 -1.89962,-0.533225 -3.34214,-0.750031 -1.44251,-0.216806 -3.09314,-0.300168 -3.93542,-0.391982 -0.84227,-0.09181 -0.87561,-0.191842 -0.94223,-0.383371 -0.0666,-0.19153 -0.16684,-0.47549 -0.35019,-0.783832 -0.18334,-0.308342 -0.45029,-0.642038 -1.10155,-1.006058 -0.65126,-0.364021 -1.71648,-0.769819 -3.80968,-1.235411 -2.0932,-0.465591 -5.26063,-1.001877 -7.45349,-1.335397 -2.19286,-0.33352 -3.42675,-0.466913 -4.9027,-0.583655 -1.47595,-0.116743 -3.19318,-0.216773 -4.65237,-0.266805 -1.45919,-0.05003 -2.65964,-0.05003 -3.53806,0.03488 -0.87842,0.08491 -1.46258,0.263364 -1.87456,0.488738 -0.41198,0.225374 -0.67711,0.514616 -0.84821,0.774133 -0.17109,0.259517 -0.25354,0.495089 -0.33603,0.636692 -0.0825,0.141604 -0.1649,0.188693 -0.72119,0.200546 -0.5563,0.01185 -1.57802,-0.01162 -2.60414,-0.03519"
         style="fill:none;stroke:#000000;stroke-width:1;stroke-linecap:butt;stroke-linejoin:miter;stroke-miterlimit:4;stroke-dasharray:none;stroke-opacity:1" />
      <path
         inkscape:original-d="m 114.30851,46.573359 c -0.0351,-1.03794 -0.0705,-2.07559 -0.10612,-3.11296"
         inkscape:path-effect="#path-effect5758"
         inkscape:connector-curvature="0"
         id="path5756"
         d="m 114.30851,46.573359 c -0.0354,-1.03793 -0.0708,-2.075581 -0.10612,-3.11296"
         style="fill:none;stroke:#000000;stroke-width:1;stroke-linecap:butt;stroke-linejoin:miter;stroke-miterlimit:4;stroke-dasharray:none;stroke-opacity:1" />
      <path
         inkscape:original-d="m 114.30851,46.573359 c 0.69597,-0.0357 1.39166,-0.071 2.08707,-0.10613 0.11815,0.0351 0.23611,0.094 0.35374,0.1415 0.0474,0.34125 0.0946,0.68362 0.1415,1.02585 -0.0115,1.16786 -0.0233,2.33441 -0.0354,3.50203 0.0475,0.29458 0.0946,0.58929 0.1415,0.88435 0.20089,0.33014 0.40118,0.66004 0.60136,0.99047 0.71972,0.35355 1.43883,0.70721 2.15781,1.06123 1.98091,0.56561 3.96218,1.13169 5.94285,1.69795 1.26184,0.16479 2.52362,0.32988 3.78503,0.49524 1.40319,0.1294 2.80662,0.25913 4.20952,0.38912 2.31095,-0.071 4.62248,-0.14178 6.93331,-0.21225 0.35398,-0.0592 0.70776,-0.11819 1.06122,-0.17687 0.5422,-0.3537 1.08509,-0.70776 1.62721,-1.06122 0.37738,-0.7427 0.75492,-1.48599 1.13197,-2.22857 0.50708,-1.06102 1.01434,-2.12272 1.52108,-3.18367 0.10637,-0.41284 0.21253,-0.82567 0.31837,-1.23809 0.0828,-0.14166 0.16535,-0.28327 0.24762,-0.42449 0.50612,-0.0473 1.01434,-0.0945 1.52108,-0.14149 1.06087,0.11756 2.14631,0.25913 3.21904,0.38911 0.80191,0.24729 1.60391,0.49496 2.40545,0.74286 0.48362,0.15297 0.96716,0.30629 1.45033,0.45986 0.071,0.17653 0.14177,0.35346 0.21225,0.53061 -0.0469,1.06182 -0.094,2.12217 -0.1415,3.18367 0.10643,0.88431 0.21253,1.76842 0.31837,2.65305 0.30693,0.62484 0.61343,1.24961 0.91972,1.87483 0.42485,0.34173 0.84926,0.68362 1.27347,1.02584 0.66054,0.23554 1.34449,0.47138 2.01632,0.70749 1.68604,0.37695 3.37261,0.75436 5.0585,1.13197 1.52117,0.22372 3.04245,0.44779 4.56325,0.6721 1.65081,0.12941 3.30185,0.25913 4.95236,0.38912 1.46219,0.035 2.92454,0.0705 4.38639,0.10612 0.51901,-0.23606 1.03792,-0.47193 1.55646,-0.70748 0.23596,-0.23596 0.47194,-0.47194 0.70749,-0.70747 0.23582,-0.6716 0.47193,-1.34451 0.70747,-2.01633 0.21243,-0.56599 0.42477,-1.13225 0.63674,-1.69796 0.0592,-0.29488 0.11819,-0.58984 0.17687,-0.88434 0.0827,-2.9e-4 0.16536,-2.9e-4 0.24762,0 0.91688,0.14072 1.83973,0.2827 2.75918,0.42448"
         inkscape:path-effect="#path-effect5762"
         inkscape:connector-curvature="0"
         id="path5760"
         d="m 114.30851,46.573359 c 0.69599,-0.03539 1.39167,-0.07077 1.79635,-0.06566 0.40468,0.0051 0.52668,0.05391 0.60911,0.248117 0.0824,0.194205 0.12965,0.536571 0.14735,1.291594 0.0177,0.755023 0.006,1.921573 0.0236,2.652703 0.0177,0.73113 0.0648,1.025832 0.18871,1.338506 0.12388,0.312675 0.32418,0.642572 0.78421,0.984631 0.46003,0.34206 1.17913,0.695724 2.52911,1.155537 1.34998,0.459814 3.33126,1.025889 4.95254,1.391402 1.62128,0.365513 2.88306,0.530607 4.21537,0.677985 1.3323,0.147378 2.73573,0.277108 4.59267,0.306577 1.85695,0.02947 4.16848,-0.04129 5.5009,-0.106165 1.33241,-0.06487 1.6862,-0.123836 2.13403,-0.330106 0.44783,-0.206269 0.99072,-0.560327 1.4504,-1.108468 0.45967,-0.548141 0.83721,-1.29143 1.27927,-2.193232 0.44206,-0.901803 0.94931,-1.963505 1.25583,-2.700395 0.30652,-0.73689 0.41268,-1.14972 0.50704,-1.42677 0.0944,-0.277051 0.17695,-0.418636 0.47119,-0.512763 0.29425,-0.09413 0.80246,-0.141401 1.58563,-0.100927 0.78316,0.04047 1.86983,0.171827 2.80712,0.360473 0.93729,0.188646 1.73929,0.436322 2.38186,0.636759 0.64258,0.200438 1.12612,0.353755 1.4031,0.518704 0.27697,0.164948 0.34774,0.341877 0.35955,0.961289 0.0118,0.619413 -0.0353,1.679762 -0.006,2.652692 0.0295,0.972931 0.13557,1.857041 0.34194,2.611838 0.20638,0.754797 0.51287,1.379572 0.87849,1.863117 0.36561,0.483546 0.79003,0.825432 1.33311,1.112483 0.54309,0.287051 1.22574,0.526582 2.4047,0.833108 1.17896,0.306527 2.86553,0.68394 4.46907,0.984599 1.60354,0.300658 3.12482,0.524721 4.71064,0.701573 1.58582,0.176853 3.23686,0.306579 4.79321,0.38911 1.55636,0.08253 3.01871,0.117909 4.00917,0.01762 0.99047,-0.100286 1.50938,-0.336154 1.8866,-0.571969 0.37722,-0.235816 0.61321,-0.471792 0.84881,-0.925388 0.2356,-0.453596 0.47171,-1.126508 0.69569,-1.745414 0.22399,-0.618907 0.43634,-1.185164 0.57189,-1.615452 0.13556,-0.430288 0.19455,-0.725247 0.26534,-0.872476 0.0708,-0.147229 0.15346,-0.147229 0.653,-0.07671 0.49955,0.07052 1.4224,0.212498 2.3419,0.353956"
         style="fill:none;stroke:#000000;stroke-width:1;stroke-linecap:butt;stroke-linejoin:miter;stroke-miterlimit:4;stroke-dasharray:none;stroke-opacity:1" />
      <path
         inkscape:original-d="m 186.299,52.966819 c -0.27235,1.09939 -0.54496,2.19907 -0.81785,3.29903"
         inkscape:path-effect="#path-effect5766"
         inkscape:connector-curvature="0"
         id="path5764"
         d="m 186.299,52.966819 c -0.27253,1.099344 -0.54515,2.199023 -0.81785,3.29903"
         style="fill:none;stroke:#000000;stroke-width:1;stroke-linecap:butt;stroke-linejoin:miter;stroke-miterlimit:4;stroke-dasharray:none;stroke-opacity:1" />
      <path
         inkscape:original-d="m 156.19141,50.004639 c 2.8e-4,1.23781 2.8e-4,2.47591 0,3.71428 0.17719,0.88427 0.35402,1.76842 0.53061,2.65306 0.22438,0.25919 0.44836,0.51853 0.67211,0.77822 0.33046,0.24736 0.66059,0.49495 0.99047,0.74286 1.29715,0.35341 2.59439,0.7072 3.89115,1.06122 2.40537,0.41236 4.81116,0.82511 7.21631,1.2381 1.80419,0.12941 3.60844,0.25912 5.41224,0.38911 0.90808,-2.8e-4 1.81614,-2.8e-4 2.7238,0 0.54251,-0.18889 1.08509,-0.3776 1.62721,-0.56599 0.21239,-0.20061 0.42477,-0.40119 0.63674,-0.60136 0.24755,-0.43596 0.49551,-0.89642 0.74285,-1.34422 0.16523,-0.43623 0.33044,-0.87283 0.49523,-1.30884 0.15345,-0.67186 0.30686,-1.34448 0.45986,-2.01631 0.0828,-0.55421 0.16536,-1.10867 0.24762,-1.66258 -0.0469,-0.43632 -0.094,-0.87285 -0.14149,-1.30884 -0.30612,-0.24777 -0.61287,-0.49552 -0.91973,-0.74287 -0.78982,-0.29509 -1.60334,-0.58984 -2.40544,-0.88434 -1.81594,-0.43665 -3.63145,-0.87285 -5.44761,-1.30885 -1.9455,-0.24793 -3.89086,-0.49551 -5.83671,-0.74285 -1.79223,-0.0593 -3.5843,-0.11819 -5.37686,-0.17687 -1.40311,0.0115 -2.80607,0.0233 -4.20952,0.0354 -0.28276,0.32995 -0.5657,0.66004 -0.84897,0.99047 -0.15315,0.35379 -0.3063,0.70721 -0.45987,1.06123 z"
         inkscape:path-effect="#path-effect5770"
         inkscape:connector-curvature="0"
         id="path5768"
         d="m 156.19141,50.623544 c 0,0.618905 0,1.857005 0.0884,2.918357 0.0884,1.061353 0.26527,1.945503 0.46576,2.517517 0.2005,0.572013 0.42448,0.831354 0.70162,1.084903 0.27714,0.25355 0.60726,0.501146 1.42085,0.801813 0.81359,0.300668 2.11083,0.654459 3.96191,1.037642 1.85109,0.383182 4.25687,0.795942 6.36156,1.067128 2.10469,0.271185 3.90894,0.4009 5.26489,0.465743 1.35595,0.06484 2.26401,0.06484 2.98912,-0.02952 0.72512,-0.09436 1.26769,-0.283084 1.64493,-0.477656 0.37723,-0.194573 0.58961,-0.395152 0.81683,-0.714626 0.22721,-0.319474 0.48015,-0.777181 0.68641,-1.219198 0.20626,-0.442017 0.37146,-0.878621 0.53056,-1.432549 0.15909,-0.553928 0.3125,-1.22655 0.43038,-1.839564 0.11788,-0.613015 0.20046,-1.167472 0.21812,-1.662555 0.0177,-0.495083 -0.0295,-0.931604 -0.20628,-1.273347 -0.17675,-0.341743 -0.4835,-0.589501 -1.03248,-0.858794 -0.54898,-0.269294 -1.36109,-0.567861 -2.67009,-0.933441 -1.309,-0.365579 -3.12451,-0.801776 -5.00532,-1.14375 -1.88081,-0.341973 -3.82617,-0.589563 -5.6952,-0.742864 -1.86902,-0.153301 -3.66109,-0.212251 -5.25892,-0.235834 -1.59783,-0.02358 -3.00079,-0.01178 -3.84391,0.159079 -0.84312,0.170863 -1.12606,0.500956 -1.34432,0.843048 -0.21826,0.342093 -0.37141,0.695513 -0.44813,0.872552 -0.0767,0.177039 -0.0767,0.177009 -0.0767,0.795914 z"
         style="fill:none;stroke:#000000;stroke-width:1;stroke-linecap:butt;stroke-linejoin:miter;stroke-miterlimit:4;stroke-dasharray:none;stroke-opacity:1" />
      <path
         inkscape:original-d="m 118.58877,44.415539 c -0.17658,0.73078 -0.35346,1.46185 -0.5306,2.19319 -0.0233,0.88447 -0.0469,1.76842 -0.0707,2.65305 0.14182,0.80179 0.28327,1.57977 0.42448,2.37006 0.23617,0.271 0.47194,0.54212 0.70749,0.81361 1.46252,0.41244 2.92453,0.82511 4.38638,1.2381 1.8277,0.29446 3.6556,0.58928 5.48298,0.88434 1.81592,0.14121 3.63202,0.28272 5.44761,0.4245 1.30893,0.035 2.61796,0.0705 3.92652,0.10611 0.77834,-0.10638 1.55674,-0.21252 2.33469,-0.31836 0.45943,-0.17109 0.91895,-0.30869 1.378,-0.46261 0.46685,-0.5835 0.93411,-1.16756 1.40075,-1.75092 0.26694,-0.70029 0.53389,-1.40103 0.80042,-2.10112 0.18362,-0.65031 0.36714,-1.30097 0.5503,-1.95103 0.0503,-0.46695 0.10037,-0.93411 0.15007,-1.40074 -0.14969,-0.40023 -0.29988,-0.80071 -0.45023,-1.20064 -0.89986,-0.28365 -1.80068,-0.56725 -2.70143,-0.85045 -2.10125,-0.41724 -4.20195,-0.83405 -6.30335,-1.25066 -2.16776,-0.30047 -4.33535,-0.6006 -6.50344,-0.90048 -1.36726,-0.10037 -2.7345,-0.20038 -4.10217,-0.30015 -1.56751,0.0498 -3.13472,0.0997 -4.70249,0.15007 -0.33329,0.14983 -0.66674,0.29989 -1.00053,0.45024 -0.20817,0.40142 -0.41619,0.8023 -0.6247,1.20389 z"
         inkscape:path-effect="#path-effect5774"
         inkscape:connector-curvature="0"
         id="path5772"
         d="m 118.50038,44.780904 c -0.0884,0.365365 -0.26526,1.096438 -0.36552,1.904363 -0.10026,0.807925 -0.12382,1.691876 -0.0638,2.534934 0.06,0.843059 0.19939,1.621406 0.38809,2.15215 0.18871,0.530744 0.42447,0.80187 1.27361,1.143876 0.84913,0.342006 2.31114,0.754673 3.95594,1.108387 1.6448,0.353713 3.4727,0.648532 5.29436,0.866655 1.82167,0.218122 3.63777,0.35964 5.20003,0.448066 1.56227,0.08843 2.8713,0.123801 3.91477,0.08841 1.04347,-0.03539 1.82187,-0.141532 2.44309,-0.272542 0.62122,-0.13101 1.07571,-0.283588 1.53861,-0.652393 0.46291,-0.368806 0.93017,-0.95287 1.2969,-1.594709 0.36674,-0.64184 0.63368,-1.342581 0.85874,-2.017779 0.22506,-0.675197 0.40858,-1.325857 0.52527,-1.884351 0.11668,-0.558494 0.16673,-1.025656 0.11671,-1.459006 -0.05,-0.43335 -0.2002,-0.833834 -0.72519,-1.175522 -0.52499,-0.341689 -1.42582,-0.625281 -2.92679,-0.975512 -1.50098,-0.350231 -3.60168,-0.767035 -5.73625,-1.125579 -2.13457,-0.358545 -4.30216,-0.658674 -6.06983,-0.858791 -1.76766,-0.200117 -3.1349,-0.300156 -4.60248,-0.325179 -1.46757,-0.02502 -3.03478,0.02499 -3.98529,0.124986 -0.9505,0.09999 -1.28396,0.250048 -1.55501,0.525847 -0.27106,0.275799 -0.47908,0.67668 -0.58328,0.877501 -0.10421,0.20082 -0.10426,0.20082 -0.19265,0.566185 z"
         style="fill:none;stroke:#000000;stroke-width:1;stroke-linecap:butt;stroke-linejoin:miter;stroke-miterlimit:4;stroke-dasharray:none;stroke-opacity:1" />
      <path
         inkscape:original-d="m 138.87388,63.122199 c -0.26653,0.49998 -0.53333,1.00024 -0.80042,1.50079 -0.0498,0.61713 -0.0998,1.23371 -0.15008,1.85098 0.23385,0.5336 0.46718,1.06695 0.70037,1.60085 0.36723,0.23323 0.734,0.46663 1.10058,0.70037 0.30038,-0.0503 0.6006,-0.10038 0.90048,-0.15008 0.28346,-0.33344 0.56725,-0.66731 0.85045,-1.00053 0.21686,-0.0835 0.43384,-0.16704 0.65034,-0.25014 0.68292,0.0497 1.36767,0.0997 2.05109,0.15009 0.35033,0.59981 0.70065,1.20035 1.05055,1.80095 0.25046,0.43335 0.50055,0.86684 0.7504,1.30069 0.55069,0.21654 1.10087,0.43328 1.65087,0.65034 0.53376,-0.16699 1.06752,-0.33378 1.60086,-0.50026 0.40024,-0.31692 0.80069,-0.63396 1.20062,-0.9505 0.36687,-0.31688 0.73401,-0.63396 1.10059,-0.95051 0.31686,-0.11691 0.63395,-0.23374 0.9505,-0.35019 0.36675,-0.13354 0.734,-0.26708 1.10058,-0.4002 0.31683,0.14965 0.63395,0.29988 0.95051,0.45023 0.30033,0.24976 0.6006,0.49999 0.90048,0.7504 0.40045,0.38322 0.8007,0.7668 1.20063,1.15061 0.25041,0.0997 0.50055,0.19982 0.7504,0.30016 0.40026,-0.13361 0.80071,-0.26709 1.20064,-0.40021 0.18356,-0.36684 0.36714,-0.73401 0.55028,-1.10059 0.0503,-0.23352 0.10038,-0.46719 0.15009,-0.70037 -0.2162,-0.8662 -0.43328,-1.73453 -0.65034,-2.60137"
         inkscape:path-effect="#path-effect5778"
         inkscape:connector-curvature="0"
         id="path5776"
         d="m 138.87388,63.122199 c -0.26663,0.499928 -0.53343,1.000186 -0.69194,1.559043 -0.15852,0.558858 -0.20851,1.175438 -0.11678,1.750956 0.0917,0.575518 0.32507,1.108864 0.62534,1.492522 0.30027,0.383658 0.66704,0.617057 1.00064,0.708728 0.33361,0.09167 0.63384,0.04163 0.92547,-0.150082 0.29164,-0.191715 0.57543,-0.525585 0.82548,-0.733897 0.25006,-0.208312 0.46707,-0.29178 0.91674,-0.308419 0.44967,-0.01664 1.13441,0.03347 1.65114,0.358474 0.51672,0.325007 0.86704,0.92555 1.16721,1.442525 0.30018,0.516975 0.55027,0.950464 0.95064,1.275734 0.40037,0.32527 0.95056,0.542007 1.49253,0.56696 0.54197,0.02495 1.07573,-0.141845 1.54251,-0.383611 0.46678,-0.241766 0.86724,-0.558797 1.25063,-0.875519 0.38339,-0.316722 0.75053,-0.6338 1.09227,-0.850467 0.34174,-0.216667 0.65883,-0.333492 1.00048,-0.458485 0.34165,-0.124993 0.7089,-0.258535 1.05049,-0.250175 0.3416,0.0084 0.65872,0.158573 0.96712,0.358615 0.3084,0.200042 0.60867,0.450269 0.95882,0.767076 0.35016,0.316807 0.75041,0.700384 1.07563,0.942198 0.32523,0.241814 0.57539,0.341879 0.90054,0.325157 0.32516,-0.01672 0.72561,-0.150203 1.01727,-0.400297 0.29165,-0.250094 0.47523,-0.617264 0.59189,-0.917311 0.11665,-0.300048 0.16673,-0.533718 0.0834,-1.083341 -0.0833,-0.549622 -0.30037,-1.417951 -0.5171,-2.284874"
         style="fill:none;stroke:#000000;stroke-width:1;stroke-linecap:butt;stroke-linejoin:miter;stroke-miterlimit:4;stroke-dasharray:none;stroke-opacity:1" />
      <path
         inkscape:original-d="m 129.81908,86.884779 c 0.45052,-0.8007 0.90076,-1.60113 1.35072,-2.40127 0.58368,-0.55035 1.16756,-1.10086 1.75092,-1.65088 1.33367,-0.56696 2.66836,-1.13421 4.00213,-1.7009 1.40066,-0.0837 2.80176,-0.16703 4.20222,-0.25013 1.68414,0.16644 3.36873,0.33323 5.05268,0.50026 1.15071,0.0998 2.30149,0.19983 3.45182,0.30016 1.01726,0.14977 2.0347,0.29988 3.05162,0.45025 0.78385,0.19977 1.56778,0.39993 2.35125,0.60031 0.70047,0.36649 1.40102,0.73344 2.10111,1.10058 0.61718,0.59995 1.23427,1.20036 1.85097,1.80096 0.4005,0.49998 0.80071,1.00024 1.20064,1.50079 0.33382,0.60008 0.70066,1.20036 1.05056,1.80095"
         inkscape:path-effect="#path-effect5782"
         inkscape:connector-curvature="0"
         id="path5780"
         d="m 129.81908,86.884779 c 0.45043,-0.800753 0.90067,-1.601182 1.41754,-2.276396 0.51687,-0.675214 1.10074,-1.225729 2.05928,-1.784157 0.95854,-0.558428 2.29324,-1.125671 3.66043,-1.450771 1.3672,-0.325099 2.7683,-0.408497 4.31057,-0.366806 1.54228,0.04169 3.22687,0.208481 4.6442,0.341876 1.41734,0.133394 2.56811,0.233462 3.6519,0.35852 1.08378,0.125058 2.10122,0.275176 3.00159,0.450253 0.90036,0.175078 1.6843,0.375228 2.42622,0.658665 0.74193,0.283437 1.44247,0.650391 2.10106,1.133911 0.65858,0.48352 1.27567,1.083934 1.78425,1.634205 0.50859,0.55027 0.9088,1.05053 1.28188,1.597188 0.37309,0.546659 0.72749,1.154196 1.07772,1.754592"
         style="fill:none;stroke:#000000;stroke-width:1;stroke-linecap:butt;stroke-linejoin:miter;stroke-miterlimit:4;stroke-dasharray:none;stroke-opacity:1" />
      <path
         inkscape:original-d="m 129.81908,86.884779 c 0.4672,-1.43438 0.93411,-2.86847 1.40075,-4.30228 0.61713,-0.78385 1.23426,-1.56777 1.85098,-2.35124 1.20044,-0.53368 2.40155,-1.06751 3.6019,-1.60086 0.53375,-0.16698 1.06751,-0.33378 1.60085,-0.50026 1.06685,-0.15026 2.13474,-0.30043 3.2017,-0.45024 0.81714,0.0831 1.63447,0.16648 2.45129,0.25014 0.76712,0.19976 1.53443,0.39993 2.30122,0.60031 0.26703,-2.7e-4 0.5339,-2.7e-4 0.80043,0 0.31678,0.0164 0.63394,0.033 0.9505,0.0501 0.66675,-0.0503 1.33432,-0.10038 2.00106,-0.15008 1.03369,0.18306 2.06804,0.36658 3.10165,0.55028 1.40071,0.59991 2.80175,1.20036 4.20222,1.80096 0.61721,0.48326 1.23427,0.96689 1.85097,1.45077 0.60057,0.85011 1.20093,1.70061 1.80096,2.55135 0.11701,1.3672 0.20039,2.76785 0.30016,4.1522"
         inkscape:path-effect="#path-effect5786"
         inkscape:connector-curvature="0"
         id="path5784"
         d="m 129.81908,86.884779 c 0.46703,-1.434436 0.93394,-2.868524 1.47589,-3.977341 0.54196,-1.108816 1.15909,-1.892736 2.06771,-2.551237 0.90862,-0.6585 2.10973,-1.192332 2.97678,-1.542473 0.86705,-0.35014 1.40081,-0.516939 2.2009,-0.675279 0.80008,-0.158341 1.86797,-0.308513 2.80999,-0.341841 0.94202,-0.03333 1.75935,0.05008 2.55129,0.1918 0.79194,0.141724 1.55925,0.341889 2.07621,0.441915 0.51695,0.100026 0.78382,0.100026 1.07547,0.108374 0.29164,0.0083 0.6088,0.02506 1.10048,0.0084 0.49167,-0.01666 1.15924,-0.06673 2.00942,-4e-5 0.85017,0.06669 1.88452,0.250199 3.10164,0.642016 1.21712,0.391817 2.61816,0.992265 3.62695,1.534184 1.00879,0.541918 1.62584,1.025557 2.23444,1.692508 0.60859,0.66695 1.20895,1.517452 1.55859,2.626959 0.34965,1.109507 0.45081,2.508872 0.55088,3.8932"
         style="fill:none;stroke:#000000;stroke-width:1;stroke-linecap:butt;stroke-linejoin:miter;stroke-miterlimit:4;stroke-dasharray:none;stroke-opacity:1" />
      <path
         inkscape:original-d="m 129.81908,86.884779 c 0.20039,2.01746 0.40049,4.03519 0.60032,6.0532 0.21709,1.61745 0.43384,3.23478 0.65035,4.85257 0.45058,1.384 0.90076,2.767851 1.35072,4.152211 0.70073,0.75021 1.40102,1.50051 2.1011,2.25118 1.05086,0.58338 2.1014,1.16701 3.15167,1.75093 1.23416,0.33321 2.46826,0.66674 3.70196,1.00053 1.35079,0.0998 2.70172,0.19983 4.05215,0.30016 1.58414,-0.18367 3.16863,-0.36714 4.75252,-0.55029 0.86723,-0.36707 1.73453,-0.734 2.60137,-1.10058 0.70038,-0.81707 1.40102,-1.63448 2.10112,-2.4513 1.05045,-1.50052 2.10139,-3.03522 3.15166,-4.552411 1.06729,-2.50108 2.13475,-5.00293 3.2017,-7.50398 0.10038,-0.7339 2.8e-4,-1.43437 0,-2.15114"
         inkscape:path-effect="#path-effect5790"
         inkscape:connector-curvature="0"
         id="path5788"
         d="m 129.81908,86.884779 c 0.20008,2.01749 0.40019,4.03522 0.60864,5.852956 0.20846,1.817736 0.42522,3.435065 0.75875,4.935993 0.33353,1.500928 0.7837,2.884782 1.35907,3.952142 0.57537,1.06737 1.27566,1.81767 2.15118,2.48473 0.87553,0.66705 1.92606,1.25068 3.06833,1.70924 1.14226,0.45856 2.37636,0.7921 3.66864,1.00886 1.29228,0.21676 2.64321,0.31683 4.11052,0.27513 1.46731,-0.0417 3.0518,-0.22517 4.27737,-0.50033 1.22558,-0.27516 2.09288,-0.64209 2.87645,-1.234 0.78357,-0.5919 1.48421,-1.40931 2.35556,-2.57069 0.87136,-1.16138 1.9301,-2.69068 2.98884,-4.699826 1.05874,-2.009143 2.1262,-4.510995 2.65975,-6.12844 0.53354,-1.617445 0.53354,-2.317915 0.53354,-3.034685"
         style="fill:none;stroke:#000000;stroke-width:1;stroke-linecap:butt;stroke-linejoin:miter;stroke-miterlimit:4;stroke-dasharray:none;stroke-opacity:1" />
      <path
         inkscape:original-d="m 129.81908,86.884779 c 0.70065,2.13418 1.40102,4.26864 2.10112,6.40339 0.88414,1.76747 1.76787,3.53493 2.6514,5.30281 0.98419,1.08369 1.96798,2.167531 2.95156,3.251721 1.05086,0.33323 2.10139,0.66674 3.15168,1.00053 1.16737,0.23314 2.33484,0.46663 3.50185,0.70037 1.30073,-0.10027 2.60166,-0.20038 3.90206,-0.30016 1.20064,-0.56712 2.40156,-1.13421 3.60191,-1.7009 0.80048,-0.70046 1.60113,-1.40102 2.40128,-2.101111 1.05044,-1.15047 2.10139,-2.3015 3.15166,-3.45183 0.9172,-1.26729 1.83458,-2.53495 2.75146,-3.80201 0.46707,-0.96722 0.83405,-2.16807 1.25066,-3.25167"
         inkscape:path-effect="#path-effect5794"
         inkscape:connector-curvature="0"
         id="path5792"
         d="m 129.81908,86.884779 c 0.70032,2.134289 1.40069,4.268749 2.19281,6.219886 0.79212,1.951137 1.67585,3.718597 2.60973,5.144433 0.93388,1.425837 1.91767,2.509672 2.93498,3.218422 1.01731,0.70875 2.06784,1.04225 3.1767,1.32571 1.10885,0.28346 2.27631,0.51695 3.51023,0.58363 1.23391,0.0667 2.53484,-0.0334 3.78538,-0.3669 1.25054,-0.33352 2.45145,-0.90061 3.45185,-1.53424 1.0004,-0.63362 1.80105,-1.33418 2.72633,-2.259474 0.92528,-0.925294 1.97622,-2.076331 2.95994,-3.285153 0.98372,-1.208822 1.9011,-2.476479 2.5517,-3.609526 0.65059,-1.133047 1.10024,-2.302103 1.51699,-3.385648"
         style="fill:none;stroke:#000000;stroke-width:1;stroke-linecap:butt;stroke-linejoin:miter;stroke-miterlimit:4;stroke-dasharray:none;stroke-opacity:1" />
      <path
         inkscape:original-d="m 132.97075,83.382919 c -0.0164,0.31656 -0.033,0.63339 -0.0501,0.95051 0.3341,0.14993 0.6673,0.29987 1.00054,0.45024 1.68385,-0.0503 3.36872,-0.10038 5.05267,-0.15008 1.98432,0.1331 3.96904,0.26653 5.95315,0.40021 1.4842,0.21647 2.96852,0.43328 4.45235,0.65034 1.13404,0.1998 2.26816,0.39994 3.40181,0.60032 1.16733,0.33316 2.33485,0.66674 3.50185,1.00053 0.8506,0.16645 1.70119,0.33324 2.55135,0.50027 0.167,-0.0169 0.3338,-0.0337 0.50027,-0.05 0.1168,-0.33318 0.23373,-0.70065 0.35018,-1.05056"
         inkscape:path-effect="#path-effect5798"
         inkscape:connector-curvature="0"
         id="path5796"
         d="m 132.97075,83.382919 c -0.0167,0.316545 -0.0334,0.63337 0.12523,0.867077 0.15862,0.233707 0.49182,0.383646 1.50044,0.433652 1.00863,0.05 2.6935,-4.1e-5 4.52762,0.04165 1.83412,0.04169 3.81884,0.175116 5.55298,0.350202 1.73414,0.175085 3.21846,0.391895 4.52739,0.600325 1.30893,0.20843 2.44305,0.408569 3.59352,0.67535 1.15047,0.266781 2.31799,0.600359 3.32681,0.850474 1.00882,0.250115 1.85941,0.416899 2.36803,0.491908 0.50862,0.07501 0.67543,0.05834 0.81447,-0.117431 0.13903,-0.175769 0.26096,-0.541571 0.37758,-0.891426"
         style="fill:none;stroke:#000000;stroke-width:1;stroke-linecap:butt;stroke-linejoin:miter;stroke-miterlimit:4;stroke-dasharray:none;stroke-opacity:1" />
      <path
         inkscape:original-d="m 116.71215,49.164809 c -0.65007,2.00077 -1.30041,4.00183 -1.95104,6.00317 -0.26657,2.18458 -0.53333,4.36871 -0.80042,6.55347 0.067,3.06845 0.13368,6.13631 0.20011,9.20488 0.26711,1.76748 0.53389,3.53493 0.80042,5.30281 0.2838,3.68548 0.56725,7.37028 0.85045,11.05585 0.60064,4.43571 1.20092,8.90443 1.80095,13.357071 0.28378,1.70071 0.56725,3.40153 0.85045,5.10271"
         inkscape:path-effect="#path-effect5802"
         inkscape:connector-curvature="0"
         id="path5800"
         d="m 116.71215,49.164809 c -0.65024,2.000716 -1.30058,4.001774 -1.75922,6.094747 -0.45863,2.092973 -0.7254,4.277103 -0.82546,6.903726 -0.10007,2.626623 -0.0334,5.694483 0.13337,8.112529 0.16676,2.418046 0.43354,4.185495 0.70871,6.912163 0.27517,2.726668 0.55862,6.411468 0.99943,10.472267 0.44081,4.060798 1.04329,8.529221 1.4852,11.605902 0.4419,3.076677 0.72537,4.777497 1.00889,6.478627"
         style="fill:none;stroke:#000000;stroke-width:1;stroke-linecap:butt;stroke-linejoin:miter;stroke-miterlimit:4;stroke-dasharray:none;stroke-opacity:1" />
      <path
         sodipodi:nodetypes="cccccccc"
         inkscape:original-d="m 184.89825,63.422349 c -0.83349,2.36764 -1.66726,4.73556 -2.50132,7.10377 -0.34996,1.35062 -0.70009,2.70115 -1.05056,4.05215 -0.31663,1.25067 -0.63338,2.50103 -0.9505,3.75198 -1.20067,2.65182 -2.40099,5.30253 -3.6019,7.95421 -1.18384,2.78488 -2.36765,5.56933 -3.55189,8.35442 -1.36727,2.86826 -2.73451,5.736101 -4.10217,8.604561 -1.21714,1.81195 -2.43431,3.62381 -3.65192,5.43621"
         inkscape:path-effect="#path-effect5806"
         inkscape:connector-curvature="0"
         id="path5804"
         d="m 184.89825,63.422349 c -0.83365,2.367582 -1.66743,4.735502 -2.25945,6.594921 -0.59202,1.85942 -0.94216,3.209948 -1.27571,4.510784 -0.33354,1.300836 -0.6503,2.551194 -1.40916,4.502576 -0.75886,1.951382 -1.95918,4.602092 -3.15155,7.320373 -1.19238,2.71828 -2.37619,5.50273 -3.65194,8.329403 -1.27576,2.826673 -2.64298,5.694524 -3.93536,8.034734 -1.29237,2.34021 -2.50954,4.15207 -3.72709,5.96451"
         style="fill:none;stroke:#000000;stroke-width:1;stroke-linecap:butt;stroke-linejoin:miter;stroke-miterlimit:4;stroke-dasharray:none;stroke-opacity:1" />
      <path
         inkscape:original-d="m 159.65989,52.741699 c 1.16756,-0.78403 2.33485,-1.56778 3.50185,-2.35125 0.69212,-0.31702 1.38434,-0.63395 2.0761,-0.9505 0.56697,-0.11696 1.13422,-0.23373 1.7009,-0.35018 0.66692,0.0498 1.33433,0.0997 2.00106,0.15008 0.92541,0.34976 1.85127,0.70008 2.77647,1.05055 0.3254,0.3165 0.65063,0.63338 0.97552,0.9505 0.41716,0.68341 0.83405,1.36711 1.25067,2.05109"
         inkscape:path-effect="#path-effect5810"
         inkscape:connector-curvature="0"
         id="path5808"
         d="m 159.65989,52.741699 c 1.1676,-0.783965 2.33489,-1.567718 3.26446,-2.117933 0.92957,-0.550215 1.62179,-0.867136 2.25115,-1.083845 0.62936,-0.216709 1.1966,-0.333493 1.81337,-0.366814 0.61677,-0.03332 1.28417,0.01673 2.08019,0.21679 0.79602,0.200056 1.72188,0.550379 2.34711,0.883833 0.62522,0.333453 0.95045,0.650338 1.32145,1.150557 0.37101,0.50022 0.7879,1.183919 1.20484,1.867702"
         style="fill:none;stroke:#000000;stroke-width:1;stroke-linecap:butt;stroke-linejoin:miter;stroke-miterlimit:4;stroke-dasharray:none;stroke-opacity:1" />
      <ellipse
         ry="2.7514572"
         rx="2.8515103"
         cy="52.016319"
         cx="167.43901"
         id="path5812"
         style="opacity:1;fill:#000000;fill-opacity:1;fill-rule:nonzero;stroke:none;stroke-width:1;stroke-linecap:round;stroke-linejoin:round;stroke-miterlimit:4;stroke-dasharray:none;stroke-dashoffset:0;stroke-opacity:1;paint-order:markers fill stroke" />
      <ellipse
         ry="2.7514572"
         rx="2.8515103"
         cy="47.163742"
         cx="134.57159"
         id="path5812-9"
         style="opacity:1;fill:#000000;fill-opacity:1;fill-rule:nonzero;stroke:none;stroke-width:1;stroke-linecap:round;stroke-linejoin:round;stroke-miterlimit:4;stroke-dasharray:none;stroke-dashoffset:0;stroke-opacity:1;paint-order:markers fill stroke" />
      <path
         inkscape:original-d="m 142.37573,49.539999 c -1.42547,-1.35933 -2.8679,-2.71838 -4.30227,-4.07715 -0.82517,-0.4005 -1.6506,-0.80071 -2.47632,-1.20064 -0.65015,-0.11703 -1.30041,-0.23374 -1.95103,-0.35019 -0.62527,0.0831 -1.25038,0.16648 -1.876,0.25014 -0.84224,0.36676 -1.70061,0.73344 -2.55134,1.10058 -0.6253,0.53354 -1.25039,1.06695 -1.876,1.60084"
         inkscape:path-effect="#path-effect5831"
         inkscape:connector-curvature="0"
         id="path5829"
         d="m 142.37573,49.539999 c -1.42969,-1.354879 -2.86817,-2.718093 -3.99789,-3.597702 -1.12971,-0.87961 -1.95514,-1.279819 -2.69303,-1.538306 -0.73788,-0.258488 -1.38814,-0.375203 -2.02604,-0.391904 -0.63789,-0.0167 -1.26301,0.06665 -1.99758,0.290291 -0.73457,0.223641 -1.59163,0.593354 -2.32967,1.04364 -0.73803,0.450287 -1.36312,0.983694 -1.98875,1.517561"
         style="fill:none;stroke:#000000;stroke-width:1;stroke-linecap:butt;stroke-linejoin:miter;stroke-miterlimit:4;stroke-dasharray:none;stroke-opacity:1" />
      <path
         sodipodi:nodetypes="ccccccccccccccccccccccccccccccccccccccccccccccccccccccccccccccccccccccccccccccccccccccccccccc"
         inkscape:original-d="m 126.36726,101.8427 c -0.7001,-0.20039 -1.40047,-0.40049 -2.10112,-0.60032 -0.6002,0.21656 -1.20035,0.43329 -1.80095,0.65035 -0.18325,0.26667 -0.36659,0.53333 -0.55029,0.80042 -0.35033,0.13328 -0.70009,0.26653 -1.05056,0.40021 -0.2501,0.35024 -0.49998,0.70009 -0.75039,1.05056 -0.38361,0.0999 -0.7668,0.19983 -1.15061,0.30016 -0.0999,0.40028 -0.33324,0.86684 -0.50027,1.30069 -0.33349,0.53375 -0.70009,1.06695 -1.05056,1.60084 0.23388,0.43355 0.4672,0.86685 0.70038,1.3007 -0.31663,0.85036 -0.63339,1.70061 -0.95051,2.55135 0.33392,0.16654 0.6673,0.33322 1.00053,0.50026 -0.18309,0.58316 -0.36658,1.167 -0.55029,1.75093 0.33398,0.16657 0.6673,0.33323 1.00053,0.50026 -0.24977,0.56649 -0.49999,1.13366 -0.7504,1.7009 0.41742,0.30006 0.83406,0.60004 1.25067,0.90048 -0.0997,0.75002 -0.19984,1.50051 -0.30017,2.25119 0.51744,0.16655 1.03417,0.36659 1.55082,0.55029 0.217,1.03328 0.43385,2.06748 0.65035,3.10165 0.51733,0.0664 1.03416,0.13312 1.55082,0.2001 -0.38307,0.7331 -0.76679,1.46716 -1.15061,2.20116 0.76771,0.71711 1.53442,1.43382 2.30122,2.15114 0.1837,0.51666 0.36714,1.03361 0.55029,1.55083 0.65083,0.1832 1.30097,0.36658 1.95103,0.55029 0.13366,0.39982 0.26709,0.80015 0.40022,1.20064 0.48407,0.0665 0.96746,0.13312 1.45077,0.2001 0.60163,0.37957 1.20357,0.7598 1.80494,1.14012 0.54261,-0.0945 1.08509,-0.18894 1.62721,-0.28299 0.5188,0.5418 1.03792,1.08452 1.55646,1.6272 0.9436,-0.37761 1.88689,-0.75492 2.82993,-1.13197 0.51891,0.6598 1.03792,1.32035 1.55646,1.98095 0.40121,0.18839 0.80209,0.37704 1.20271,0.56599 0.89615,-0.33034 1.79256,-0.6606 2.68843,-0.99048 0.35389,0.30618 0.70776,0.61287 1.06122,0.91973 0.49549,-0.33042 0.99076,-0.66059 1.48572,-0.99047 0.70729,0.11755 1.41524,0.23555 2.12244,0.35373 0.0711,-0.30675 0.14178,-0.61342 0.21224,-0.91972 1.08393,0.11751 2.16989,0.23555 3.25442,0.35374 0.11816,-1.08484 0.2361,-2.16989 0.35374,-3.25442 0.61325,0.14118 1.22658,0.28272 1.83945,0.4245 0.3539,-0.0711 0.75492,-0.14178 1.13197,-0.21225 -0.0233,-0.37728 -0.0469,-0.75493 -0.0707,-1.13197 0.77798,-0.4009 1.55675,-0.84925 2.33469,-1.27346 0.0238,-0.42459 0.0474,-0.84927 0.0707,-1.27348 0.51874,-0.23594 1.03791,-0.47193 1.55645,-0.70747 -0.14112,-0.54234 -0.2827,-1.08509 -0.42448,-1.62721 0.40104,-0.16531 0.80209,-0.33044 1.20272,-0.49524 -0.21178,-0.56578 -0.42421,-1.13225 -0.63673,-1.69796 1.10836,-0.25961 2.21706,-0.5191 3.32516,-0.77822 -0.18833,-0.40107 -0.37705,-0.8021 -0.56598,-1.20273 0.68397,-0.44821 1.36808,-0.89641 2.05169,-1.34421 -0.18829,-0.566 -0.37704,-1.13225 -0.56599,-1.69795 0.63682,-0.25961 1.27375,-0.5191 1.9102,-0.77824 -0.11757,-0.63667 -0.23554,-1.27374 -0.35374,-1.91019 0.89612,-0.3539 1.79257,-0.70776 2.68843,-1.06122 -0.14116,-0.35389 -0.28271,-0.70776 -0.42449,-1.06123 0.46166,-0.73842 0.99075,-1.08509 1.38471,-2.21531 2.7e-4,-2.6e-4 2.7e-4,-2.6e-4 0,0 -0.61061,-0.40851 -0.52954,-0.35433 -1.06785,-0.71364 0.13041,-1.10011 0.19449,-1.64163 0.25831,-2.18284 -0.6139,-0.0264 -0.85795,-0.0367 -2.47586,-0.10525 -1.5437,-0.63472 -1.32726,-0.54578 -2.36308,-0.97106 -1.08563,0.48615 -0.79827,0.35743 -2.47795,1.10996 -1.09665,0.9645 -1.35738,1.19382 -1.61848,1.4235 -0.19996,0.85076 -0.39993,1.70062 -0.60031,2.55135 -0.46682,0.0999 -0.93355,0.19982 -1.40075,0.30016 -0.0164,0.61714 -0.033,1.23371 -0.0501,1.85098 -0.76714,0.19992 -1.53386,0.39994 -2.30122,0.60032 -0.16654,0.66702 -0.33323,1.33375 -0.50026,2.00106 -0.7338,-0.0503 -1.46717,-0.10038 -2.20117,-0.15008 -0.60025,0.75038 -1.20035,1.50051 -1.80095,2.25119 -0.63365,-0.31724 -1.26706,-0.63395 -1.90101,-0.9505 -0.78361,0.4 -1.56721,0.80014 -2.35124,1.20063 -0.41679,-0.58417 -0.8335,-1.16757 -1.25066,-1.75093 -0.8501,0.3999 -1.70063,0.80015 -2.55135,1.20064 -0.14987,-0.36729 -0.29988,-0.734 -0.45025,-1.10058 -0.83317,0.51646 -1.66726,1.0336 -2.50132,1.55083 -0.35004,-0.5508 -0.70009,-1.10088 -1.05056,-1.65089 -0.51658,0.18313 -1.0336,0.36659 -1.55081,0.5503 0.0169,-0.78454 0.0337,-1.56778 0.05,-2.35125 -0.84986,0.0164 -1.70061,0.033 -2.55134,0.05 -0.0831,-0.56744 -0.16648,-1.13422 -0.25014,-1.7009 -0.76647,0.0831 -1.53386,0.16647 -2.30121,0.25012 -0.0498,-0.75097 -0.0998,-1.50107 -0.15008,-2.25118 -0.31645,-0.0837 -0.63339,-0.16704 -0.95051,-0.25014 0.25057,-0.65102 0.50055,-1.30096 0.7504,-1.95103 -0.5664,-0.25028 -1.13366,-0.50055 -1.7009,-0.7504 0.50065,-0.60074 1.0008,-1.20091 1.50079,-1.80095 -0.58306,-0.26695 -1.16701,-0.5339 -1.75092,-0.80042 0.20043,-0.43394 0.40049,-0.86741 0.60031,-1.30069 -0.53291,-0.15025 -1.06695,-0.30044 -1.60085,-0.45025 0.21715,-0.56744 0.43385,-1.13421 0.65035,-1.7009 z"
         inkscape:path-effect="#path-effect5835"
         inkscape:connector-curvature="0"
         id="path5833"
         d="m 126.01716,101.74267 c -0.3501,-0.10003 -1.05046,-0.30013 -1.70081,-0.29185 -0.65035,0.008 -1.2505,0.225 -1.64249,0.46677 -0.39198,0.24177 -0.57531,0.50843 -0.84227,0.70872 -0.26696,0.20028 -0.61672,0.33352 -0.91706,0.57539 -0.30034,0.24187 -0.55022,0.59171 -0.86718,0.817 -0.31697,0.22528 -0.70015,0.32524 -0.96557,0.5664 -0.26543,0.24115 -0.45182,0.72577 -0.70788,1.20574 -0.25605,0.47998 -0.61099,1.02083 -0.66942,1.50467 -0.0584,0.48383 0.17489,0.91713 0.13326,1.55912 -0.0416,0.64198 -0.35839,1.49223 -0.35,2.00107 0.008,0.50883 0.34177,0.67552 0.41684,1.05042 0.0751,0.37491 -0.10842,0.95875 -0.0333,1.33419 0.0751,0.37544 0.40846,0.5421 0.45021,0.90867 0.0417,0.36656 -0.20847,0.93373 -0.12501,1.36757 0.0834,0.43384 0.50009,0.73382 0.65851,1.25887 0.15842,0.52505 0.0583,1.27555 0.26433,1.74175 0.20598,0.46621 0.72797,0.65143 1.09469,1.25979 0.36672,0.60836 0.58357,1.64256 0.95063,2.19298 0.36706,0.55042 0.88389,0.61711 0.95065,1.01697 0.0668,0.39985 -0.31696,1.13391 -0.12509,1.85964 0.19186,0.72572 0.95858,1.44243 1.43379,2.05934 0.47522,0.61691 0.65865,1.13386 1.07576,1.48418 0.41711,0.35032 1.06726,0.53369 1.45899,0.82535 0.39173,0.29166 0.52518,0.69198 0.83393,0.92555 0.30874,0.23357 0.79213,0.30024 1.33451,0.52353 0.54239,0.22328 1.14433,0.60351 1.71644,0.74632 0.5721,0.14281 1.1146,0.0485 1.64489,0.27237 0.5303,0.2239 1.04942,0.76661 1.78067,0.84909 0.73124,0.0825 1.67453,-0.29485 2.40532,-0.15342 0.73079,0.14142 1.2498,0.80197 1.70975,1.22652 0.45995,0.42454 0.86083,0.61319 1.50932,0.54241 0.6485,-0.0708 1.54491,-0.40105 2.16963,-0.41283 0.62472,-0.0118 0.97859,0.29491 1.40322,0.28301 0.42462,-0.0119 0.91989,-0.34207 1.52097,-0.4481 0.60108,-0.10604 1.30903,0.0119 1.69806,-0.0825 0.38902,-0.0945 0.45979,-0.40112 1.03707,-0.49534 0.57729,-0.0942 1.66325,0.0238 2.26449,-0.45967 0.60124,-0.48349 0.71918,-1.56854 1.08471,-2.04004 0.36552,-0.47149 0.97885,-0.32995 1.46271,-0.29249 0.48385,0.0375 0.88405,-0.0376 1.06077,-0.26155 0.17673,-0.22397 0.15314,-0.60162 0.52543,-0.99964 0.37228,-0.39801 1.16096,-0.8282 1.56169,-1.25265 0.40073,-0.42445 0.42431,-0.84913 0.69548,-1.17914 0.27118,-0.33 0.79035,-0.56599 0.97886,-0.95495 0.18852,-0.38896 0.0469,-0.93171 0.17676,-1.2854 0.12983,-0.35368 0.53088,-0.51882 0.62511,-0.88412 0.0942,-0.36529 -0.1182,-0.93176 0.32991,-1.34439 0.44811,-0.41262 1.55681,-0.6721 2.0165,-1.00222 0.4597,-0.33012 0.27098,-0.73116 0.51869,-1.15562 0.2477,-0.42447 0.93181,-0.87267 1.17928,-1.37954 0.24747,-0.50688 0.0587,-1.07313 0.28285,-1.48577 0.22414,-0.41264 0.86107,-0.67213 1.12032,-1.12008 0.25925,-0.44794 0.14127,-1.08501 0.53043,-1.58014 0.38915,-0.49513 1.2856,-0.84899 1.66275,-1.20267 0.37715,-0.35368 0.2356,-0.70755 0.39567,-1.25359 0.16008,-0.54604 0.46453,-1.03312 0.77387,-1.528 0.30933,-0.49488 0.30933,-0.49488 0.004,-0.69898 -0.3054,-0.2041 -0.22433,-0.14993 -0.42829,-0.8798 -0.20396,-0.72988 -0.13988,-1.2714 -0.41482,-1.55504 -0.27493,-0.28364 -0.51898,-0.29401 -2.09984,-0.6456 -1.58087,-0.3516 -1.36443,-0.26265 -2.42506,-0.23232 -1.06064,0.0303 -0.77328,-0.0984 -2.16146,0.76008 -1.38818,0.85847 -1.64891,1.08779 -1.87955,1.62798 -0.23064,0.54018 -0.43061,1.39004 -0.7641,1.86544 -0.33348,0.47541 -0.80019,0.57542 -1.04217,0.93404 -0.24197,0.35863 -0.25866,0.9752 -0.65056,1.3839 -0.3919,0.40869 -1.15862,0.60871 -1.6257,1.04229 -0.46707,0.43358 -0.63375,1.10031 -1.08408,1.40897 -0.45033,0.30867 -1.1837,0.25866 -1.85083,0.60882 -0.66713,0.35015 -1.26723,1.10028 -1.88443,1.31718 -0.61719,0.2169 -1.2506,-0.0998 -1.95927,-0.0582 -0.70866,0.0416 -1.49227,0.44175 -2.09286,0.34997 -0.60059,-0.0918 -1.01731,-0.67519 -1.65075,-0.76697 -0.63344,-0.0918 -1.48397,0.30847 -1.98446,0.32508 -0.50049,0.0166 -0.65051,-0.3501 -1.14209,-0.27519 -0.49157,0.0749 -1.32566,0.59205 -1.9179,0.57533 -0.59224,-0.0167 -0.94229,-0.5668 -1.37562,-0.75027 -0.43333,-0.18346 -0.95035,0 -1.20064,-0.3005 -0.2503,-0.30049 -0.23364,-1.08374 -0.65024,-1.46714 -0.4166,-0.3834 -1.26734,-0.36673 -1.73443,-0.64209 -0.46709,-0.27536 -0.55045,-0.84214 -0.97534,-1.08385 -0.4249,-0.24171 -1.19228,-0.15831 -1.601,-0.49208 -0.40872,-0.33377 -0.45873,-1.08387 -0.64201,-1.50059 -0.18328,-0.41672 -0.50021,-0.50012 -0.53352,-0.86737 -0.0333,-0.36726 0.21667,-1.0172 0.0584,-1.46718 -0.15827,-0.44998 -0.72553,-0.70024 -0.75876,-1.12571 -0.0332,-0.42548 0.46691,-1.02565 0.42532,-1.45897 -0.0416,-0.43331 -0.62556,-0.70026 -0.81728,-1.05069 -0.19173,-0.35043 0.008,-0.7839 -0.1582,-1.07546 -0.16653,-0.29157 -0.70056,-0.44177 -0.85897,-0.80059 -0.15841,-0.35882 0.0583,-0.92559 0.16662,-1.2089 0.10833,-0.28332 0.10842,-0.28323 -0.24168,-0.38326 z"
         style="fill:none;stroke:#000000;stroke-width:1;stroke-linecap:butt;stroke-linejoin:miter;stroke-miterlimit:4;stroke-dasharray:none;stroke-opacity:1" />
      <path
         inkscape:original-d="m 110.90907,53.817269 c -0.56668,1.35044 -1.13365,2.70115 -1.7009,4.05214 -0.28327,1.55093 -0.56669,3.10137 -0.85045,4.65246 0.20043,0.91707 0.40049,1.83403 0.60032,2.75147 0.25047,0.3333 0.50054,0.66673 0.7504,1.00052 0.0503,1.01706 0.10033,2.03413 0.15008,3.05162 0.0336,0.61688 0.067,1.23371 0.10005,1.85098 0.25052,0.33338 0.50054,0.66674 0.75039,1.00053 0.36719,0.18318 0.73401,0.36658 1.10059,0.55029 0.41704,-0.0837 0.83405,-0.16703 1.25066,-0.25013 0.41684,-0.18357 0.83406,-0.36714 1.25066,-0.5503"
         inkscape:path-effect="#path-effect5839"
         inkscape:connector-curvature="0"
         id="path5837"
         d="m 110.90907,53.817269 c -0.56683,1.350379 -1.13379,2.70109 -1.55909,4.15206 -0.42531,1.450969 -0.70872,3.00141 -0.75044,4.235546 -0.0417,1.234135 0.15835,2.151094 0.3835,2.776547 0.22516,0.625453 0.47523,0.95888 0.62532,1.634195 0.1501,0.675316 0.20012,1.692386 0.24181,2.509571 0.0417,0.817185 0.075,1.434018 0.21682,1.909451 0.14179,0.475434 0.39181,0.808795 0.7004,1.067328 0.30859,0.258533 0.67541,0.441939 1.06733,0.491916 0.39193,0.04998 0.80892,-0.03342 1.22566,-0.166797 0.41673,-0.133375 0.83394,-0.316954 1.25049,-0.500237"
         style="fill:none;stroke:#000000;stroke-width:1;stroke-linecap:butt;stroke-linejoin:miter;stroke-miterlimit:4;stroke-dasharray:none;stroke-opacity:1" />
      <path
         inkscape:original-d="m 191.55178,58.869939 c -0.0164,0.0664 -0.033,0.13313 -0.05,0.20011 -0.11702,1.87661 -0.23317,3.73503 -0.35018,5.60296 -0.0498,1.06713 -0.0997,2.13419 -0.15008,3.20171 -0.35001,1.46756 -0.7001,2.9346 -1.05056,4.40232 -0.5001,0.80033 -1.00025,1.60057 -1.50079,2.40128 -0.53356,0.61696 -1.06695,1.2337 -1.60085,1.85098 -0.19993,0.68375 -0.39994,1.3671 -0.60032,2.05108 -0.70043,0.90063 -1.40046,1.80067 -2.10111,2.70144 -0.63361,0.0664 -1.26706,0.13311 -1.90101,0.20009 -0.50022,-0.20048 -1.00025,-0.40049 -1.50079,-0.60031 -0.36669,-0.38393 -0.73344,-0.76735 -1.10058,-1.15061"
         inkscape:path-effect="#path-effect5843"
         inkscape:connector-curvature="0"
         id="path5841"
         d="m 191.55178,58.869939 c -0.0166,0.06635 -0.0333,0.133068 -0.10027,1.104886 -0.067,0.971817 -0.18317,2.830237 -0.26655,4.297771 -0.0834,1.467533 -0.1334,2.534587 -0.33352,3.802112 -0.20012,1.267525 -0.55022,2.734564 -0.97543,3.86859 -0.42522,1.134025 -0.92537,1.934266 -1.44239,2.643117 -0.51703,0.70885 -1.05042,1.325586 -1.41741,1.976084 -0.367,0.650498 -0.567,1.333849 -1.01734,2.126166 -0.45034,0.792317 -1.15036,1.692358 -1.81746,2.176099 -0.6671,0.483742 -1.30055,0.550416 -1.86772,0.48371 -0.56717,-0.0667 -1.0672,-0.266715 -1.50089,-0.558624 -0.43369,-0.291908 -0.80043,-0.675329 -1.16729,-1.058861"
         style="fill:none;stroke:#000000;stroke-width:1;stroke-linecap:butt;stroke-linejoin:miter;stroke-miterlimit:4;stroke-dasharray:none;stroke-opacity:1" />
      <path
         sodipodi:nodetypes="ccccccccccccccccccccccccc"
         inkscape:original-d="m 158.58432,40.310109 c 0.13369,-0.56725 0.26709,-1.13421 0.4002,-1.7009 0.63359,-0.73357 1.26762,-1.467722 1.90101,-2.201161 2.03387,-0.283651 4.0691,-0.567247 6.10324,-0.850452 1.50085,0.266488 3.00186,0.533335 4.50238,0.800422 1.68426,0.466566 3.36874,0.93355 5.05268,1.400741 0.71725,0.71669 1.43437,1.43382 2.15114,2.15114 0.53389,0.6334 1.06751,1.26706 1.60084,1.901 0.38382,0.76681 0.7673,1.53375 1.15062,2.30123 0.0503,1.03375 0.10037,2.06748 0.15008,3.10164 -0.0998,0.41671 -0.19983,0.8335 -0.30016,1.25066 -0.13323,-0.067 -0.26653,-0.13368 -0.40022,-0.2001 -0.16661,-0.73462 -0.33323,-1.46773 -0.50026,-2.20116 -0.3499,-0.83405 -0.70009,-1.66784 -1.05056,-2.50133 -0.63338,-0.58393 -1.26706,-1.16758 -1.901,-1.75094 -0.58333,-0.46715 -1.16701,-0.9341 -1.75093,-1.40073 -0.60007,-0.25044 -1.20035,-0.50055 -1.80095,-0.7504 -0.50011,-2.8e-4 -1.00026,-2.8e-4 -1.5008,0 -1.03418,0.18326 -2.06749,0.36658 -3.10164,0.55029 -0.78372,0.0664 -1.56722,0.13313 -2.35125,0.20011 -0.81713,-0.0337 -1.63392,-0.067 -2.45129,-0.10006 -1.01726,-0.0169 -2.03414,-0.0337 -3.05162,-0.05 -0.70028,0.1832 -1.40046,0.36658 -2.10112,0.55029 -0.24997,-0.16712 -0.49998,-0.33379 -0.75039,-0.50027 z"
         inkscape:path-effect="#path-effect5847"
         inkscape:connector-curvature="0"
         id="path5845"
         d="m 158.65106,40.026459 c 0.0667,-0.28365 0.20014,-0.85061 0.58358,-1.500727 0.38344,-0.650118 1.01748,-1.384263 2.35114,-1.89268 1.33365,-0.508417 3.36888,-0.792015 5.13633,-0.800332 1.76745,-0.0083 3.26846,0.258529 4.86084,0.625362 1.59237,0.366833 3.27685,0.833817 4.47735,1.425732 1.2005,0.591915 1.91763,1.30904 2.54295,1.984386 0.62532,0.675346 1.15893,1.309012 1.61749,2.009343 0.45856,0.700331 0.84203,1.467275 1.05887,2.367812 0.21684,0.900537 0.26686,1.93427 0.24188,2.659673 -0.025,0.725403 -0.12501,1.142193 -0.24177,1.317452 -0.11676,0.17526 -0.25007,0.108606 -0.4003,-0.292045 -0.15023,-0.400651 -0.31685,-1.133762 -0.57532,-1.917467 -0.25847,-0.783706 -0.60866,-1.617495 -1.10055,-2.326129 -0.49189,-0.708634 -1.12557,-1.292289 -1.73419,-1.81754 -0.60862,-0.525251 -1.1923,-0.992194 -1.78425,-1.350708 -0.59195,-0.358513 -1.19222,-0.60863 -1.74251,-0.733726 -0.55028,-0.125096 -1.05043,-0.125096 -1.81777,-0.03336 -0.76734,0.09174 -1.80065,0.275067 -2.70959,0.400159 -0.90894,0.125092 -1.69245,0.191774 -2.49305,0.208461 -0.80059,0.01669 -1.61738,-0.01665 -2.53469,-0.04167 -0.91731,-0.02502 -1.9342,-0.04168 -2.79305,0.04168 -0.85885,0.08336 -1.55903,0.26674 -2.03448,0.275102 -0.47545,0.0084 -0.72545,-0.158313 -0.85055,-0.241714 -0.1251,-0.0834 -0.1251,-0.08342 -0.0584,-0.36707 z"
         style="fill:none;stroke:#000000;stroke-width:1;stroke-linecap:butt;stroke-linejoin:miter;stroke-miterlimit:4;stroke-dasharray:none;stroke-opacity:1" />
      <path
         inkscape:original-d="m 146.12772,38.909369 c -0.033,-0.50054 -0.0664,-1.00081 -0.10006,-1.50079 -0.5664,-0.816956 -1.13365,-1.634482 -1.7009,-2.451302 -0.58333,-0.617229 -1.16701,-1.234267 -1.75093,-1.850979 -1.38376,-0.517214 -2.76785,-1.03416 -4.1522,-1.550821 -1.30056,-0.333827 -2.6011,-0.667299 -3.90207,-1.00053 -1.18385,0.04975 -2.36763,0.09977 -3.55188,0.150078 -1.06721,0.533468 -2.13418,1.066954 -3.2017,1.600849 -0.70031,0.583546 -1.40046,1.167006 -2.1011,1.750928 -0.40011,0.717075 -0.80015,1.433812 -1.20064,2.151138 -0.30002,0.533585 -0.60004,1.066951 -0.90048,1.600849 -0.0498,0.19995 -0.0997,0.39993 -0.15008,0.60032 0.13391,0.0164 0.26709,0.0331 0.40022,0.05 0.28324,-0.20003 0.56724,-0.40049 0.85045,-0.60032 0.66654,-0.833116 1.33431,-1.667829 2.00106,-2.501324 1.10045,-0.350336 2.20144,-0.700651 3.30174,-1.050556 0.78379,0.01639 1.56778,0.03307 2.35125,0.05003 0.75041,0.316442 1.50108,0.633388 2.25119,0.950502 1.18403,0.46655 2.3682,0.933549 3.55188,1.400741 1.03404,0.316518 2.06805,0.633391 3.10164,0.950507 1.13402,0.39986 2.26815,0.76679 3.40181,1.15061 0.50046,0.0331 1.0008,0.0664 1.50079,0.10006 z"
         inkscape:path-effect="#path-effect5851"
         inkscape:connector-curvature="0"
         id="path5849"
         d="m 146.11103,38.659111 c -0.0167,-0.250257 -0.05,-0.75053 -0.35006,-1.4089 -0.30002,-0.65837 -0.86728,-1.47589 -1.44255,-2.192893 -0.57527,-0.717002 -1.15896,-1.334037 -2.14272,-1.900965 -0.98376,-0.566928 -2.36785,-1.083877 -3.71028,-1.509126 -1.34243,-0.425248 -2.64297,-0.75872 -3.88534,-0.900489 -1.24236,-0.14177 -2.42614,-0.09175 -3.55185,0.200056 -1.12571,0.291808 -2.19268,0.825293 -3.07661,1.383974 -0.88393,0.558681 -1.58407,1.142142 -2.13451,1.7926 -0.55043,0.650458 -0.95047,1.367195 -1.30073,1.99265 -0.35025,0.625455 -0.65027,1.158821 -0.82543,1.525749 -0.17517,0.366928 -0.22516,0.566886 -0.18328,0.675476 0.0419,0.10859 0.17507,0.12523 0.38329,0.03357 0.20822,-0.09167 0.49222,-0.292133 0.96706,-0.808646 0.47484,-0.516512 1.14261,-1.351225 2.02625,-1.943042 0.88365,-0.591817 1.98464,-0.942132 2.92665,-1.108833 0.94201,-0.166701 1.726,-0.150019 2.49288,0.01671 0.76687,0.166725 1.51754,0.483674 2.48461,0.875505 0.96708,0.391832 2.15125,0.858828 3.26012,1.250683 1.10888,0.391854 2.14289,0.70873 3.22922,1.059738 1.08633,0.351008 2.2154,0.732898 3.0325,0.941322 0.81711,0.208423 1.31745,0.241781 1.56745,0.25845 0.25001,0.01667 0.25002,0.01668 0.23333,-0.23358 z"
         style="fill:none;stroke:#000000;stroke-width:1;stroke-linecap:butt;stroke-linejoin:miter;stroke-miterlimit:4;stroke-dasharray:none;stroke-opacity:1" />
      <path
         inkscape:original-d="m 120.81432,41.260619 c 0.51722,-1.43437 1.03416,-2.86847 1.55081,-4.302282 0.46709,-1.734124 0.93411,-3.468782 1.40075,-5.202756 0.61716,-1.88425 1.23426,-3.768942 1.85098,-5.652993 0.63383,-1.584168 1.26762,-3.168624 1.90101,-4.752515 0.78386,-1.317364 1.56777,-2.635011 2.35124,-3.952095 1.63407,-1.450684 3.26868,-2.901816 4.9026,-4.352304 1.78423,-0.933938 3.56884,-1.867936 5.35283,-2.801483 1.68419,-0.400416 3.36873,-0.800704 5.05268,-1.200638 2.43443,-0.450428 4.86952,-0.900755 7.30386,-1.350713 2.86809,0.449899 5.73665,0.900196 8.60456,1.350713 2.05121,1.100215 4.0691,2.200888 6.10324,3.301751 2.05126,1.100248 4.10245,2.200884 6.15325,3.301747 1.03411,0.783429 2.06804,1.567217 3.10165,2.351246 1.05079,1.083583 2.10139,2.167536 3.15167,3.251721 0.75067,1.517197 1.50107,3.034662 2.25118,4.552411 0.60065,1.650718 1.20093,3.30147 1.80096,4.952623 0.16705,1.183794 0.33379,2.367643 0.50027,3.551883 0.50064,1.717637 1.0008,3.434874 1.50079,5.152724 0.0503,2.20112 0.10038,4.40206 0.15008,6.6035 2.8e-4,2.32624 2.8e-4,4.65218 0,6.97869"
         inkscape:path-effect="#path-effect5855"
         inkscape:connector-curvature="0"
         id="path5853"
         d="m 120.81432,41.260619 c 0.51706,-1.434429 1.034,-2.868529 1.52585,-4.452494 0.49186,-1.583964 0.95888,-3.318621 1.50079,-5.127736 0.54191,-1.809115 1.15902,-3.693804 1.7843,-5.427914 0.62529,-1.734111 1.25908,-3.318569 1.96773,-4.769192 0.70866,-1.450624 1.49257,-2.768269 2.70139,-4.15212 1.20882,-1.383851 2.84343,-2.834983 4.55252,-4.027152 1.7091,-1.192169 3.4937,-2.12617 5.22779,-2.793103 1.73409,-0.6669323 3.41863,-1.0672195 5.47781,-1.4923922 2.05919,-0.4251728 4.49428,-0.8754975 7.14545,-0.8754793 2.65117,1.82e-5 5.51973,0.4503145 7.97734,1.2291803 2.4576,0.7788662 4.47927,1.8725542 6.52197,2.9731112 2.0427,1.100557 4.09389,2.201196 5.63632,3.14333 1.54242,0.942134 2.57636,1.72592 3.61853,2.659708 1.04218,0.933788 2.09278,2.01774 2.99323,3.318376 0.90045,1.300637 1.65084,2.818105 2.32622,4.402317 0.67538,1.584212 1.27565,3.234966 1.65921,4.652398 0.38356,1.417433 0.5503,2.601282 0.88385,4.052246 0.33355,1.450965 0.83371,3.168201 1.10888,5.127642 0.27518,1.95944 0.3252,4.160382 0.35021,6.424218 0.025,2.263836 0.025,4.589776 0.025,6.916286"
         style="fill:none;stroke:#000000;stroke-width:1;stroke-linecap:butt;stroke-linejoin:miter;stroke-miterlimit:4;stroke-dasharray:none;stroke-opacity:1" />
      <path
         inkscape:original-d="m 116.71214,49.164809 c -1.93408,1.55053 -3.89192,3.11051 -5.80307,4.65246 -0.35228,-0.19814 -0.7979,-0.36975 -1.05769,-0.59359 -0.14122,-0.25969 -0.2826,-0.51889 -0.42449,-0.77823 0.0239,-0.36582 0.0474,-0.73128 0.0708,-1.0966 -0.28271,-0.99075 -0.56564,-1.98099 -0.84898,-2.97142 0.0946,-1.27375 0.18892,-2.54687 0.28299,-3.8204 0.5191,-1.27374 1.03783,-2.54698 1.55646,-3.82039 0.47194,-1.79257 0.94352,-3.584585 1.41497,-5.376867 1.32091,-2.122724 2.64109,-4.24445 3.96189,-6.367333 0.33044,-0.990755 0.66054,-1.981047 0.99048,-2.971421 1.03791,-1.792569 2.07531,-3.584426 3.11291,-5.37686 0.5191,-1.415242 1.03782,-2.829918 1.55646,-4.244889 1.13225,-1.55674 2.26394,-3.112818 3.39591,-4.669379 0.70776,-1.368076 1.4151,-2.735599 2.12244,-4.103392 1.60391,-1.085084 3.20712,-2.169612 4.81088,-3.254413 1.32092,-0.519101 2.64118,-1.037776 3.9619,-1.55646 1.13225,-0.849259 2.26398,-1.698057 3.39591,-2.546935 1.27374,0.04688 2.54703,0.09405 3.8204,0.141497 1.79256,0.141218 3.58455,0.282689 5.37685,0.42449 1.98123,-0.377604 3.96193,-0.75488 5.94285,-1.131971 1.41524,0.424209 2.83021,0.848699 4.24488,1.273468 0.86313,0.05411 1.72618,0.108516 2.58886,0.163195 1.30057,0.0664 2.60166,0.133125 3.90206,0.200106 0.86723,0.366506 1.73453,0.733442 2.60138,1.100584 1.63422,0.566597 3.26868,1.133653 4.9026,1.700899 1.43423,0.733369 2.86846,1.467165 4.30227,2.201167 1.36758,1.467053 2.73506,2.934607 4.10218,4.402332 0.93411,1.36712 1.86793,2.7345 2.80148,4.102172 0.0337,0.600064 0.067,1.200356 0.10006,1.800953 2.03559,2.168487 4.06911,4.33535 6.10324,6.503445 -0.26653,1.46717 -0.53334,2.934607 -0.80042,4.402332 0.63409,2.334799 1.26761,4.668858 1.90101,7.003709 0.40052,0.966977 0.80069,1.934077 1.20062,2.901531 0.13371,1.73423 0.26709,3.46822 0.40022,5.20276 0.30048,0.86697 0.6006,1.73397 0.90048,2.60138 -0.3333,1.46744 -0.66675,2.9346 -1.00053,4.40233 0.10038,1.23398 0.20038,2.4677 0.30016,3.70196 0.0337,0.46673 0.067,0.93355 0.10006,1.40075 -0.24999,0.91738 -0.49998,1.83401 -0.7504,2.75145 -0.26662,0.43344 -0.46663,0.90019 -0.70037,1.35071 -0.56711,0.46699 -1.13365,0.93355 -1.7009,1.40075 -0.66709,0.50025 -1.33376,1.00024 -2.00106,1.50079 -0.8172,0.46685 -1.96743,1.10031 -2.95157,1.65087"
         inkscape:path-effect="#path-effect5859"
         inkscape:connector-curvature="0"
         id="path5857"
         d="m 116.71214,49.164809 c -1.93405,1.550572 -3.88717,3.116436 -5.02135,3.785544 -1.13419,0.669107 -1.54631,0.437816 -1.76364,0.225816 -0.21732,-0.211999 -0.3587,-0.471199 -0.41767,-0.783878 -0.059,-0.31268 -0.0354,-0.678134 -0.16511,-1.356115 -0.12973,-0.677981 -0.41265,-1.668222 -0.50698,-2.800369 -0.0943,-1.132146 -2e-5,-2.405267 0.30662,-3.678922 0.30665,-1.273654 0.82538,-2.546895 1.32063,-4.079881 0.49526,-1.532987 0.96685,-3.325 1.86309,-5.282502 0.89623,-1.957502 2.21642,-4.079226 3.04199,-5.63605 0.82557,-1.556824 1.15567,-2.547116 1.83964,-3.938583 0.68397,-1.391468 1.72136,-3.18333 2.49968,-4.78717 0.77831,-1.60384 1.29703,-3.018518 2.12253,-4.504362 0.8255,-1.485844 1.95719,-3.041921 2.87703,-4.50425 0.91983,-1.462328 1.62717,-2.8298522 2.78287,-4.0562324 1.1557,-1.2263802 2.75891,-2.3109044 4.22126,-3.1128146 1.46235,-0.8019101 2.78261,-1.3205837 4.00908,-2.0046062 1.22647,-0.6840226 2.3582,-1.5328208 3.56102,-1.9336946 1.20281,-0.40087382 2.4761,-0.35371468 4.00906,-0.25937511 1.53296,0.0943396 3.32495,0.23581305 5.21174,0.11787051 1.8868,-0.11794255 3.8675,-0.49521859 5.56551,-0.47160197 1.69801,0.0236166 3.11298,0.44810876 4.25192,0.68752921 1.13894,0.23942046 2.00199,0.29382486 3.08362,0.35436366 1.08162,0.060539 2.38271,0.1272614 3.46647,0.3440277 1.08375,0.2167663 1.95105,0.5837011 3.2016,1.0505699 1.25054,0.4668687 2.885,1.0339252 4.41905,1.684233 1.53405,0.6503077 2.96828,1.3841021 4.36891,2.4845994 1.40064,1.1004973 2.76812,2.5680434 3.91872,3.9854415 1.1506,1.417398 2.08442,2.784778 2.56803,3.768547 0.4836,0.983769 0.51695,1.584058 1.55129,2.968728 1.03433,1.384669 3.06785,3.551533 3.95169,5.369009 0.88383,1.817476 0.61702,3.284914 0.80047,5.186241 0.18345,1.901326 0.81698,4.235383 1.33393,5.886323 0.51695,1.65094 0.91713,2.618038 1.18396,3.968823 0.26684,1.350784 0.40022,3.084774 0.61701,4.385575 0.21679,1.300802 0.5169,2.167803 0.50026,3.335147 -0.0166,1.167344 -0.35008,2.634505 -0.46685,3.985395 -0.11677,1.35089 -0.0167,2.584608 0.05,3.435104 0.0667,0.850496 0.10006,1.317312 -0.008,2.009565 -0.1084,0.692253 -0.35839,1.608882 -0.60032,2.292904 -0.24192,0.684022 -0.47504,1.133605 -0.8754,1.592401 -0.40036,0.458797 -0.9669,0.92536 -1.58406,1.409091 -0.61717,0.483731 -1.28383,0.983728 -2.02818,1.463681 -0.74435,0.479953 -1.89037,1.120943 -2.87456,1.671418"
         style="fill:none;stroke:#000000;stroke-width:1;stroke-linecap:butt;stroke-linejoin:miter;stroke-miterlimit:4;stroke-dasharray:none;stroke-opacity:1" />
      <path
         inkscape:original-d="m 185.48115,56.265849 c -0.26073,2.50195 -0.38838,4.77072 -0.583,7.1565"
         inkscape:path-effect="#path-effect5863"
         inkscape:connector-curvature="0"
         id="path5861"
         d="m 185.48115,56.265849 c -0.2042,2.506556 -0.38864,4.770699 -0.583,7.1565"
         style="fill:none;stroke:#000000;stroke-width:1;stroke-linecap:butt;stroke-linejoin:miter;stroke-miterlimit:4;stroke-dasharray:none;stroke-opacity:1" />
      <path
         inkscape:connector-curvature="0"
         id="path5875"
         d="m 184.06872,52.221168 c -0.44235,-0.134686 -0.54921,-0.24729 -0.7584,-0.799229 -0.53276,-1.405615 -1.2828,-1.947622 -3.63617,-2.627633 -4.83313,-1.396537 -11.00107,-2.371196 -17.09289,-2.701015 -4.63037,-0.250698 -6.18924,0.0164 -7.0731,1.211879 l -0.28735,0.388657 -0.88704,-0.254219 c -1.60267,-0.459304 -5.48984,-1.038112 -7.06541,-1.05205 -0.22223,-0.0019 -0.3838,-0.171122 -0.63282,-0.66253 -0.86634,-1.70965 -3.20264,-2.497203 -11.29633,-3.807915 -4.46028,-0.72231 -9.06912,-1.144857 -12.48729,-1.144857 h -1.27229 l 0.4723,-1.302938 c 0.25978,-0.716616 0.97819,-3.01774 1.59649,-5.11361 2.38486,-8.084055 4.01847,-12.296023 5.83012,-15.031831 0.91841,-1.386917 3.29202,-3.774665 5.02286,-5.052772 2.77326,-2.047869 5.30009,-3.243437 8.6915,-4.112379 6.73989,-1.7268901 11.20142,-1.8712944 16.26738,-0.5265152 2.44549,0.6491602 4.19222,1.4309702 8.88672,3.9775472 3.05236,1.655786 4.96111,2.80593 6.28192,3.785251 1.31833,0.977485 3.21715,2.843834 4.05616,3.986813 1.78596,2.433 3.79085,7.209896 4.56493,10.876521 0.18947,0.897448 0.58216,2.659845 0.87265,3.916436 0.91642,3.964255 0.95315,4.34281 1.02615,10.577634 l 0.0661,5.646068 -0.31565,-0.01027 c -0.17361,-0.0057 -0.54736,-0.08082 -0.83055,-0.167044 z m -2.22461,-3.911833 c 0.25808,-0.499073 0.2637,-3.027013 0.009,-4.062573 -0.43115,-1.753103 -1.34542,-3.216106 -3.14251,-5.028597 -1.0371,-1.045983 -1.39073,-1.307463 -2.47917,-1.833145 -2.35335,-1.136589 -6.65253,-2.09246 -9.40459,-2.091002 -3.60245,0.0019 -6.42751,0.856928 -7.61349,2.304257 -0.80057,0.976987 -1.32111,2.482598 -1.03996,3.007947 0.21846,0.408194 0.84631,0.604083 1.64749,0.514019 0.38965,-0.0438 2.66287,-0.135236 5.05159,-0.203181 3.29435,-0.0937 4.74651,-0.190278 6.01357,-0.399921 0.91874,-0.152013 1.89744,-0.277069 2.1749,-0.277905 1.24321,-0.0037 2.98052,1.000623 4.72209,2.729902 1.10638,1.098577 1.58095,1.955911 2.18858,3.95378 0.47431,1.559515 0.84881,2.072995 1.37306,1.882611 0.16443,-0.05971 0.38917,-0.283001 0.49942,-0.496192 z m -35.41322,-9.004572 c 0.28937,-0.183409 0.22514,-1.391875 -0.1156,-2.174973 -0.43196,-0.992769 -1.31516,-2.217224 -2.34695,-3.25378 -1.10301,-1.108109 -2.26158,-1.726983 -4.85146,-2.591503 -5.14758,-1.718308 -8.20976,-1.533758 -11.63322,0.701098 -1.43096,0.934143 -2.35901,1.951818 -3.33401,3.655973 -1.1104,1.940832 -1.32467,2.496589 -1.12852,2.927096 0.12576,0.27601 0.24524,0.332695 0.70124,0.332695 0.52027,0 0.62282,-0.07397 1.91862,-1.383988 1.58983,-1.607264 2.45352,-2.108457 4.20007,-2.437268 1.54132,-0.290171 2.29013,-0.136517 5.56496,1.141929 2.60023,1.015087 7.40497,2.622468 8.97651,3.00301 0.92252,0.223382 1.76968,0.256349 2.04836,0.07971 z"
         style="opacity:1;fill:#f9ddca;fill-opacity:1;fill-rule:nonzero;stroke:none;stroke-width:0.50507629;stroke-linecap:round;stroke-linejoin:round;stroke-miterlimit:4;stroke-dasharray:none;stroke-dashoffset:0;stroke-opacity:1;paint-order:markers fill stroke" />
      <path
         inkscape:connector-curvature="0"
         id="path5877"
         d="m 134.5374,54.396842 c -4.58124,-0.250058 -8.81995,-0.8334 -12.15485,-1.67278 -2.36647,-0.59563 -3.20242,-1.014085 -3.45355,-1.728745 -0.31887,-0.907466 -0.36722,-3.606623 -0.0909,-5.074637 0.42603,-2.263315 0.7134,-2.497908 3.18767,-2.602228 2.81598,-0.118726 9.05055,0.236752 9.03176,0.514967 -0.003,0.04359 -0.50849,0.312076 -1.12345,0.596635 -0.61496,0.284562 -1.5373,0.848112 -2.04965,1.252337 -0.91175,0.71933 -0.92768,0.742418 -0.7493,1.086233 0.22572,0.435092 2.69558,2.003589 4.03795,2.564321 1.71924,0.718164 2.85487,0.952537 4.96793,1.025295 1.45254,0.05001 2.32249,0.0081 3.4745,-0.167212 0.84524,-0.128661 1.76954,-0.248954 2.054,-0.267319 0.37798,-0.0244 0.59493,-0.130868 0.80597,-0.395539 l 0.28877,-0.362148 -1.07324,-1.034346 c -0.59028,-0.568892 -1.55433,-1.446554 -2.14232,-1.950363 -1.16303,-0.996514 -1.27479,-1.132745 -0.92926,-1.132745 0.34107,0 3.19726,0.655061 4.18092,0.958882 1.55087,0.479017 1.78814,1.098304 1.22081,3.186483 -0.66006,2.429462 -1.57323,4.054943 -2.60229,4.632182 -0.98511,0.552577 -3.45743,0.757626 -6.88148,0.570727 z"
         style="opacity:1;fill:#f9ddca;fill-opacity:1;fill-rule:nonzero;stroke:none;stroke-width:0.50507629;stroke-linecap:round;stroke-linejoin:round;stroke-miterlimit:4;stroke-dasharray:none;stroke-dashoffset:0;stroke-opacity:1;paint-order:markers fill stroke" />
      <path
         inkscape:connector-curvature="0"
         id="path5879"
         d="m 172.95739,59.876839 c -5.29117,-0.423598 -12.45413,-1.760434 -14.3241,-2.673331 -0.55021,-0.268608 -0.92086,-0.555609 -1.10746,-0.857539 -0.41108,-0.665152 -0.65351,-2.023295 -0.75477,-4.228406 -0.0869,-1.892073 -0.0799,-1.968593 0.2293,-2.518754 0.53317,-0.948664 0.72145,-0.997093 4.06354,-1.045255 2.95976,-0.04265 4.8101,0.08741 4.27631,0.30058 -1.20467,0.481094 -2.71018,1.278972 -4.19678,2.224182 -1.59108,1.011637 -1.75343,1.150292 -1.6821,1.436534 0.0957,0.384085 0.33379,0.639337 0.6019,0.645364 0.10937,0.0024 1.1911,0.3174 2.40383,0.699865 3.07161,0.968714 4.1307,1.208403 5.74871,1.301033 2.34613,0.134313 4.39236,-0.441457 5.64433,-1.588211 0.27525,-0.252125 0.50046,-0.517092 0.50046,-0.58882 0,-0.205071 -1.17258,-1.941015 -1.64478,-2.435011 -0.23461,-0.245435 -0.7122,-0.592227 -1.06133,-0.770652 -0.7713,-0.394184 -0.83322,-0.632732 -0.13363,-0.514818 4.88366,0.82314 9.11125,2.101104 9.52828,2.880315 0.37546,0.701559 -0.24184,4.210166 -1.01086,5.74548 -0.87436,1.745639 -1.35393,1.996665 -3.94043,2.062565 -0.91874,0.02341 -2.33193,-0.0104 -3.14042,-0.07512 z"
         style="opacity:1;fill:#f9ddca;fill-opacity:1;fill-rule:nonzero;stroke:none;stroke-width:0.50507629;stroke-linecap:round;stroke-linejoin:round;stroke-miterlimit:4;stroke-dasharray:none;stroke-dashoffset:0;stroke-opacity:1;paint-order:markers fill stroke" />
      <path
         inkscape:connector-curvature="0"
         id="path5881"
         d="m 144.71271,50.778218 c 0.0201,-0.06923 0.14571,-0.49925 0.27909,-0.955596 0.48615,-1.663218 0.55159,-2.745679 0.20841,-3.447116 -0.50148,-1.02498 -1.63819,-1.468958 -6.04964,-2.362882 -2.78992,-0.565341 -6.45681,-1.150842 -9.2208,-1.472311 -3.01209,-0.350324 -5.52181,-0.462886 -7.72953,-0.34667 -2.25421,0.118662 -2.83889,0.269885 -3.3829,0.874947 -0.54782,0.609312 -0.80566,1.266704 -1.08235,2.759631 -0.06,0.323451 -0.12944,0.832175 -0.15442,1.130504 -0.0284,0.33977 -0.0766,0.552751 -0.12895,0.570079 -0.0521,0.01725 -0.0835,-0.03599 -0.0835,-0.141658 0,-0.408408 -0.15403,-0.868294 -0.36969,-1.103807 l -0.22106,-0.241398 -0.96462,-0.02148 -0.96462,-0.02148 -0.0425,-0.546471 c -0.0234,-0.300559 -0.0427,-0.749427 -0.043,-0.997487 l -5.3e-4,-0.451017 1.31965,-1.03e-4 c 1.62235,-1.29e-4 1.66758,-0.01566 2.04096,-0.701479 0.31722,-0.582668 0.49686,-0.772044 0.93639,-0.98719 0.5928,-0.290163 1.2228,-0.38714 2.78564,-0.428796 2.80441,-0.07475 7.48236,0.236582 10.85783,0.722616 5.95268,0.857123 10.12086,1.747518 11.69529,2.498307 0.81988,0.39097 1.14429,0.763043 1.55777,1.786649 0.0954,0.236133 0.41377,0.428075 0.86572,0.521899 0.40688,0.08447 0.40753,0.115051 0.004,0.205629 -0.69487,0.156128 -0.88049,0.361574 -1.20173,1.330126 -0.28544,0.860632 -0.7403,1.883574 -0.85434,1.921378 -0.0654,0.02167 -0.0826,-0.007 -0.0571,-0.09483 z"
         style="opacity:1;fill:#000000;fill-opacity:1;fill-rule:nonzero;stroke:none;stroke-width:0.25253814;stroke-linecap:round;stroke-linejoin:round;stroke-miterlimit:4;stroke-dasharray:none;stroke-dashoffset:0;stroke-opacity:1;paint-order:markers fill stroke" />
      <path
         inkscape:connector-curvature="0"
         id="path5883"
         d="m 133.79867,56.036587 c -2.31266,-0.05889 -5.16247,-0.34793 -7.19471,-0.729718 -1.726,-0.324255 -4.11792,-0.961443 -5.99902,-1.598086 -1.81418,-0.613998 -2.66366,-1.097251 -2.97259,-1.691042 -0.20461,-0.393282 -0.23891,-0.705073 -0.24226,-2.201858 -0.001,-0.552198 -0.01,-1.296339 -0.0193,-1.653645 -0.009,-0.357304 -0.014,-0.653818 -0.0102,-0.658919 0.004,-0.0051 0.0245,0.0054 0.0461,0.02331 0.0341,0.02834 0.0438,0.02572 0.0743,-0.02027 0.0193,-0.02906 0.0418,-0.05282 0.0499,-0.05282 0.008,5e-6 0.015,0.385363 0.0153,0.85635 5.3e-4,1.049121 0.0517,1.626415 0.21475,2.423652 0.2088,1.020731 0.47377,1.506056 1.02271,1.873208 0.53612,0.358579 1.69533,0.762796 3.43957,1.199377 3.58455,0.897213 8.08213,1.480085 13.13467,1.702213 2.48282,0.109157 4.26645,0.0062 5.57072,-0.321609 0.83308,-0.209373 1.36929,-0.516358 1.91481,-1.096243 0.69389,-0.737608 1.20367,-1.609365 1.67082,-2.857198 0.13252,-0.353986 0.13917,-0.365924 0.19996,-0.358958 0.0352,0.004 0.0826,-0.01064 0.10766,-0.03332 0.12728,-0.115184 0.0824,-0.01119 -0.62798,1.455335 -0.518,1.06938 -0.78195,1.561746 -1.0686,1.993313 -0.50756,0.764169 -1.30863,1.366869 -2.01234,1.514009 -0.23625,0.0494 -0.54856,0.07945 -1.22222,0.117623 -1.75047,0.09918 -4.60397,0.153183 -6.09198,0.11529 z"
         style="opacity:1;fill:#000000;fill-opacity:1;fill-rule:nonzero;stroke:none;stroke-width:0.08928572;stroke-linecap:round;stroke-linejoin:round;stroke-miterlimit:4;stroke-dasharray:none;stroke-dashoffset:0;stroke-opacity:1;paint-order:markers fill stroke" />
      <path
         inkscape:connector-curvature="0"
         id="path5885"
         d="m 155.62315,49.58963 c -0.0906,-0.177503 -0.35033,-0.402479 -0.61212,-0.530124 -0.39859,-0.194345 -1.95312,-0.692608 -2.8554,-0.915223 -0.41877,-0.103322 -0.51133,-0.139719 -0.4673,-0.183745 0.0456,-0.04559 1.31843,0.238088 2.56063,0.570688 0.91727,0.245599 1.14,0.269255 1.40466,0.149206 0.19624,-0.08902 0.22186,-0.113805 0.58656,-0.567537 0.60622,-0.754205 0.829,-0.853286 2.18696,-0.97265 0.6189,-0.0544 2.932,-0.05386 3.94222,7.94e-4 3.36041,0.182231 6.16186,0.474953 9.03705,0.944282 0.56962,0.09298 1.0497,0.18253 1.06685,0.198998 0.0534,0.05124 0.008,0.06006 -0.15345,0.02988 -1.49143,-0.278632 -4.34358,-0.603086 -6.44253,-0.73289 -2.73357,-0.16905 -6.27765,-0.194056 -7.40333,-0.05224 -1.129,0.14224 -1.70893,0.435189 -2.15141,1.086771 -0.12104,0.178231 -0.46126,0.826037 -0.53319,1.015227 -0.0458,0.120515 -0.089,0.109707 -0.1662,-0.04157 z"
         style="opacity:1;fill:#000000;fill-opacity:1;fill-rule:nonzero;stroke:none;stroke-width:0.12626907;stroke-linecap:round;stroke-linejoin:round;stroke-miterlimit:4;stroke-dasharray:none;stroke-dashoffset:0;stroke-opacity:1;paint-order:markers fill stroke" />
      <path
         inkscape:connector-curvature="0"
         id="path5887"
         d="m 181.713,56.473811 c 0,-0.01781 0.0593,-0.278403 0.13185,-0.579083 0.30577,-1.267804 0.41823,-2.042441 0.41887,-2.8853 5.3e-4,-0.749088 -0.0276,-0.910717 -0.23581,-1.35147 -0.15771,-0.333905 -0.54714,-0.718133 -0.96483,-0.951958 -0.77419,-0.433398 -1.95388,-0.84182 -3.90867,-1.353227 -0.40331,-0.105514 -0.73907,-0.209175 -0.74613,-0.230355 -0.007,-0.02117 0.0124,-0.03851 0.0432,-0.03851 0.0961,0 2.03802,0.485519 2.72786,0.682035 2.35138,0.669859 2.8197,1.014939 3.26834,2.40827 0.13043,0.405087 0.26337,0.616002 0.48502,0.769479 0.36047,0.249606 1.42652,0.512787 2.43147,0.600274 0.22116,0.01926 0.25772,0.03098 0.24353,0.07814 -0.009,0.03052 -0.12463,0.491477 -0.25654,1.024345 -0.13191,0.532869 -0.25229,0.982655 -0.26751,0.999522 -0.0166,0.01839 -0.40587,-0.0266 -0.97254,-0.112421 -1.51324,-0.229169 -1.72744,-0.221592 -1.97697,0.06994 -0.10421,0.121745 -0.15298,0.243826 -0.31751,0.794826 -0.024,0.08036 -0.10366,0.138372 -0.10366,0.07549 z"
         style="opacity:1;fill:#000000;fill-opacity:1;fill-rule:nonzero;stroke:none;stroke-width:0.12626907;stroke-linecap:round;stroke-linejoin:round;stroke-miterlimit:4;stroke-dasharray:none;stroke-dashoffset:0;stroke-opacity:1;paint-order:markers fill stroke" />
      <path
         inkscape:connector-curvature="0"
         id="path5889"
         d="m 175.54054,61.242502 c -2.42414,-0.07787 -5.49396,-0.33923 -7.85919,-0.669134 -3.43825,-0.479565 -7.75789,-1.439796 -9.1874,-2.042303 -0.56779,-0.239315 -1.2727,-0.702043 -1.19216,-0.782584 0.011,-0.01103 0.0996,0.03214 0.19686,0.09596 0.30503,0.200191 0.4702,0.287313 0.83246,0.439086 2.37006,0.992968 9.28517,2.263439 14.37824,2.641624 1.90888,0.141743 3.9394,0.181872 4.66052,0.09211 1.02479,-0.127569 1.89578,-0.434435 2.4346,-0.857756 0.36705,-0.288369 0.73896,-0.822404 1.1463,-1.645991 0.12951,-0.26184 0.24875,-0.476073 0.26499,-0.476073 0.0446,0 0.0421,0.0092 -0.14181,0.514668 -0.45585,1.252963 -0.64425,1.635172 -0.94437,1.915922 -0.53395,0.499486 -1.27163,0.715023 -2.65948,0.777063 -0.77414,0.0346 -0.77153,0.03461 -1.92956,-0.0026 z"
         style="opacity:1;fill:#000000;fill-opacity:1;fill-rule:nonzero;stroke:none;stroke-width:0.12626907;stroke-linecap:round;stroke-linejoin:round;stroke-miterlimit:4;stroke-dasharray:none;stroke-dashoffset:0;stroke-opacity:1;paint-order:markers fill stroke" />
      <path
         inkscape:connector-curvature="0"
         id="path5891"
         d="m 143.95447,37.94296 c -2.15922,-0.629912 -6.08838,-1.96738 -8.24629,-2.806996 -2.92536,-1.138224 -3.37158,-1.257347 -4.70981,-1.257347 -1.85465,0 -3.68993,0.616876 -4.93831,1.659871 -1.00319,0.838142 -1.01265,0.590063 -0.0275,-0.721053 0.72344,-0.9628 1.72224,-1.760231 3.08845,-2.465774 1.68833,-0.871889 2.47808,-1.070705 4.2095,-1.05972 1.68766,0.01072 2.906,0.242174 5.21176,0.990145 2.02206,0.655947 3.56395,1.403377 4.36829,2.117532 1.39984,1.242888 3.01241,3.910171 2.34685,3.881832 -0.0919,-0.0039 -0.67819,-0.156231 -1.30294,-0.33849 z"
         style="opacity:1;fill:#4f2001;fill-opacity:1;fill-rule:nonzero;stroke:none;stroke-width:0.50507629;stroke-linecap:round;stroke-linejoin:round;stroke-miterlimit:4;stroke-dasharray:none;stroke-dashoffset:0;stroke-opacity:1;paint-order:markers fill stroke" />
      <path
         inkscape:connector-curvature="0"
         id="path5893"
         d="m 180.15759,44.201901 c -0.80508,-1.603827 -3.55976,-4.060512 -5.27097,-4.700756 -1.185,-0.443368 -1.81874,-0.455835 -4.3765,-0.0861 -2.03,0.293447 -2.84416,0.343501 -5.58706,0.343501 -1.76593,0 -3.62569,0.06438 -4.13279,0.143054 -0.5071,0.07868 -1.07809,0.123783 -1.26887,0.100227 l -0.34686,-0.04283 0.41603,-0.830305 c 0.25096,-0.500874 0.6299,-0.999693 0.95507,-1.257239 1.60486,-1.271066 5.69715,-1.800111 9.22047,-1.192011 2.07398,0.357955 4.78455,1.122325 5.92483,1.670777 2.13413,1.026475 4.72003,4.205047 5.08673,6.252586 0.13771,0.768964 -0.11479,0.605716 -0.62008,-0.400905 z"
         style="opacity:1;fill:#4f2001;fill-opacity:1;fill-rule:nonzero;stroke:none;stroke-width:0.50507629;stroke-linecap:round;stroke-linejoin:round;stroke-miterlimit:4;stroke-dasharray:none;stroke-dashoffset:0;stroke-opacity:1;paint-order:markers fill stroke" />
      <path
         inkscape:connector-curvature="0"
         id="path5895"
         d="m 185.58727,61.774873 c 0.037,-0.312373 0.1548,-1.663687 0.26177,-3.002921 0.1399,-1.751605 0.30783,-2.883916 0.59834,-4.034633 0.22212,-0.879814 0.40385,-1.633247 0.40385,-1.674297 0,-0.04105 -0.11374,-0.07463 -0.25276,-0.07463 -0.24308,0 -0.25538,-0.226446 -0.32139,-5.913339 -0.0807,-6.951911 -0.0815,-6.959719 -1.35852,-12.528259 -0.26126,-1.139238 -0.62018,-2.70592 -0.79763,-3.481517 -0.59139,-2.585029 -2.15733,-6.480289 -3.56974,-8.8797 -1.22138,-2.074878 -3.0311,-4.032067 -5.33905,-5.774121 -2.33424,-1.761892 -10.26199,-6.057072 -13.21697,-7.1608286 -3.4926,-1.3045704 -7.68819,-1.8852329 -11.35333,-1.5712889 -3.20378,0.2744285 -8.0313,1.2984586 -10.56277,2.2406133 -4.91481,1.8291702 -9.71348,5.6474252 -12.05613,9.5929312 -1.62423,2.735546 -3.28697,7.118819 -5.24671,13.831197 -0.48282,1.653731 -1.21685,4.01115 -1.63118,5.238708 l -0.75333,2.231922 -0.66767,0.143189 c -1.00019,0.214503 -1.84416,0.731491 -2.29808,1.407737 l -0.3989,0.594273 -1.43658,0.0029 c -1.18655,0.0024 -1.43657,0.03782 -1.43657,0.203388 0,0.115972 -0.12098,0.200451 -0.28707,0.200451 -0.27742,0 -0.28419,0.0371 -0.20126,1.102487 0.0472,0.606369 0.0862,1.365078 0.0866,1.68602 8e-4,0.51757 0.031,0.575633 0.26808,0.513643 0.19824,-0.05184 0.26727,-0.0041 0.26727,0.184865 0,0.227944 0.10549,0.254759 1.00226,0.254759 h 1.00226 v 0.837803 0.837806 l -1.61078,1.266944 c -2.09753,1.649786 -3.58758,2.658221 -3.9923,2.701901 -0.41651,0.04495 -0.60731,-0.329591 -0.79908,-1.568593 -0.0796,-0.514495 -0.23984,-1.446596 -0.35602,-2.071341 -0.2413,-1.297543 -0.18075,-3.07128 0.14857,-4.352266 0.11208,-0.435969 0.74768,-2.446401 1.41246,-4.467627 1.28165,-3.896841 1.91937,-5.366501 3.74217,-8.624072 0.61833,-1.105035 1.4843,-2.787671 1.92437,-3.739195 0.44008,-0.951521 1.17964,-2.45283 1.64347,-3.336237 0.84031,-1.600441 1.85556,-3.663275 3.27614,-6.656647 0.41135,-0.866772 1.34296,-2.490433 2.07023,-3.608139 0.72728,-1.117705 1.79329,-2.783887 2.36892,-3.702626 1.80125,-2.8749257 3.65241,-4.4231959 7.54437,-6.3099264 1.06573,-0.5166439 2.6393,-1.3576273 3.49681,-1.8688526 2.47204,-1.47376885 2.49507,-1.47807891 7.3276,-1.3709729 3.38032,0.074919 4.41793,0.051919 6.08039,-0.13479201 3.02729,-0.33999487 4.32446,-0.30454335 6.66727,0.18221321 1.26512,0.2628503 2.92026,0.4861851 4.54358,0.6130872 2.96724,0.2319655 3.35218,0.3196855 6.56257,1.4955017 5.77678,2.1157618 7.19726,2.9135626 9.83345,5.5228543 2.34462,2.3207005 3.7406,4.1929315 4.93226,6.6149195 0.76017,1.545002 1.18154,2.196772 2.41907,3.741774 2.98051,3.721037 3.27525,4.349594 3.46903,7.398041 0.15897,2.500781 0.57862,4.672388 1.41708,7.333044 0.95503,3.030548 1.19939,4.004317 1.43743,5.72811 0.1208,0.874797 0.38077,2.561095 0.57771,3.747325 l 0.35808,2.156788 -0.26138,1.785438 c -0.20171,1.37786 -0.26275,2.532843 -0.26739,5.059492 -0.006,3.20481 -0.0137,3.295991 -0.36705,4.311356 -0.49695,1.427805 -0.86116,1.923158 -2.20696,3.001571 -1.44025,1.154107 -3.7884,2.70968 -4.09028,2.70968 -0.0406,0 -0.0436,-0.255575 -0.007,-0.567947 z"
         style="opacity:1;fill:#2c1709;fill-opacity:1;fill-rule:nonzero;stroke:none;stroke-width:0.50507629;stroke-linecap:round;stroke-linejoin:round;stroke-miterlimit:4;stroke-dasharray:none;stroke-dashoffset:0;stroke-opacity:1;paint-order:markers fill stroke" />
      <path
         inkscape:connector-curvature="0"
         id="path5897"
         d="m 111.48577,71.865864 c -0.77422,-0.393528 -0.93088,-0.833697 -1.08951,-3.061076 -0.10697,-1.502142 -0.22183,-2.212824 -0.47201,-2.920645 -0.59861,-1.693593 -0.71481,-2.249887 -0.71481,-3.422047 0,-1.968002 0.48245,-4.054554 1.57253,-6.801014 0.33548,-0.84524 0.60484,-1.627272 0.59857,-1.737849 -0.006,-0.110578 0.21455,-0.310954 0.49071,-0.445281 0.27616,-0.134326 1.18005,-0.753761 2.00865,-1.376524 0.8286,-0.622765 1.53123,-1.107617 1.56139,-1.077449 0.0302,0.03017 -0.15269,0.782796 -0.40635,1.672513 -1.19172,4.179888 -1.47027,6.635814 -1.42756,12.586293 0.0182,2.535721 0.0434,4.994915 0.056,5.464876 l 0.0229,0.854477 -0.47251,0.164288 c -0.93203,0.324061 -1.25,0.34236 -1.72792,0.09944 z"
         style="opacity:1;fill:#f9ddca;fill-opacity:1;fill-rule:nonzero;stroke:none;stroke-width:0.50507629;stroke-linecap:round;stroke-linejoin:round;stroke-miterlimit:4;stroke-dasharray:none;stroke-dashoffset:0;stroke-opacity:1;paint-order:markers fill stroke" />
      <path
         inkscape:connector-curvature="0"
         id="path5899"
         d="m 181.57266,80.525867 c -0.294,-0.138973 -0.7003,-0.393229 -0.90289,-0.565013 l -0.36835,-0.312332 0.46098,-1.217184 c 0.25354,-0.669454 0.8229,-2.565913 1.26524,-4.214357 0.44234,-1.648442 1.36448,-4.648711 2.04919,-6.667265 l 1.24494,-3.670096 1.55198,-0.935442 c 0.85359,-0.514496 2.07343,-1.317567 2.71076,-1.784604 0.63734,-0.46704 1.18781,-0.820137 1.22329,-0.784659 0.11522,0.115215 -0.349,6.541471 -0.56691,7.847835 -0.47805,2.865935 -1.13244,4.467897 -2.69856,6.60613 -0.54188,0.739828 -1.24055,1.88636 -1.55261,2.547853 -1.36608,2.895771 -2.79616,3.915343 -4.41706,3.149134 z"
         style="opacity:1;fill:#f9ddca;fill-opacity:1;fill-rule:nonzero;stroke:none;stroke-width:0.50507629;stroke-linecap:round;stroke-linejoin:round;stroke-miterlimit:4;stroke-dasharray:none;stroke-dashoffset:0;stroke-opacity:1;paint-order:markers fill stroke" />
      <path
         inkscape:connector-curvature="0"
         id="path5903"
         d="m 142.97021,102.69615 c -1.28316,-0.20219 -3.29979,-0.77882 -4.21318,-1.20473 -1.01733,-0.47436 -2.72476,-2.11897 -3.6006,-3.468118 -1.34792,-2.076333 -2.91374,-5.610764 -4.16029,-9.390732 l -0.56284,-1.706731 0.60806,-0.965962 c 0.33444,-0.531281 0.75835,-1.146371 0.94202,-1.36687 l 0.33395,-0.400902 0.30614,0.369507 c 0.16837,0.203229 0.51661,0.431956 0.77386,0.508283 0.25725,0.07633 2.51233,0.193318 5.0113,0.259977 6.65959,0.177646 10.56254,0.675672 16.23824,2.072039 3.61242,0.888749 4.39046,0.996061 4.88282,0.673455 0.19278,-0.126312 0.36609,-0.209823 0.38513,-0.185576 0.0191,0.02426 0.18805,0.274452 0.37556,0.556008 l 0.34094,0.511922 -0.33381,0.821515 c -1.06682,2.625466 -2.88011,5.228151 -5.7456,8.246856 -2.2916,2.414139 -4.29824,3.753029 -6.61376,4.412879 -1.12547,0.32073 -3.71415,0.45474 -4.96794,0.25718 z"
         style="opacity:1;fill:#2b0000;fill-opacity:1;fill-rule:nonzero;stroke:none;stroke-width:0.50507629;stroke-linecap:round;stroke-linejoin:round;stroke-miterlimit:4;stroke-dasharray:none;stroke-dashoffset:0;stroke-opacity:1;paint-order:markers fill stroke" />
      <path
         inkscape:connector-curvature="0"
         id="path5905"
         d="m 159.99496,86.027771 c -0.60419,-0.736838 -2.13425,-2.195946 -2.74154,-2.614416 -2.12865,-1.466789 -4.13324,-1.932054 -11.24479,-2.609919 -3.16178,-0.301376 -6.1505,-0.396293 -7.5055,-0.238363 -1.94192,0.22634 -4.02608,0.920453 -5.58422,1.859777 -0.47624,0.287105 -0.88907,0.49883 -0.91739,0.470501 -0.10777,-0.107762 0.61196,-1.137187 1.13469,-1.622946 0.67523,-0.627476 1.5499,-1.144075 2.96547,-1.751476 1.93428,-0.829974 3.53798,-1.15166 5.70196,-1.143757 1.18577,0.0043 1.55456,0.04601 2.74033,0.309706 1.27059,0.282556 1.54528,0.309486 3.77976,0.370562 2.58749,0.07072 3.15493,0.151122 4.8192,0.682821 1.198,0.382735 2.89753,1.118012 3.82701,1.655699 1.01645,0.588002 2.24429,1.821058 2.70681,2.718308 0.4814,0.933878 0.86594,2.22061 0.66363,2.22061 -0.0515,0 -0.20692,-0.138197 -0.34542,-0.307107 z"
         style="opacity:1;fill:#e39898;fill-opacity:1;fill-rule:nonzero;stroke:none;stroke-width:0.35714287;stroke-linecap:round;stroke-linejoin:round;stroke-miterlimit:4;stroke-dasharray:none;stroke-dashoffset:0;stroke-opacity:1;paint-order:markers fill stroke" />
      <path
         inkscape:connector-curvature="0"
         id="path5907"
         d="m 142.65409,106.45241 c -2.86353,-0.32195 -5.73485,-1.36712 -7.58428,-2.7607 -2.32495,-1.75191 -3.25491,-4.213252 -4.08976,-10.82447 -0.10381,-0.822082 0.12186,-0.564761 0.6711,0.765209 2.10302,5.092438 4.46001,8.073111 7.22792,9.140531 3.47251,1.33914 7.60917,1.49085 10.46592,0.38383 0.87754,-0.34005 2.02344,-0.953 2.89686,-1.54956 1.41031,-0.96325 3.99851,-3.592208 5.72056,-5.810652 0.92171,-1.187397 1.01711,-1.293934 1.09184,-1.21938 0.1245,0.124201 -2.0905,4.423 -2.96844,5.761042 -2.35731,3.59272 -3.59872,4.83384 -5.45406,5.45277 -1.93543,0.64564 -5.49375,0.94064 -7.97766,0.66138 z"
         style="opacity:1;fill:#e39898;fill-opacity:1;fill-rule:nonzero;stroke:none;stroke-width:0.35714287;stroke-linecap:round;stroke-linejoin:round;stroke-miterlimit:4;stroke-dasharray:none;stroke-dashoffset:0;stroke-opacity:1;paint-order:markers fill stroke" />
      <path
         transform="scale(0.26458333)"
         inkscape:connector-curvature="0"
         id="path5640"
         d="m 515.37671,440.08057 c -1.07846,-0.81773 -2.77699,-1.48679 -3.77452,-1.48679 -1.10405,0 -2.3693,-1.32979 -3.23376,-3.39874 -0.96527,-2.31021 -2.32699,-3.62636 -4.25175,-4.10945 -1.55741,-0.39089 -4.34956,-2.04343 -6.20476,-3.67232 -1.85521,-1.62889 -4.26032,-2.96162 -5.3447,-2.96162 -2.22407,0 -5.3764,-6.04592 -5.16764,-9.91109 0.0694,-1.28423 -0.48869,-3.55707 -1.24011,-5.05077 -0.75143,-1.4937 -1.1638,-4.33208 -0.91639,-6.3075 0.31021,-2.47684 -0.0477,-4.00459 -1.15298,-4.92192 -0.88155,-0.73162 -1.60282,-2.1837 -1.60282,-3.22683 0,-1.04314 -0.84048,-2.73711 -1.86774,-3.76436 -1.27524,-1.27525 -1.72471,-2.84235 -1.41684,-4.93996 0.40995,-2.79318 0.11016,-3.18466 -3.3008,-4.31037 -6.095,-2.01154 -11.05948,-0.7355 -17.94672,4.61293 -3.37919,2.62417 -6.83484,4.82044 -7.67921,4.88057 -1.71804,0.12236 -3.13167,-8.20012 -7.61679,-44.84245 -7.7325,-63.17267 -10.47153,-108.84775 -7.63264,-127.27922 1.23645,-8.02763 4.07221,-20.20305 4.70547,-20.20305 0.25502,0 1.91068,1.09173 3.67926,2.42606 4.41806,3.33327 9.41759,5.26967 22.40771,8.67885 17.02669,4.46855 25.52784,5.44688 47.47796,5.46386 27.69956,0.0214 28.97485,-0.70513 38.0573,-21.68153 l 4.34696,-10.03953 h 3.66127 c 4.35676,0 12.56399,1.47267 19.71677,3.53789 l 5.17314,1.49364 0.45014,10.92508 c 0.78694,19.09979 4.51333,23.48367 24.14792,28.40864 18.13092,4.54781 33.68341,6.47001 53.10734,6.56376 21.2885,0.10275 21.41126,0.0441 26.46879,-12.65458 l 3.40371,-8.54614 3.49315,0.4078 3.49316,0.40781 -0.54909,4.67856 c -0.30199,2.57321 -0.83985,8.08783 -1.19523,12.25471 -0.40555,4.75511 -2.13282,11.90173 -4.63875,19.1929 -2.19593,6.38921 -6.02656,18.82513 -8.5125,27.63538 -2.48594,8.81024 -5.68916,18.81075 -7.11828,22.22336 -17.42902,41.61897 -37.99122,85.39536 -45.74943,97.39935 -3.92353,6.07072 -4.19622,6.28145 -6.37932,4.92973 -3.35724,-2.07871 -14.26837,-4.04713 -18.95167,-3.41897 -6.41504,0.86044 -14.05256,6.33633 -16.44532,11.79081 -1.99554,4.54901 -5.73685,9.77342 -9.80486,13.69165 -1.15364,1.11117 -3.78708,3.67687 -5.8521,5.70156 -2.06501,2.0247 -4.89098,4.00208 -6.27994,4.39421 -1.38896,0.39212 -4.11637,1.75362 -6.06092,3.02554 -4.75087,3.10753 -17.47834,4.31643 -21.80339,2.07096 -1.61994,-0.84103 -3.73167,-1.28001 -4.69274,-0.9755 -0.96106,0.30451 -4.59761,0.68697 -8.08121,0.84991 -3.48361,0.16295 -7.01569,0.57699 -7.84907,0.92011 -0.83337,0.34312 -2.3976,-0.0453 -3.47606,-0.86294 z m 54.39028,-35.86593 c 5.65139,-1.75289 7.95428,-3.15086 12.15354,-7.37782 12.22999,-12.31064 27.77981,-42.16947 29.47577,-56.59948 0.77395,-6.5851 -1.07462,-18.82366 -3.5871,-23.74851 -1.05216,-2.06242 -3.95589,-5.6329 -6.45272,-7.9344 -9.23392,-8.51152 -22.21621,-13.0523 -41.59253,-14.54772 -33.41252,-2.57868 -36.97043,-2.31276 -49.58175,3.70567 -9.58657,4.57496 -14.39401,9.93715 -18.60332,20.75003 l -3.31265,8.50952 1.6876,16.66751 c 2.88274,28.47124 5.88083,39.07689 13.41566,47.45742 5.27082,5.86243 17.3717,12.26248 26.59496,14.06585 3.05571,0.59747 6.46498,1.29765 7.57615,1.55595 5.0607,1.17644 25.47428,-0.40973 32.22639,-2.50402 z m -5.32892,-134.88782 c 1.68221,-0.8699 5.10371,-3.14275 7.60336,-5.05076 5.84169,-4.45907 8.94315,-4.44848 14.19684,0.0485 5.89134,5.04277 8.4249,5.7976 12.54045,3.7362 1.86449,-0.93388 3.79743,-2.87382 4.29542,-4.31096 1.27332,-3.67462 -0.1605,-14.0342 -2.04234,-14.75633 -2.83408,-1.08754 -3.74599,1.23928 -2.47066,6.3041 1.00259,3.9816 0.94104,5.10231 -0.39191,7.13666 -0.86971,1.32733 -2.05603,2.41333 -2.63628,2.41333 -0.58025,0 -3.56613,-2.04556 -6.6353,-4.54569 -3.21796,-2.62133 -6.62393,-4.54569 -8.04554,-4.54569 -3.55986,0 -8.75175,2.38842 -14.1471,6.50808 -7.53699,5.75491 -12.81503,4.69757 -17.00596,-3.4068 -3.03976,-5.87824 -11.98122,-8.0433 -16.97978,-4.11143 -1.41262,1.11117 -3.23654,2.0203 -4.05315,2.0203 -3.94758,0 -5.81486,-7.64795 -3.32324,-13.61123 1.30332,-3.1193 1.37503,-4.08511 0.35152,-4.73469 -2.08617,-1.32401 -2.66177,-1.01592 -4.40686,2.35871 -1.95718,3.78478 -2.17254,11.65151 -0.41279,15.07822 3.13522,6.10509 8.09,7.39832 13.7111,3.57868 4.784,-3.25081 7.85427,-2.47239 11.57429,2.93447 5.75843,8.3696 11.39593,10.51516 18.27793,6.95634 z"
         style="opacity:1;fill:#f9ddca;fill-opacity:1;fill-rule:nonzero;stroke:none;stroke-width:3.81789947;stroke-linecap:round;stroke-linejoin:round;stroke-miterlimit:4;stroke-dasharray:none;stroke-dashoffset:0;stroke-opacity:1;paint-order:markers fill stroke" />
      <path
         transform="scale(0.26458333)"
         inkscape:connector-curvature="0"
         id="path5642"
         d="m 518.41226,501.14543 c -3.36347,-2.50787 -4.88811,-2.95265 -10.12127,-2.95265 -3.53909,0 -7.00928,-0.58386 -8.15381,-1.37191 -1.09589,-0.75454 -3.67768,-1.68062 -5.73731,-2.05795 -5.42658,-0.99416 -12.92414,-4.49711 -16.74596,-7.82391 -1.82498,-1.5886 -3.71227,-2.88836 -4.19397,-2.88836 -0.4817,0 -3.00128,-2.84106 -5.59907,-6.31346 -4.1581,-5.55804 -4.66364,-6.77637 -4.22507,-10.18235 0.40404,-3.13785 0.064,-4.2464 -1.79949,-5.8667 -1.26371,-1.09878 -2.88388,-3.77405 -3.60036,-5.94502 -0.71649,-2.17098 -2.37158,-4.95139 -3.67798,-6.17868 -1.30639,-1.2273 -2.37526,-3.25904 -2.37526,-4.51499 0,-1.25594 -0.53869,-3.56319 -1.19708,-5.12722 -1.11853,-2.6571 -3.83665,-17.84654 -3.8982,-21.78404 -0.12684,-8.11319 0.56079,-13.90182 1.98553,-16.71465 0.93226,-1.84055 5.2507,-6.02013 9.65432,-9.34391 6.49578,-4.90291 8.67976,-6.01378 11.82317,-6.01378 3.59339,0 3.85561,0.20205 3.85561,2.97084 0,1.63396 0.44163,3.24378 0.98139,3.57738 2.14173,1.32366 5.1079,9.95096 4.51248,13.12483 -0.419,2.23347 -0.12177,3.57977 0.99493,4.50654 0.87583,0.72688 1.59242,2.77186 1.59242,4.54439 0,1.77254 1.11814,5.54058 2.48475,8.37342 1.92744,3.99541 3.1451,5.29567 5.42898,5.7973 1.61933,0.35566 3.96755,1.73592 5.21826,3.06724 1.25071,1.33132 3.50583,2.69114 5.01139,3.02181 1.81967,0.39967 3.29559,1.77184 4.40248,4.09301 1.21413,2.54605 2.32003,3.49178 4.08316,3.49178 1.32991,0 3.02426,0.73047 3.76521,1.62325 1.04621,1.26061 2.4843,1.49327 6.43714,1.04142 11.92601,-1.36326 17.26846,-1.37326 19.89285,-0.0372 1.94134,0.9883 5.0071,1.19841 11.11168,0.76154 6.8385,-0.4894 9.28907,-1.13902 12.97631,-3.43987 2.50012,-1.5601 5.82377,-3.15232 7.38588,-3.53827 1.56211,-0.38595 3.82825,-2.03814 5.03587,-3.67153 1.20762,-1.63339 3.73187,-3.91923 5.60946,-5.07964 1.87758,-1.16041 4.04958,-3.63152 4.82667,-5.49135 0.77709,-1.85984 1.88651,-3.38152 2.46537,-3.38152 0.57887,0 2.21717,-2.54401 3.64068,-5.65336 4.60046,-10.04872 14.09009,-13.76656 25.97823,-10.17773 3.44562,1.04017 4.09626,1.74581 5.28411,5.73074 1.16011,3.89185 1.13981,5.00165 -0.14138,7.72763 -0.82283,1.75072 -1.49605,3.92525 -1.49605,4.83229 0,0.90705 -1.54261,2.55934 -3.42804,3.67177 -1.88542,1.11243 -4.01407,3.48358 -4.73034,5.26923 -0.71627,1.78565 -2.35563,4.53158 -3.64303,6.10207 -1.28739,1.57048 -2.34072,3.88651 -2.34072,5.14674 0,1.26022 -0.8676,3.07648 -1.928,4.03613 -1.06041,0.95965 -2.44618,2.9958 -3.07951,4.52479 -0.70936,1.71254 -2.86821,3.61401 -5.62247,4.95213 -3.2477,1.57785 -4.64211,2.93922 -5.09649,4.97569 -0.64739,2.90151 -3.02954,9.03284 -4.27203,10.99558 -4.80171,7.58523 -14.02124,16.89771 -15.98356,16.1447 -2.83821,-1.08913 -6.42408,1.33059 -8.07079,5.44612 -1.04792,2.61901 -2.40254,4.23096 -3.79023,4.51022 -1.18771,0.23901 -3.52318,0.71513 -5.18993,1.05801 -9.06089,1.86406 -15.05349,2.63494 -23.24153,2.98979 -8.76614,0.3799 -9.24444,0.28621 -13.0594,-2.5583 z"
         style="opacity:1;fill:#2c1709;fill-opacity:1;fill-rule:nonzero;stroke:none;stroke-width:3.81789947;stroke-linecap:round;stroke-linejoin:round;stroke-miterlimit:4;stroke-dasharray:none;stroke-dashoffset:0;stroke-opacity:1;paint-order:markers fill stroke" />
    </g>
  </g>
</svg>
