<?xml version="1.0" encoding="UTF-8" standalone="no"?>
<!-- Created with Inkscape (http://www.inkscape.org/) -->

<svg
   width="37mm"
   height="13mm"
   viewBox="0 0 37 13"
   version="1.1"
   id="svg1"
   inkscape:version="1.3.2 (091e20e, 2023-11-25)"
   sodipodi:docname="HAAM_Blue.svg"
   inkscape:export-filename="png/HAAM_Blue_Sml.png"
   inkscape:export-xdpi="320"
   inkscape:export-ydpi="320"
   xmlns:inkscape="http://www.inkscape.org/namespaces/inkscape"
   xmlns:sodipodi="http://sodipodi.sourceforge.net/DTD/sodipodi-0.dtd"
   xmlns="http://www.w3.org/2000/svg"
   xmlns:svg="http://www.w3.org/2000/svg">
  <sodipodi:namedview
     id="namedview1"
     pagecolor="#ffffff"
     bordercolor="#000000"
     borderopacity="0.25"
     inkscape:showpageshadow="2"
     inkscape:pageopacity="0.0"
     inkscape:pagecheckerboard="false"
     inkscape:deskcolor="#d1d1d1"
     inkscape:document-units="cm"
     showgrid="true"
     inkscape:zoom="4.9679362"
     inkscape:cx="49.416899"
     inkscape:cy="29.388461"
     inkscape:window-width="1920"
     inkscape:window-height="999"
     inkscape:window-x="0"
     inkscape:window-y="25"
     inkscape:window-maximized="1"
     inkscape:current-layer="g2">
    <inkscape:grid
       id="grid1"
       units="mm"
       originx="0"
       originy="0"
       spacingx="0.99999997"
       spacingy="0.99999997"
       empcolor="#0099e5"
       empopacity="0.30196078"
       color="#0099e5"
       opacity="0.14901961"
       empspacing="5"
       dotted="false"
       gridanglex="30"
       gridanglez="30"
       visible="true" />
  </sodipodi:namedview>
  <defs
     id="defs1" />
  <g
     inkscape:label="Layer 1"
     inkscape:groupmode="layer"
     id="layer1">
    <g
       id="g2"
       transform="matrix(2.5477856,0,0,2.5477856,-7.5388411,-5.0362856)">
      <g
         data-name="Ebene 1-2"
         id="g50"
         transform="matrix(0.26458333,0,0,0.26458333,2.4832406,6.8932085)" />
      <g
         id="g3"
         transform="translate(-0.17363762,-0.14501582)">
        <path
           style="fill:#436eee;stroke:#436eee;stroke-width:0.401868px;stroke-linecap:round;stroke-linejoin:round"
           inkscape:connector-curvature="0"
           id="path1"
           d="M 8.812196,5.7258738 H 7.6226688 c -0.080374,0 -0.1607468,0.056262 -0.1848591,0.144672 L 7.1645398,6.7064305 H 6.6983736 l 1.4306481,-4.066898 h 0.1607468 c 0,0 1.4306481,4.066898 1.4306481,4.066898 H 9.2542507 L 8.9649058,5.8464341 C 8.9407943,5.7740978 8.8845323,5.7339113 8.812196,5.7339113 Z M 7.8075276,5.3240066 h 0.8037351 c 0.088411,0 0.1527096,-0.096448 0.1205603,-0.1848593 L 8.3299553,3.9335455 c -0.040187,-0.1205603 -0.2009336,-0.1205603 -0.2411203,0 L 7.6869675,5.1391473 c -0.03215,0.088411 0.03215,0.1848593 0.1205601,0.1848593 z"
           class="cls-3" />
        <path
           style="fill:#436eee;stroke:#436eee;stroke-width:0.401868px;stroke-linecap:round;stroke-linejoin:round"
           inkscape:connector-curvature="0"
           id="path2"
           d="m 14.764151,2.6395325 0.779623,2.9818557 c 0.02411,0.096448 0.144672,0.096448 0.168784,0 l 0.78766,-2.9818557 H 16.95031 V 6.6983929 H 16.604704 V 5.1150355 L 16.636853,3.4111181 15.76882,6.6983929 H 15.503587 C 15.214243,5.6053137 14.924898,4.5122345 14.635553,3.4191553 l 0.03215,1.6958802 V 6.6983929 H 14.322097 V 2.6395325 h 0.450091 z"
           class="cls-3" />
        <path
           style="fill:#436eee;stroke:#436eee;stroke-width:0.401868px;stroke-linecap:round;stroke-linejoin:round"
           inkscape:connector-curvature="0"
           id="path4"
           d="m 12.624054,5.7258738 h -1.189528 c -0.08037,0 -0.160747,0.056262 -0.184859,0.144672 l -0.27327,0.8358847 h -0.466166 l 1.430648,-4.066898 h 0.160747 c 0,0 1.430649,4.066898 1.430649,4.066898 H 13.066109 L 12.776764,5.8464341 C 12.752655,5.7740978 12.69639,5.7339113 12.624054,5.7339113 Z M 11.619385,5.3240066 h 0.803735 c 0.08841,0 0.152709,-0.096448 0.12056,-0.1848593 L 12.141813,3.9335455 c -0.04019,-0.1205603 -0.200934,-0.1205603 -0.241121,0 l -0.401867,1.2056018 c -0.03215,0.088411 0.03215,0.1848593 0.12056,0.1848593 z"
           class="cls-3" />
        <g
           id="g1">
          <g
             data-name="Ebene 1-2"
             id="g63"
             transform="matrix(0.24177446,0,0,0.24177446,2.2921704,2.6970116)"
             style="display:inline">
            <g
               id="g62"
               transform="matrix(0.91194983,0,0,0.91194983,0.87049533,0.96852862)">
              <g
                 id="g53"
                 transform="matrix(1.0839262,0,0,1.0839262,6.1398718,0.0201412)"
                 style="fill:#436eee;fill-opacity:1">
                <circle
                   style="fill:#436eee;fill-opacity:1;stroke:#436eee;stroke-width:0;stroke-linecap:round;stroke-linejoin:round;stroke-miterlimit:7.5;stroke-dasharray:none;stroke-opacity:1"
                   id="path61"
                   cx="4.3574357"
                   cy="11.775326"
                   r="0.3057923" />
                <circle
                   style="fill:#436eee;fill-opacity:1;stroke:#436eee;stroke-width:0;stroke-linecap:round;stroke-linejoin:round;stroke-miterlimit:7.5;stroke-dasharray:none;stroke-opacity:1"
                   id="circle61"
                   cx="4.3574357"
                   cy="10.674009"
                   r="0.3057923" />
                <circle
                   style="fill:#436eee;fill-opacity:1;stroke:#436eee;stroke-width:0;stroke-linecap:round;stroke-linejoin:round;stroke-miterlimit:7.5;stroke-dasharray:none;stroke-opacity:1"
                   id="circle62"
                   cx="4.3574357"
                   cy="9.5726938"
                   r="0.3057923" />
                <circle
                   style="fill:#436eee;fill-opacity:1;stroke:#436eee;stroke-width:0;stroke-linecap:round;stroke-linejoin:round;stroke-miterlimit:7.5;stroke-dasharray:none;stroke-opacity:1"
                   id="circle67"
                   cx="4.3574357"
                   cy="8.4713774"
                   r="0.3057923" />
              </g>
            </g>
          </g>
          <g
             id="g27"
             transform="matrix(0.26458333,0,0,0.26458333,2.0463588,2.44612)"
             style="display:inline">
            <g
               id="g15"
               transform="matrix(1.0692048,0,0,1.0692048,-0.60316622,-0.13901553)"
               style="fill:#436eee;fill-opacity:1">
              <path
                 style="fill:#436eee;fill-opacity:1;stroke-width:1.00659"
                 inkscape:connector-curvature="0"
                 id="path13"
                 d="m 14.838512,15.868873 -8.4136356,-5.3e-5 c -0.049475,0 2.8135476,-2.467751 3.8228526,-3.317641 0.197905,-0.163833 0.621598,-0.167486 0.829396,-0.0037 z"
                 class="cls-1"
                 sodipodi:nodetypes="csccc" />
            </g>
          </g>
          <path
             style="display:inline;fill:#436eee;stroke:#436eee;stroke-width:0.127536;stroke-linecap:round;stroke-miterlimit:10;stroke-dasharray:none;stroke-opacity:1"
             inkscape:connector-curvature="0"
             id="path39"
             d="m 3.7041261,3.2923461 c -3.97e-4,0.102984 -0.01053,0.486089 0.0037,0.712192 0.01298,0.205534 0.0327,0.364629 0.126648,0.463382 0.242428,0.254829 0.572849,0.26046 1.074992,0.276669 0.04605,0.0015 0.0358,-0.06236 -0.0038,-0.06362 -0.137651,-0.0044 -0.447701,-0.02193 -0.539999,-0.04649 -0.212614,-0.05657 -0.312742,-0.109006 -0.406659,-0.229206 -0.06744,-0.08631 -0.116111,-0.200729 -0.121347,-0.400557 -0.0066,-0.251534 -0.0024,-0.625216 -0.0022,-0.719246 2.41e-4,-0.116027 0.0028,-0.56489 0.0022,-0.608007 -7.41e-4,-0.04879 0.0086,-0.16715 -0.02,-0.167625 -0.02049,-3.39e-4 -0.06825,-7.75e-4 -0.09582,-1.36e-4 -0.02439,5.5e-4 -0.01609,0.113889 -0.01606,0.164731 -2.62e-4,0.205969 -0.0013,0.514921 -0.0017,0.617904 z"
             class="cls-2"
             sodipodi:nodetypes="zsssssssssssszz" />
          <path
             style="display:inline;fill:#436eee;stroke:#436eee;stroke-width:0.127536;stroke-linecap:round;stroke-miterlimit:10;stroke-dasharray:none;stroke-opacity:1"
             inkscape:connector-curvature="0"
             id="path58"
             d="m 6.0900571,6.1304895 c 3.97e-4,-0.102984 0.01053,-0.486089 -0.0037,-0.7121924 -0.01298,-0.205534 -0.0327,-0.364629 -0.126647,-0.463382 -0.108841,-0.114409 -0.237995,-0.18185 -0.39282,-0.216044 -0.301752,-0.06664 -0.412518,-0.04963 -0.680105,-0.05856 -0.04605,-0.0015 -0.03767,0.0574 0.0017,0.06155 0.08081,0.0085 0.447701,0.02193 0.54,0.04649 0.212613,0.05657 0.312741,0.109006 0.406659,0.229206 0.06744,0.08631 0.116111,0.200729 0.121346,0.400557 0.0066,0.2515344 0.0024,0.6252174 0.0022,0.7192474 -2.41e-4,0.116026 -0.0028,0.564889 -0.0022,0.608005 7.41e-4,0.04879 -0.01484,0.0886 0.0138,0.08908 0.02049,3.44e-4 0.08494,4.76e-4 0.115455,1.34e-4 0.0075,-8.1e-5 0.0027,-0.04981 0.0026,-0.08618 -1.95e-4,-0.205969 0.0013,-0.514921 0.0017,-0.617904 z"
             class="cls-2"
             sodipodi:nodetypes="zssssssssssssszz" />
          <path
             style="display:inline;fill:#436eee;stroke:#436eee;stroke-width:0;stroke-linecap:round;stroke-miterlimit:10;stroke-dasharray:none;stroke-opacity:1"
             inkscape:connector-curvature="0"
             id="path60"
             d="m 6.1539132,3.2815811 c 3.97e-4,0.100501 0.01053,0.474368 -0.0037,0.695019 -0.01298,0.200578 -0.0327,0.355837 -0.1266481,0.452208 -0.242427,0.248686 -0.589388,0.254095 -1.074992,0.269998 -0.04212,0.0014 -0.03712,-0.05017 -0.0057,-0.06038 0.0029,-9.52e-4 0.0061,-0.0015 0.0095,-0.0017 0.07151,-0.0053 0.383623,-0.01726 0.54,-0.04537 0.2162,-0.03885 0.312741,-0.106378 0.406659,-0.223679 0.06744,-0.08423 0.116111,-0.195889 0.121346,-0.390899 0.0066,-0.245469 0.0024,-0.610141 0.0022,-0.701904 -2.4e-4,-0.113229 -0.0028,-0.551268 -0.0022,-0.593345 7.41e-4,-0.04762 0.0054,-0.190927 0.0055,-0.209234 1.06e-4,-0.01247 0.01695,-0.02571 0.03035,-0.02613 0.01453,-4.66e-4 0.04614,3.6e-5 0.0608,-5.45e-4 0.01416,-5.64e-4 0.03412,0.01257 0.03464,0.02554 6.35e-4,0.01565 5.82e-4,0.157801 5.55e-4,0.207418 2.63e-4,0.201002 0.0013,0.502504 0.0017,0.603004 z"
             class="cls-2"
             sodipodi:nodetypes="zssssssssssssssszz" />
          <path
             style="display:inline;fill:#436eee;stroke:#436eee;stroke-width:0;stroke-linecap:round;stroke-miterlimit:10;stroke-dasharray:none;stroke-opacity:1"
             inkscape:connector-curvature="0"
             id="path79"
             d="m 3.6402691,6.0824905 c -3.97e-4,-0.0981 -0.01053,-0.463054 0.0037,-0.6784414 0.01298,-0.195794 0.0327,-0.34735 0.126647,-0.441423 0.242428,-0.242754 0.589386,-0.248117 1.074992,-0.263558 0.04605,-0.0015 0.208441,0.04583 -0.0038,0.0606 -0.139423,0.0097 -0.318509,0.01055 -0.539999,0.04428 -0.216836,0.03302 -0.312741,0.103841 -0.406659,0.218345 -0.06744,0.08223 -0.116111,0.191217 -0.121346,0.381575 -0.0066,0.2396144 -0.0024,0.5955884 -0.0022,0.6851624 2.4e-4,0.110529 0.0028,0.53812 0.0022,0.579194 -7.4e-4,0.04648 -0.0054,0.186373 -0.0055,0.204243 -1.06e-4,0.01218 -0.01695,0.02509 -0.03035,0.02551 -0.01453,4.76e-4 -0.04614,-3.6e-5 -0.0608,5.56e-4 -0.01416,5.29e-4 -0.03412,-0.01227 -0.03464,-0.02493 -6.35e-4,-0.01528 -5.82e-4,-0.154037 -5.55e-4,-0.20247 -2.63e-4,-0.196208 -0.0013,-0.490519 -0.0017,-0.588622 z"
             class="cls-2"
             sodipodi:nodetypes="zsssssssssssssszz" />
          <path
             style="display:inline;fill:#436eee;fill-opacity:1;stroke:#436eee;stroke-width:0.0517234px;stroke-linecap:round;stroke-miterlimit:10;stroke-opacity:1"
             inkscape:connector-curvature="0"
             id="path21"
             d="m 5.6264971,2.6760171 c -0.03824,10e-7 -1.825239,0.0021 -1.825239,0.0021 -0.04215,0 -0.06587,0.01787 -0.06587,0.03899 0,0.02112 0.02898,0.03899 0.06587,0.03899 0,0 1.789795,-10e-7 1.825807,0 0.03582,1e-6 0.0753,0.0032 0.075,-0.01313 -2.45e-4,-0.01353 -9e-4,-0.03784 -8.74e-4,-0.05376 3.4e-5,-0.01748 -0.03646,-0.01315 -0.0747,-0.01315 z"
             class="cls-2"
             sodipodi:nodetypes="zsssssszz" />
          <path
             id="path5"
             style="display:inline;fill:#436eee;fill-opacity:1;stroke:#436eee;stroke-width:0.0517234px;stroke-linecap:round;stroke-miterlimit:10;stroke-opacity:1"
             class="cls-2"
             d="m 4.4954841,4.3010131 c -0.0088,1.32e-4 -0.01835,5.29e-4 -0.02791,5.29e-4 -0.01408,1e-6 -0.360391,1.64e-4 -0.67231,5.3e-4 v 0.07958 c 0.312282,0 0.659556,0 0.672827,0 0.03582,1e-6 0.07523,0.0029 0.07493,-0.01344 -2.44e-4,-0.01353 -0.0011,-0.03782 -10e-4,-0.05374 2.6e-5,-0.01311 -0.02012,-0.01383 -0.04651,-0.01344 z" />
          <path
             id="path7"
             style="display:inline;fill:#436eee;fill-opacity:1;stroke:#436eee;stroke-width:0.0517234px;stroke-linecap:round;stroke-miterlimit:10;stroke-opacity:1"
             class="cls-2"
             d="m 4.7290611,3.9759691 c -0.0088,1.32e-4 -0.01835,5.29e-4 -0.02791,5.29e-4 -0.02075,0 -0.504895,4.76e-4 -0.990637,10e-4 v 0.07906 c 0.486334,0 0.971603,-1e-6 0.991154,0 0.03582,1e-6 0.07523,0.0029 0.07493,-0.01344 -2.45e-4,-0.01353 -5.56e-4,-0.03782 -5.3e-4,-0.05374 2.6e-5,-0.01311 -0.02063,-0.01383 -0.04702,-0.01344 z" />
          <path
             id="path9"
             style="display:inline;fill:#436eee;fill-opacity:1;stroke:#436eee;stroke-width:0.0517234px;stroke-linecap:round;stroke-miterlimit:10;stroke-opacity:1"
             class="cls-2"
             d="m 4.9600551,3.6509241 c -0.0088,1.32e-4 -0.01835,5.29e-4 -0.02791,5.29e-4 -0.0262,0 -0.719737,9.53e-4 -1.25057,0.0016 v 0.07803 c 0.531494,-1e-6 1.226409,-1e-6 1.251086,0 0.03582,10e-7 0.07523,0.0034 0.07493,-0.01292 -2.44e-4,-0.01353 -5.55e-4,-0.03782 -5.29e-4,-0.05374 2.5e-5,-0.01311 -0.02063,-0.01383 -0.04702,-0.01344 z" />
          <path
             id="path11"
             style="display:inline;fill:#436eee;fill-opacity:1;stroke:#436eee;stroke-width:0.0517234px;stroke-linecap:round;stroke-miterlimit:10;stroke-opacity:1"
             class="cls-2"
             d="m 5.1925991,3.3258791 c -0.0088,1.32e-4 -0.01835,5.29e-4 -0.02791,5.29e-4 -0.03094,0 -1.029229,10e-4 -1.476913,0.0016 v 0.07803 c 0.448249,-1e-6 1.448287,-1e-6 1.477429,0 0.03582,1e-6 0.07523,0.0034 0.07493,-0.01292 -2.45e-4,-0.01353 -0.0011,-0.03782 -10e-4,-0.05374 2.5e-5,-0.01311 -0.02012,-0.01383 -0.04651,-0.01344 z" />
          <path
             id="path15"
             style="display:inline;fill:#436eee;fill-opacity:1;stroke:#436eee;stroke-width:0.0517234px;stroke-linecap:round;stroke-miterlimit:10;stroke-opacity:1"
             class="cls-2"
             d="m 5.3972381,3.0008341 c -0.03594,1e-6 -1.525987,0.0018 -1.715658,0.0021 v 0.07803 c 0.189913,0 1.682323,-1e-6 1.716175,0 0.03582,10e-7 0.07523,0.0034 0.07493,-0.01292 -2.44e-4,-0.01353 -0.0011,-0.03782 -10e-4,-0.05374 3.4e-5,-0.01748 -0.03618,-0.01344 -0.07441,-0.01344 z" />
        </g>
      </g>
    </g>
  </g>
</svg>
