<?xml version="1.0" encoding="UTF-8" standalone="no"?>
<!-- Created with Inkscape (http://www.inkscape.org/) -->

<svg
   width="37mm"
   height="12mm"
   viewBox="0 0 37 12"
   version="1.1"
   id="svg1"
   inkscape:version="1.3.2 (091e20e, 2023-11-25)"
   sodipodi:docname="HAAM_White.svg"
   inkscape:export-filename="png/HAAM_White_Sml.png"
   inkscape:export-xdpi="320"
   inkscape:export-ydpi="320"
   xmlns:inkscape="http://www.inkscape.org/namespaces/inkscape"
   xmlns:sodipodi="http://sodipodi.sourceforge.net/DTD/sodipodi-0.dtd"
   xmlns="http://www.w3.org/2000/svg"
   xmlns:svg="http://www.w3.org/2000/svg">
  <sodipodi:namedview
     id="namedview1"
     pagecolor="#ffffff"
     bordercolor="#000000"
     borderopacity="0.25"
     inkscape:showpageshadow="2"
     inkscape:pageopacity="0.0"
     inkscape:pagecheckerboard="false"
     inkscape:deskcolor="#d1d1d1"
     inkscape:document-units="cm"
     showgrid="true"
     inkscape:zoom="5.2550009"
     inkscape:cx="49.191238"
     inkscape:cy="46.431962"
     inkscape:window-width="1920"
     inkscape:window-height="999"
     inkscape:window-x="0"
     inkscape:window-y="25"
     inkscape:window-maximized="1"
     inkscape:current-layer="layer1">
    <inkscape:grid
       id="grid1"
       units="mm"
       originx="0"
       originy="0"
       spacingx="0.99999997"
       spacingy="0.99999997"
       empcolor="#0099e5"
       empopacity="0.30196078"
       color="#0099e5"
       opacity="0.14901961"
       empspacing="5"
       dotted="false"
       gridanglex="30"
       gridanglez="30"
       visible="true" />
  </sodipodi:namedview>
  <defs
     id="defs1" />
  <g
     inkscape:label="Layer 1"
     inkscape:groupmode="layer"
     id="layer1">
    <g
       data-name="Ebene 1-2"
       id="g50"
       transform="matrix(0.6741016,0,0,0.6741016,-1.2120764,19.026132)" />
    <g
       id="g1"
       transform="translate(-3.5723827e-7,-7.0000003)">
      <g
         id="g3"
         transform="translate(-0.44239128,-0.36946937)">
        <path
           style="fill:#ffffff;stroke:#ffffff;stroke-width:1.02387px;stroke-linecap:round;stroke-linejoin:round"
           inkscape:connector-curvature="0"
           id="path1"
           d="m 14.912745,16.052013 h -3.03066 c -0.204775,0 -0.409548,0.143343 -0.470981,0.368594 l -0.696233,2.129655 H 9.5271791 L 13.172164,8.1886774 h 0.409548 c 0,0 3.644985,10.3615846 3.644985,10.3615846 h -1.187691 l -0.737189,-2.191087 c -0.06143,-0.184297 -0.204774,-0.286684 -0.389072,-0.286684 z m -2.559679,-1.023871 h 2.047744 c 0.225251,0 0.389072,-0.245729 0.307162,-0.470982 l -1.023873,-3.071615 c -0.102387,-0.307162 -0.511935,-0.307162 -0.614323,0 l -1.023872,3.071615 c -0.08191,0.225253 0.08191,0.470982 0.307162,0.470982 z"
           class="cls-3" />
        <path
           style="fill:#ffffff;stroke:#ffffff;stroke-width:1.02387px;stroke-linecap:round;stroke-linejoin:round"
           inkscape:connector-curvature="0"
           id="path2"
           d="m 30.077051,8.1886774 1.986312,7.5971296 c 0.06142,0.245729 0.368593,0.245729 0.430026,0 l 2.006789,-7.5971296 h 1.146737 V 18.529784 h -0.880531 v -4.034056 l 0.08191,-4.341216 -2.211563,8.375272 H 31.960976 C 31.223788,15.744852 30.4866,12.959921 29.749411,10.174989 l 0.08191,4.320739 v 4.034056 H 28.950792 V 8.1886774 h 1.146736 z"
           class="cls-3" />
        <path
           style="fill:#ffffff;stroke:#ffffff;stroke-width:1.02387px;stroke-linecap:round;stroke-linejoin:round"
           inkscape:connector-curvature="0"
           id="path4"
           d="M 24.624541,16.052013 H 21.59388 c -0.204774,0 -0.40955,0.143343 -0.470981,0.368594 l -0.696234,2.129655 H 19.238974 L 22.883958,8.1886774 h 0.409549 c 0,0 3.644987,10.3615846 3.644987,10.3615846 h -1.187691 l -0.737189,-2.191087 c -0.06142,-0.184297 -0.204776,-0.286684 -0.389073,-0.286684 z m -2.55968,-1.023871 h 2.047744 c 0.225252,0 0.389071,-0.245729 0.307162,-0.470982 l -1.023872,-3.071615 c -0.102388,-0.307162 -0.511937,-0.307162 -0.614324,0 l -1.023872,3.071615 c -0.08191,0.225253 0.08191,0.470982 0.307162,0.470982 z"
           class="cls-3" />
      </g>
      <g
         id="g2"
         transform="translate(-0.44239128,-0.36946937)">
        <g
           data-name="Ebene 1-2"
           id="g63"
           transform="matrix(0.61598949,0,0,0.61598949,-1.6988825,8.335122)"
           style="fill:#ffffff;stroke:#ffffff">
          <g
             id="g62"
             transform="matrix(0.91194983,0,0,0.91194983,0.87049533,0.96852862)"
             style="fill:#ffffff;stroke:#ffffff">
            <g
               id="g53"
               transform="matrix(1.0839262,0,0,1.0839262,6.1398718,0.0201412)"
               style="fill:#ffffff;fill-opacity:1;stroke:#ffffff">
              <circle
                 style="fill:#ffffff;fill-opacity:1;stroke:#ffffff;stroke-width:0;stroke-linecap:round;stroke-linejoin:round;stroke-miterlimit:7.5;stroke-dasharray:none;stroke-opacity:1"
                 id="path61"
                 cx="4.3574357"
                 cy="11.775326"
                 r="0.3057923" />
              <circle
                 style="fill:#ffffff;fill-opacity:1;stroke:#ffffff;stroke-width:0;stroke-linecap:round;stroke-linejoin:round;stroke-miterlimit:7.5;stroke-dasharray:none;stroke-opacity:1"
                 id="circle61"
                 cx="4.3574357"
                 cy="10.674009"
                 r="0.3057923" />
              <circle
                 style="fill:#ffffff;fill-opacity:1;stroke:#ffffff;stroke-width:0;stroke-linecap:round;stroke-linejoin:round;stroke-miterlimit:7.5;stroke-dasharray:none;stroke-opacity:1"
                 id="circle62"
                 cx="4.3574357"
                 cy="9.5726938"
                 r="0.3057923" />
              <circle
                 style="fill:#ffffff;fill-opacity:1;stroke:#ffffff;stroke-width:0;stroke-linecap:round;stroke-linejoin:round;stroke-miterlimit:7.5;stroke-dasharray:none;stroke-opacity:1"
                 id="circle67"
                 cx="4.3574357"
                 cy="8.4713774"
                 r="0.3057923" />
            </g>
          </g>
        </g>
        <g
           data-name="Ebene 1-2"
           id="g29"
           style="display:inline;fill:#ffffff"
           transform="matrix(0.6741016,0,0,0.6741016,-2.3251576,7.6959038)">
          <g
             id="g27"
             style="fill:#ffffff">
            <g
               id="g15"
               transform="matrix(1.0692048,0,0,1.0692048,-0.60316622,-0.13901553)"
               style="fill:#ffffff;fill-opacity:1">
              <path
                 style="fill:#ffffff;fill-opacity:1;stroke-width:1.00659"
                 inkscape:connector-curvature="0"
                 id="path13"
                 d="m 14.838512,15.868873 -8.4136356,-5.3e-5 c -0.049475,0 2.8135476,-2.467751 3.8228526,-3.317641 0.197905,-0.163833 0.621598,-0.167486 0.829396,-0.0037 z"
                 class="cls-1"
                 sodipodi:nodetypes="csccc" />
            </g>
          </g>
        </g>
        <path
           style="display:inline;fill:#ffffff;stroke:#ffffff;stroke-width:0.324934;stroke-linecap:round;stroke-miterlimit:10;stroke-dasharray:none;stroke-opacity:1"
           inkscape:connector-curvature="0"
           id="path39"
           d="m 1.898478,9.8519065 c -0.00101,0.2623815 -0.026828,1.2384505 0.00943,1.8145125 0.03307,0.523657 0.083313,0.928997 0.322672,1.180598 0.6176546,0.64925 1.4594964,0.663596 2.7388491,0.704893 0.1173256,0.0038 0.091211,-0.15888 -0.00968,-0.16209 C 4.6090391,13.37861 3.8190982,13.33395 3.5839427,13.271374 3.0422478,13.127245 2.7871431,12.99365 2.5478627,12.687406 2.3760401,12.467506 2.2520368,12.175991 2.2386966,11.666873 2.2218816,11.026018 2.2325866,10.073956 2.2330866,9.8343879 2.2337006,9.538776 2.2402166,8.3951693 2.2386966,8.2853164 2.2368066,8.16101 2.2606076,7.8594541 2.1877406,7.8582439 2.1355366,7.8573802 2.0138542,7.8562739 1.9436118,7.8578974 c -0.06214,0.0014 -0.040994,0.2901647 -0.040917,0.4196992 -6.675e-4,0.5247649 -0.00331,1.3119083 -0.00433,1.574287 z"
           class="cls-2"
           sodipodi:nodetypes="zsssssssssssszz" />
        <path
           style="display:inline;fill:#ffffff;stroke:#ffffff;stroke-width:0.324934;stroke-linecap:round;stroke-miterlimit:10;stroke-dasharray:none;stroke-opacity:1"
           inkscape:connector-curvature="0"
           id="path58"
           d="m 7.9773187,17.082887 c 0.00101,-0.262381 0.026828,-1.23845 -0.00943,-1.814513 C 7.9348216,14.744717 7.8845793,14.339377 7.6452225,14.087776 7.3679189,13.796286 7.0388622,13.624461 6.6444013,13.537342 5.8756019,13.367558 5.5933939,13.410895 4.9116396,13.388144 c -0.1173255,-0.0038 -0.095975,0.146243 0.00433,0.156816 0.2058866,0.02166 1.1406462,0.05587 1.3758043,0.118446 0.5416923,0.144129 0.796797,0.277724 1.0360799,0.583968 0.1718227,0.2199 0.2958259,0.511415 0.3091636,1.020534 0.016815,0.640855 0.00611,1.592919 0.00561,1.832488 -6.14e-4,0.295609 -0.00713,1.439216 -0.00561,1.549066 0.00189,0.124307 -0.037809,0.225734 0.035159,0.226957 0.052204,8.76e-4 0.216409,0.0012 0.2941546,3.41e-4 0.019108,-2.06e-4 0.00688,-0.126905 0.00662,-0.219568 -4.968e-4,-0.524765 0.00331,-1.311908 0.00433,-1.574287 z"
           class="cls-2"
           sodipodi:nodetypes="zssssssssssssszz" />
        <path
           style="display:inline;fill:#ffffff;stroke:#ffffff;stroke-width:0;stroke-linecap:round;stroke-miterlimit:10;stroke-dasharray:none;stroke-opacity:1"
           inkscape:connector-curvature="0"
           id="path60"
           d="m 8.1400103,9.8244796 c 0.00101,0.2560554 0.026828,1.2085884 -0.00943,1.7707594 -0.03307,0.51103 -0.083313,0.906596 -0.3226722,1.152129 -0.617652,0.633599 -1.5016342,0.64738 -2.7388491,0.687897 -0.1073127,0.0036 -0.094574,-0.127822 -0.014522,-0.153835 0.00739,-0.0024 0.015542,-0.0038 0.024204,-0.0043 0.1821921,-0.0135 0.9773891,-0.04397 1.3758042,-0.115593 0.5508312,-0.09898 0.796797,-0.271028 1.0360799,-0.569886 0.1718227,-0.2146 0.295826,-0.499083 0.3091636,-0.995927 0.016815,-0.625402 0.00611,-1.554508 0.00561,-1.7883004 -6.115e-4,-0.2884832 -0.00713,-1.4045127 -0.00561,-1.5117159 0.00189,-0.1213255 0.013758,-0.486441 0.014013,-0.5330833 2.7e-4,-0.031771 0.043185,-0.065504 0.077325,-0.066574 0.037019,-0.00119 0.1175549,9.17e-5 0.1549054,-0.00139 0.036077,-0.00144 0.08693,0.032026 0.088255,0.06507 0.00162,0.039873 0.00148,0.4020431 0.00141,0.5284566 6.701e-4,0.51211 0.00331,1.2802725 0.00433,1.5363249 z"
           class="cls-2"
           sodipodi:nodetypes="zssssssssssssssszz" />
        <path
           style="display:inline;fill:#ffffff;stroke:#ffffff;stroke-width:0;stroke-linecap:round;stroke-miterlimit:10;stroke-dasharray:none;stroke-opacity:1"
           inkscape:connector-curvature="0"
           id="path79"
           d="m 1.7357841,16.960596 c -0.00101,-0.249938 -0.026828,-1.179762 0.00943,-1.728523 0.03307,-0.498841 0.083313,-0.884973 0.3226694,-1.124651 0.6176546,-0.618485 1.5016292,-0.632149 2.7388491,-0.671489 0.1173256,-0.0038 0.531063,0.116765 -0.00968,0.154395 -0.35522,0.02471 -0.8114927,0.02688 -1.3758017,0.112816 -0.5524517,0.08413 -0.796797,0.264565 -1.03608,0.556297 -0.1718226,0.209504 -0.2958259,0.487179 -0.3091636,0.972171 -0.016815,0.610486 -0.00611,1.517431 -0.00561,1.745647 6.115e-4,0.281604 0.00713,1.371014 0.00561,1.475662 -0.00189,0.118421 -0.013758,0.474838 -0.014013,0.520367 -2.7e-4,0.03103 -0.043185,0.06392 -0.077325,0.06499 -0.037019,0.0012 -0.1175548,-9.1e-5 -0.1549053,0.0014 -0.036077,0.0013 -0.086931,-0.03126 -0.088255,-0.06352 -0.00162,-0.03893 -0.00148,-0.392454 -0.00141,-0.515851 -6.701e-4,-0.499896 -0.00331,-1.249737 -0.00433,-1.499682 z"
           class="cls-2"
           sodipodi:nodetypes="zsssssssssssssszz" />
        <path
           style="display:inline;fill:#ffffff;fill-opacity:1;stroke:#ffffff;stroke-width:0.13178px;stroke-linecap:round;stroke-miterlimit:10;stroke-opacity:1"
           inkscape:connector-curvature="0"
           id="path21"
           d="m 6.7962672,8.2816323 c -0.097427,2.6e-6 -4.6503177,0.00535 -4.6503177,0.00535 -0.1073891,0 -0.1678226,0.045529 -0.1678226,0.099338 0,0.053809 0.073835,0.099338 0.1678226,0.099338 0,0 4.560014,-2.5e-6 4.6517648,0 0.091262,2.6e-6 0.1918483,0.00815 0.191084,-0.033452 -6.243e-4,-0.034472 -0.00229,-0.096408 -0.00223,-0.136969 8.66e-5,-0.044535 -0.092892,-0.033503 -0.1903196,-0.033503 z"
           class="cls-2"
           sodipodi:nodetypes="zsssssszz" />
        <path
           id="path5"
           style="display:inline;fill:#ffffff;fill-opacity:1;stroke:#ffffff;stroke-width:0.13178px;stroke-linecap:round;stroke-miterlimit:10;stroke-opacity:1"
           class="cls-2"
           d="m 3.9146886,12.421774 c -0.022421,3.36e-4 -0.046752,0.0013 -0.071109,0.0013 -0.035873,2e-6 -0.918199,4.17e-4 -1.7129018,0.0014 v 0.202753 c 0.7956276,0 1.6804073,0 1.714219,0 0.091262,2e-6 0.1916699,0.0074 0.1909055,-0.03424 -6.216e-4,-0.03447 -0.0028,-0.09636 -0.00255,-0.136918 6.62e-5,-0.0334 -0.051262,-0.03524 -0.1184976,-0.03424 z" />
        <path
           id="path7"
           style="display:inline;fill:#ffffff;fill-opacity:1;stroke:#ffffff;stroke-width:0.13178px;stroke-linecap:round;stroke-miterlimit:10;stroke-opacity:1"
           class="cls-2"
           d="m 4.5097927,11.593631 c -0.02242,3.37e-4 -0.046752,0.0013 -0.071109,0.0013 -0.052867,0 -1.2863642,0.0012 -2.5239307,0.0025 v 0.201428 c 1.2390748,0 2.4754361,-3e-6 2.5252479,0 0.091262,2e-6 0.1916699,0.0074 0.1909056,-0.03424 -6.243e-4,-0.03447 -0.00142,-0.09636 -0.00135,-0.136918 6.63e-5,-0.0334 -0.052561,-0.03524 -0.1197968,-0.03424 z" />
        <path
           id="path9"
           style="display:inline;fill:#ffffff;fill-opacity:1;stroke:#ffffff;stroke-width:0.13178px;stroke-linecap:round;stroke-miterlimit:10;stroke-opacity:1"
           class="cls-2"
           d="m 5.0983159,10.765486 c -0.022421,3.37e-4 -0.046752,0.0013 -0.071109,0.0013 -0.066752,0 -1.8337356,0.0024 -3.1861843,0.0041 v 0.198803 c 1.3541328,-2e-6 3.1246272,-2e-6 3.1874989,0 0.091262,3e-6 0.1916699,0.0087 0.1909056,-0.03292 -6.217e-4,-0.03447 -0.00141,-0.09636 -0.00135,-0.136918 6.37e-5,-0.0334 -0.052561,-0.03524 -0.1197969,-0.03424 z" />
        <path
           id="path11"
           style="display:inline;fill:#ffffff;fill-opacity:1;stroke:#ffffff;stroke-width:0.13178px;stroke-linecap:round;stroke-miterlimit:10;stroke-opacity:1"
           class="cls-2"
           d="m 5.6907881,9.9373414 c -0.02242,3.363e-4 -0.046752,0.00135 -0.071109,0.00135 -0.078829,0 -2.6222548,0.00255 -3.7628577,0.00408 v 0.1988036 c 1.1420424,-2e-6 3.6899248,-2e-6 3.7641724,0 0.091262,3e-6 0.1916699,0.0087 0.1909055,-0.03292 -6.242e-4,-0.03447 -0.0028,-0.09636 -0.00255,-0.1369183 6.37e-5,-0.033401 -0.051261,-0.035236 -0.1184975,-0.034242 z" />
        <path
           id="path15"
           style="display:inline;fill:#ffffff;fill-opacity:1;stroke:#ffffff;stroke-width:0.13178px;stroke-linecap:round;stroke-miterlimit:10;stroke-opacity:1"
           class="cls-2"
           d="m 6.2121644,9.1091964 c -0.091567,2.6e-6 -3.8878877,0.00459 -4.3711287,0.00535 v 0.1988037 c 0.4838576,0 4.2861983,-2.6e-6 4.3724459,0 0.091262,2.5e-6 0.1916699,0.00866 0.1909056,-0.032917 -6.217e-4,-0.034472 -0.0028,-0.096357 -0.00255,-0.136918 8.66e-5,-0.044535 -0.092179,-0.034242 -0.1895807,-0.034242 z" />
      </g>
    </g>
  </g>
</svg>
