<?xml version="1.0" encoding="UTF-8" standalone="no"?>
<!-- Created with Inkscape (http://www.inkscape.org/) -->

<svg
   width="47mm"
   height="8mm"
   viewBox="0 0 47 8"
   version="1.1"
   id="svg1"
   inkscape:version="1.3.2 (091e20e, 2023-11-25)"
   sodipodi:docname="Logo_With_HAAM_Blue_and_Description.svg"
   inkscape:export-filename="png/Logo_With_HAAM_Blue_and_Description_Sml.png"
   inkscape:export-xdpi="320"
   inkscape:export-ydpi="320"
   xmlns:inkscape="http://www.inkscape.org/namespaces/inkscape"
   xmlns:sodipodi="http://sodipodi.sourceforge.net/DTD/sodipodi-0.dtd"
   xmlns="http://www.w3.org/2000/svg"
   xmlns:svg="http://www.w3.org/2000/svg">
  <sodipodi:namedview
     id="namedview1"
     pagecolor="#ffffff"
     bordercolor="#000000"
     borderopacity="0.25"
     inkscape:showpageshadow="2"
     inkscape:pageopacity="0.0"
     inkscape:pagecheckerboard="0"
     inkscape:deskcolor="#d1d1d1"
     inkscape:document-units="mm"
     inkscape:zoom="5.3244199"
     inkscape:cx="92.122712"
     inkscape:cy="18.217947"
     inkscape:window-width="1920"
     inkscape:window-height="999"
     inkscape:window-x="0"
     inkscape:window-y="25"
     inkscape:window-maximized="1"
     inkscape:current-layer="layer2"
     showgrid="true">
    <inkscape:grid
       id="grid1"
       units="mm"
       originx="0"
       originy="0"
       spacingx="1"
       spacingy="0.99999997"
       empcolor="#0099e5"
       empopacity="0.30196078"
       color="#0099e5"
       opacity="0.14901961"
       empspacing="5"
       dotted="false"
       gridanglex="30"
       gridanglez="30"
       visible="true" />
  </sodipodi:namedview>
  <defs
     id="defs1" />
  <g
     inkscape:label="Layer 1"
     inkscape:groupmode="layer"
     id="layer1" />
  <g
     inkscape:groupmode="layer"
     id="layer2"
     inkscape:label="Layer 2">
    <g
       id="g2"
       transform="matrix(1.578103,0,0,1.578103,-0.6482945,-0.87913421)">
      <g
         id="g1">
        <a
           id="a30"
           inkscape:export-filename="/home/tina/Desktop/HAAM_community/Logo_With_HAAM_Blue_mastodon.png"
           inkscape:export-xdpi="1200"
           inkscape:export-ydpi="1200"
           style="display:inline"
           transform="matrix(0.26458333,0,0,0.26458333,-1.4221248,-1.2737031)">
          <g
             transform="translate(7.9701534,8.0862518)"
             inkscape:export-ydpi="900"
             inkscape:export-xdpi="900"
             inkscape:export-filename="/home/tina/Desktop/HAAM_community/Logo_With_HAAM_Blue.png"
             data-name="Ebene 1"
             id="g30">
            <path
               style="fill:#436eee;stroke:#436eee;stroke-width:0.5px;stroke-linecap:round;stroke-linejoin:round"
               inkscape:connector-curvature="0"
               id="path1"
               d="m 4.1,10.375371 v 1.48 c 0,0.1 0.07,0.2 0.18,0.23 l 1.04,0.34 v 0.58 l -5.06,-1.78 v -0.2 c 0,0 5.06,-1.7800005 5.06,-1.7800005 v 0.58 L 4.25,10.185371 c -0.09,0.03 -0.14,0.1 -0.14,0.19 z m -0.5,1.25 v -1 c 0,-0.11 -0.12,-0.19 -0.23,-0.15 l -1.5,0.5 c -0.15,0.05 -0.15,0.25 0,0.3 l 1.5,0.5 c 0.11,0.04 0.23,-0.04 0.23,-0.15 z"
               class="cls-3" />
            <path
               style="fill:#436eee;stroke:#436eee;stroke-width:0.5px;stroke-linecap:round;stroke-linejoin:round"
               inkscape:connector-curvature="0"
               id="path2"
               d="M 0.26,2.97 3.97,2 C 4.09,1.97 4.09,1.82 3.97,1.79 L 0.26,0.81 V 0.25 H 5.31 V 0.68 H 3.34 L 1.22,0.64 5.31,1.72 V 2.05 C 3.95,2.41 2.59,2.77 1.23,3.13 L 3.34,3.09 H 5.31 V 3.52 H 0.26 V 2.96 Z"
               class="cls-3" />
            <path
               style="fill:#436eee;stroke:#436eee;stroke-width:0.5px;stroke-linecap:round;stroke-linejoin:round"
               inkscape:connector-curvature="0"
               id="path3"
               d="m 5.31,13.988061 v 0.45 H 2.98 v 1.7 h 2.33 v 0.44 H 0.26 v -0.44 h 2.17 v -1.7 H 0.26 v -0.45 z"
               class="cls-3" />
            <path
               style="fill:#436eee;stroke:#436eee;stroke-width:0.5px;stroke-linecap:round;stroke-linejoin:round"
               inkscape:connector-curvature="0"
               id="path4"
               d="m 4.1,5.6326904 v 1.48 c 0,0.1 0.07,0.2 0.18,0.23 l 1.04,0.34 v 0.58 l -5.06,-1.78 v -0.2 c 0,0 5.06,-1.78 5.06,-1.78 v 0.58 l -1.07,0.36 c -0.09,0.03 -0.14,0.1 -0.14,0.19 z m -0.5,1.25 v -1 c 0,-0.11 -0.12,-0.19 -0.23,-0.15 l -1.5,0.5 c -0.15,0.05 -0.15,0.25 0,0.3 l 1.5,0.5 c 0.11,0.04 0.23,-0.04 0.23,-0.15 z"
               class="cls-3" />
            <g
               data-name="Ebene 1-2"
               id="g50" />
            <g
               data-name="Ebene 1-2"
               id="g63"
               transform="matrix(0.91379325,0,0,0.91379325,0.92905158,0.94825158)">
              <g
                 id="g62"
                 transform="matrix(0.91194983,0,0,0.91194983,0.87049533,0.96852862)">
                <g
                   id="g53"
                   transform="matrix(1.0839262,0,0,1.0839262,6.1398718,0.0201412)"
                   style="fill:#436eee;fill-opacity:1">
                  <circle
                     style="fill:#436eee;fill-opacity:1;stroke:#436eee;stroke-width:0;stroke-linecap:round;stroke-linejoin:round;stroke-miterlimit:7.5;stroke-dasharray:none;stroke-opacity:1"
                     id="path61"
                     cx="4.3574357"
                     cy="11.775326"
                     r="0.3057923" />
                  <circle
                     style="fill:#436eee;fill-opacity:1;stroke:#436eee;stroke-width:0;stroke-linecap:round;stroke-linejoin:round;stroke-miterlimit:7.5;stroke-dasharray:none;stroke-opacity:1"
                     id="circle61"
                     cx="4.3574357"
                     cy="10.674009"
                     r="0.3057923" />
                  <circle
                     style="fill:#436eee;fill-opacity:1;stroke:#436eee;stroke-width:0;stroke-linecap:round;stroke-linejoin:round;stroke-miterlimit:7.5;stroke-dasharray:none;stroke-opacity:1"
                     id="circle62"
                     cx="4.3574357"
                     cy="9.5726938"
                     r="0.3057923" />
                  <circle
                     style="fill:#436eee;fill-opacity:1;stroke:#436eee;stroke-width:0;stroke-linecap:round;stroke-linejoin:round;stroke-miterlimit:7.5;stroke-dasharray:none;stroke-opacity:1"
                     id="circle67"
                     cx="4.3574357"
                     cy="8.4713774"
                     r="0.3057923" />
                </g>
              </g>
            </g>
            <g
               data-name="Ebene 1-2"
               id="g29"
               style="display:inline">
              <g
                 id="g27">
                <g
                   id="g15"
                   transform="matrix(1.0692048,0,0,1.0692048,-0.60316622,-0.13901553)"
                   style="fill:#436eee;fill-opacity:1">
                  <path
                     style="fill:#436eee;fill-opacity:1;stroke-width:1.00659"
                     inkscape:connector-curvature="0"
                     id="path13"
                     d="m 14.838512,15.868873 -8.4136356,-5.3e-5 c -0.049475,0 2.8135476,-2.467751 3.8228526,-3.317641 0.197905,-0.163833 0.621598,-0.167486 0.829396,-0.0037 z"
                     class="cls-1"
                     sodipodi:nodetypes="csccc" />
                </g>
              </g>
            </g>
          </g>
        </a>
      </g>
      <path
         style="display:inline;fill:#436eee;stroke:#436eee;stroke-width:0.127536;stroke-linecap:round;stroke-miterlimit:10;stroke-dasharray:none;stroke-opacity:1"
         inkscape:connector-curvature="0"
         id="path39"
         d="m 2.3444124,1.712011 c -3.97e-4,0.1029835 -0.01053,0.486089 0.0037,0.7121916 0.01298,0.2055339 0.0327,0.3646286 0.126647,0.4633817 0.242428,0.2548298 0.572849,0.2604601 1.074992,0.2766693 0.04605,0.00148 0.0358,-0.062358 -0.0038,-0.063619 -0.137651,-0.00438 -0.447701,-0.021926 -0.539999,-0.046486 -0.212614,-0.056569 -0.312741,-0.1090065 -0.406659,-0.2292059 -0.06744,-0.086315 -0.116111,-0.2007294 -0.121346,-0.4005572 -0.0066,-0.2515346 -0.0024,-0.6252168 -0.0022,-0.7192468 2.4e-4,-0.1160269 0.0028,-0.5648894 0.0022,-0.6080061 -7.41e-4,-0.048792 0.0086,-0.16715062 -0.02,-0.16762542 -0.02049,-3.387e-4 -0.06825,-7.752e-4 -0.09582,-1.359e-4 -0.02439,5.503e-4 -0.01609,0.11388842 -0.01606,0.16473112 -2.62e-4,0.2059687 -0.0013,0.5149203 -0.0017,0.6179038 z"
         class="cls-2"
         sodipodi:nodetypes="zsssssssssssszz" />
      <path
         style="display:inline;fill:#436eee;stroke:#436eee;stroke-width:0.127536;stroke-linecap:round;stroke-miterlimit:10;stroke-dasharray:none;stroke-opacity:1"
         inkscape:connector-curvature="0"
         id="path58"
         d="M 4.7303434,4.5501535 C 4.7307404,4.44717 4.7408734,4.0640644 4.7266434,3.8379618 4.7136194,3.6324279 4.6938964,3.4733332 4.5999494,3.3745801 4.4911084,3.2601711 4.3619544,3.1927293 4.2071294,3.1585354 c -0.301752,-0.066643 -0.412518,-0.049626 -0.680105,-0.058558 -0.04605,-0.00153 -0.03767,0.057402 0.0017,0.061552 0.08081,0.00852 0.4477,0.021926 0.539999,0.046486 0.212614,0.056569 0.312741,0.1090065 0.406659,0.2292059 0.06744,0.086315 0.116111,0.2007293 0.121346,0.4005572 0.0066,0.2515346 0.0024,0.6252167 0.0022,0.719247 -2.4e-4,0.116027 -0.0028,0.564889 -0.0022,0.608006 7.4e-4,0.04879 -0.01484,0.0886 0.0138,0.08908 0.02049,3.44e-4 0.08494,4.76e-4 0.115455,1.34e-4 0.0075,-8.1e-5 0.0027,-0.04981 0.0026,-0.08618 -1.95e-4,-0.205969 0.0013,-0.51492 0.0017,-0.617904 z"
         class="cls-2"
         sodipodi:nodetypes="zssssssssssssszz" />
      <path
         style="display:inline;fill:#436eee;stroke:#436eee;stroke-width:0;stroke-linecap:round;stroke-miterlimit:10;stroke-dasharray:none;stroke-opacity:1"
         inkscape:connector-curvature="0"
         id="path60"
         d="m 4.7941994,1.7012459 c 3.97e-4,0.1005003 0.01053,0.4743682 -0.0037,0.6950188 -0.01298,0.200578 -0.0327,0.3558366 -0.126648,0.4522084 -0.242427,0.2486853 -0.589388,0.2540944 -1.074991,0.269998 -0.04212,0.00138 -0.03712,-0.050174 -0.0057,-0.060383 0.0029,-9.525e-4 0.0061,-0.00146 0.0095,-0.00169 0.07151,-0.00531 0.383622,-0.017261 0.539999,-0.045365 0.2162,-0.038853 0.312741,-0.1063781 0.406659,-0.2236793 0.06744,-0.084234 0.116111,-0.1958893 0.121346,-0.3908985 0.0066,-0.2454696 0.0024,-0.6101414 0.0022,-0.7019042 -2.4e-4,-0.1132292 -0.0028,-0.5512686 -0.0022,-0.5933455 7.41e-4,-0.047616 0.0054,-0.190927 0.0055,-0.2092335 1.06e-4,-0.012473 0.01695,-0.025705 0.03034,-0.026134 0.01453,-4.656e-4 0.04614,3.61e-5 0.0608,-5.45e-4 0.01416,-5.636e-4 0.03412,0.012573 0.03464,0.025544 6.35e-4,0.015653 5.82e-4,0.1578008 5.55e-4,0.2074173 2.63e-4,0.2010021 0.0013,0.5025041 0.0017,0.6030045 z"
         class="cls-2"
         sodipodi:nodetypes="zssssssssssssssszz" />
      <path
         style="display:inline;fill:#436eee;stroke:#436eee;stroke-width:0;stroke-linecap:round;stroke-miterlimit:10;stroke-dasharray:none;stroke-opacity:1"
         inkscape:connector-curvature="0"
         id="path79"
         d="m 2.2805554,4.5021549 c -3.96e-4,-0.098103 -0.01053,-0.4630539 0.0037,-0.6784417 0.01298,-0.1957938 0.0327,-0.3473492 0.126648,-0.4414223 0.242427,-0.2427539 0.589385,-0.2481173 1.074991,-0.2635581 0.04605,-0.00148 0.208442,0.045825 -0.0038,0.060604 -0.139423,0.00971 -0.31851,0.010552 -0.54,0.044282 -0.216836,0.033023 -0.312741,0.1038407 -0.406659,0.2183442 -0.06744,0.082225 -0.116111,0.191217 -0.121346,0.3815749 -0.0066,0.2396149 -0.0024,0.5955888 -0.0022,0.6851626 2.41e-4,0.110529 0.0028,0.538121 0.0022,0.579194 -7.41e-4,0.04648 -0.0054,0.186373 -0.0055,0.204243 -1.06e-4,0.01218 -0.01695,0.02509 -0.03035,0.02551 -0.01453,4.76e-4 -0.04614,-3.5e-5 -0.0608,5.56e-4 -0.01416,5.29e-4 -0.03412,-0.01227 -0.03464,-0.02494 -6.35e-4,-0.01528 -5.82e-4,-0.154037 -5.56e-4,-0.20247 -2.63e-4,-0.196208 -0.0013,-0.490518 -0.0017,-0.588622 z"
         class="cls-2"
         sodipodi:nodetypes="zsssssssssssssszz" />
      <path
         style="display:inline;fill:#436eee;fill-opacity:1;stroke:#436eee;stroke-width:0.0517234px;stroke-linecap:round;stroke-miterlimit:10;stroke-opacity:1"
         inkscape:connector-curvature="0"
         id="path21"
         d="m 4.2667844,1.095682 c -0.03824,4e-7 -1.825239,0.00207 -1.825239,0.00207 -0.04215,0 -0.06587,0.017873 -0.06587,0.038992 0,0.021122 0.02898,0.038993 0.06587,0.038993 0,0 1.789794,-1e-6 1.825806,0 0.03582,10e-7 0.0753,0.00322 0.075,-0.013134 -2.45e-4,-0.013528 -9e-4,-0.037838 -8.73e-4,-0.053764 3.3e-5,-0.017477 -0.03646,-0.013155 -0.0747,-0.013154 z"
         class="cls-2"
         sodipodi:nodetypes="zsssssszz" />
      <path
         id="path5"
         style="display:inline;fill:#436eee;fill-opacity:1;stroke:#436eee;stroke-width:0.0517234px;stroke-linecap:round;stroke-miterlimit:10;stroke-opacity:1"
         class="cls-2"
         d="m 3.1357704,2.720678 c -0.0088,1.32e-4 -0.01835,5.292e-4 -0.0279,5.292e-4 -0.01408,3e-7 -0.360391,1.632e-4 -0.672311,5.292e-4 v 0.079582 c 0.312282,0 0.659556,-5e-7 0.672828,0 0.03582,1.1e-6 0.07523,0.00292 0.07493,-0.013435 -2.44e-4,-0.013528 -0.0011,-0.037818 -10e-4,-0.053744 2.5e-5,-0.013108 -0.02012,-0.013832 -0.04651,-0.013435 z" />
      <path
         id="path7"
         style="display:inline;fill:#436eee;fill-opacity:1;stroke:#436eee;stroke-width:0.0517234px;stroke-linecap:round;stroke-miterlimit:10;stroke-opacity:1"
         class="cls-2"
         d="m 3.3693484,2.3956334 c -0.0088,1.321e-4 -0.01835,5.292e-4 -0.02791,5.292e-4 -0.02075,3e-7 -0.504895,4.762e-4 -0.990637,0.00103 v 0.079065 c 0.486335,0 0.971604,-5e-7 0.991154,0 0.03582,1e-6 0.07523,0.00292 0.07493,-0.013436 -2.45e-4,-0.013528 -5.56e-4,-0.037817 -5.29e-4,-0.053744 2.5e-5,-0.013107 -0.02063,-0.013832 -0.04703,-0.013435 z" />
      <path
         id="path9"
         style="display:inline;fill:#436eee;fill-opacity:1;stroke:#436eee;stroke-width:0.0517234px;stroke-linecap:round;stroke-miterlimit:10;stroke-opacity:1"
         class="cls-2"
         d="m 3.6003414,2.0705886 c -0.0088,1.32e-4 -0.01835,5.291e-4 -0.02791,5.291e-4 -0.0262,3e-7 -0.719737,9.525e-4 -1.25057,0.00156 v 0.078031 c 0.531494,-2e-7 1.226409,-5e-7 1.251087,0 0.03582,1.1e-6 0.07523,0.00343 0.07493,-0.01292 -2.44e-4,-0.013528 -5.55e-4,-0.037817 -5.29e-4,-0.053744 2.5e-5,-0.013107 -0.02063,-0.013832 -0.04702,-0.013435 z" />
      <path
         id="path11"
         style="display:inline;fill:#436eee;fill-opacity:1;stroke:#436eee;stroke-width:0.0517234px;stroke-linecap:round;stroke-miterlimit:10;stroke-opacity:1"
         class="cls-2"
         d="m 3.8328854,1.7455437 c -0.0088,1.32e-4 -0.01835,5.292e-4 -0.02791,5.292e-4 -0.03094,3e-7 -1.029229,0.00103 -1.476913,0.00156 v 0.078031 c 0.448249,-3e-7 1.448287,-8e-7 1.47743,0 0.03582,1e-6 0.07523,0.00343 0.07493,-0.01292 -2.44e-4,-0.013528 -0.0011,-0.037817 -10e-4,-0.053743 2.6e-5,-0.013108 -0.02012,-0.013832 -0.04651,-0.013436 z" />
      <path
         id="path15"
         style="display:inline;fill:#436eee;fill-opacity:1;stroke:#436eee;stroke-width:0.0517234px;stroke-linecap:round;stroke-miterlimit:10;stroke-opacity:1"
         class="cls-2"
         d="m 4.0375244,1.4204991 c -0.03594,5e-7 -1.525987,0.00185 -1.715658,0.00207 v 0.078031 c 0.189913,-1e-7 1.682323,-10e-7 1.716175,0 0.03582,1.1e-6 0.07523,0.00343 0.07493,-0.012919 -2.45e-4,-0.013528 -0.0011,-0.037817 -0.001,-0.053743 3.3e-5,-0.017476 -0.03618,-0.013436 -0.07441,-0.013436 z" />
      <path
         id="path10"
         style="display:inline;fill:#436eee;fill-opacity:1;stroke:#436eee;stroke-width:0.0517234px;stroke-linecap:round;stroke-miterlimit:10;stroke-opacity:1"
         class="cls-2"
         d="m 5.693704,0.89113675 c -0.016354,-3e-4 -0.013437,0.0396276 -0.013436,0.0754476 V 1.710725 c 4.64e-5,0.00873 -2e-7,0.017917 0,0.026872 v 1.0547157 0.5994467 0.1715657 1.6541626 c -1e-6,0.03582 -0.00292,0.075231 0.013436,0.074931 0.013528,-2.45e-4 0.037817,-5.437e-4 0.053743,-5.167e-4 0.017477,3.3e-5 0.01292,-0.036691 0.012919,-0.074931 -4e-7,-0.034646 -0.00175,-1.3775809 -0.00207,-1.6536458 -3.31e-5,-0.028642 0,-0.1715657 0,-0.1715657 3.194e-4,-0.276065 0.00207,-1.6190004 0.00207,-1.6536459 6e-7,-0.0239 0.00197,-0.047451 -0.00103,-0.061495 3.824e-4,-0.3356849 0.00103,-0.6946524 0.00103,-0.70951749 10e-7,-0.03824 0.00456,-0.0749638 -0.012919,-0.0749308 -0.015926,2.7e-5 -0.040215,-7.8853e-4 -0.053743,-0.001034 z" />
      <text
         xml:space="preserve"
         style="font-style:normal;font-variant:normal;font-weight:normal;font-stretch:normal;font-size:2.11667px;font-family:'Varela Round';-inkscape-font-specification:'Varela Round, Normal';font-variant-ligatures:normal;font-variant-caps:normal;font-variant-numeric:normal;font-variant-east-asian:normal;fill:#436eee;fill-opacity:1;stroke:none;stroke-width:0.026;stroke-linecap:round;stroke-linejoin:round;stroke-miterlimit:7.5;stroke-dasharray:none"
         x="6.4380102"
         y="2.5940795"
         id="text1"><tspan
           sodipodi:role="line"
           id="tspan1"
           style="font-style:normal;font-variant:normal;font-weight:normal;font-stretch:normal;font-size:2.11667px;font-family:'Varela Round';-inkscape-font-specification:'Varela Round, Normal';font-variant-ligatures:normal;font-variant-caps:normal;font-variant-numeric:normal;font-variant-east-asian:normal;fill:#436eee;fill-opacity:1;stroke:none;stroke-width:0.026;stroke-dasharray:none;stroke-opacity:1"
           x="6.4380102"
           y="2.5940795">Human, Ancient DNA,</tspan></text>
      <text
         xml:space="preserve"
         style="font-style:normal;font-variant:normal;font-weight:normal;font-stretch:normal;font-size:2.11667px;font-family:'Varela Round';-inkscape-font-specification:'Varela Round, Normal';font-variant-ligatures:normal;font-variant-caps:normal;font-variant-numeric:normal;font-variant-east-asian:normal;fill:#436eee;fill-opacity:1;stroke:#000000;stroke-width:0.0264583;stroke-linecap:round;stroke-linejoin:round;stroke-miterlimit:7.5"
         x="6.5374937"
         y="4.7063746"
         id="text2"><tspan
           sodipodi:role="line"
           id="tspan2"
           style="font-style:normal;font-variant:normal;font-weight:normal;font-stretch:normal;font-size:2.11667px;font-family:'Varela Round';-inkscape-font-specification:'Varela Round, Normal';font-variant-ligatures:normal;font-variant-caps:normal;font-variant-numeric:normal;font-variant-east-asian:normal;fill:#436eee;fill-opacity:1;stroke:none;stroke-width:0.0264583"
           x="6.5374937"
           y="4.7063746">Ancestry, and Mobility</tspan></text>
    </g>
  </g>
</svg>
