<?xml version="1.0" encoding="UTF-8" standalone="no"?>
<!-- Created with Inkscape (http://www.inkscape.org/) -->

<svg
   width="47mm"
   height="8mm"
   viewBox="0 0 47 8"
   version="1.1"
   id="svg1"
   inkscape:version="1.3.2 (091e20e, 2023-11-25)"
   sodipodi:docname="Logo_With_HAAM_White_and_Description.svg"
   inkscape:export-filename="png/Logo_With_HAAM_White_and_Description_Sml.png"
   inkscape:export-xdpi="320"
   inkscape:export-ydpi="320"
   xmlns:inkscape="http://www.inkscape.org/namespaces/inkscape"
   xmlns:sodipodi="http://sodipodi.sourceforge.net/DTD/sodipodi-0.dtd"
   xmlns="http://www.w3.org/2000/svg"
   xmlns:svg="http://www.w3.org/2000/svg">
  <sodipodi:namedview
     id="namedview1"
     pagecolor="#ffffff"
     bordercolor="#000000"
     borderopacity="0.25"
     inkscape:showpageshadow="2"
     inkscape:pageopacity="0.0"
     inkscape:pagecheckerboard="0"
     inkscape:deskcolor="#d1d1d1"
     inkscape:document-units="mm"
     inkscape:zoom="5.3244199"
     inkscape:cx="95.127734"
     inkscape:cy="30.613664"
     inkscape:window-width="1920"
     inkscape:window-height="999"
     inkscape:window-x="0"
     inkscape:window-y="25"
     inkscape:window-maximized="1"
     inkscape:current-layer="layer2"
     showgrid="true">
    <inkscape:grid
       id="grid1"
       units="mm"
       originx="0"
       originy="0"
       spacingx="1"
       spacingy="0.99999997"
       empcolor="#0099e5"
       empopacity="0.30196078"
       color="#0099e5"
       opacity="0.14901961"
       empspacing="5"
       dotted="false"
       gridanglex="30"
       gridanglez="30"
       visible="true" />
  </sodipodi:namedview>
  <defs
     id="defs1" />
  <g
     inkscape:label="Layer 1"
     inkscape:groupmode="layer"
     id="layer1" />
  <g
     inkscape:groupmode="layer"
     id="layer2"
     inkscape:label="Layer 2">
    <g
       id="g5"
       transform="translate(1.7614328e-5)">
      <g
         data-name="Ebene 1-2"
         id="g50"
         transform="matrix(0.41753975,0,0,0.41753975,0.43530196,0.48716266)" />
      <g
         id="g3">
        <g
           id="g2">
          <path
             style="fill:#ffffff;stroke:#ffffff;stroke-width:0.20877px;stroke-linecap:round;stroke-linejoin:round"
             inkscape:connector-curvature="0"
             id="path1"
             d="m 2.1472149,4.8192925 v 0.6179588 c 0,0.041754 0.029228,0.083508 0.075157,0.096034 L 2.6566134,5.675249 V 5.917422 L 0.54386229,5.1742013 v -0.083508 c 0,0 2.11275111,-0.743221 2.11275111,-0.743221 V 4.5896454 L 2.2098459,4.7399599 c -0.037579,0.012526 -0.058456,0.041754 -0.058456,0.079333 z M 1.9384451,5.3412172 V 4.9236774 c 0,-0.045929 -0.050105,-0.079332 -0.096034,-0.062631 L 1.2161013,5.0698163 c -0.062631,0.020877 -0.062631,0.104385 0,0.1252619 l 0.6263096,0.2087699 c 0.045929,0.016702 0.096034,-0.016702 0.096034,-0.062631 z"
             class="cls-3" />
          <path
             style="fill:#ffffff;stroke:#ffffff;stroke-width:0.20877px;stroke-linecap:round;stroke-linejoin:round"
             inkscape:connector-curvature="0"
             id="path2"
             d="M 0.54386229,1.7272557 2.0929348,1.3222422 c 0.050105,-0.012526 0.050105,-0.075157 0,-0.087683 L 0.54386229,0.82536986 V 0.5915476 H 2.652438 V 0.77108969 H 1.8298847 L 0.94470045,0.7543881 2.652438,1.205331 V 1.3431191 C 2.084584,1.4934335 1.5167299,1.6437478 0.94887585,1.7940621 L 1.8298847,1.7773605 H 2.652438 V 1.9569026 H 0.54386229 V 1.7230803 Z"
             class="cls-3" />
          <path
             style="fill:#ffffff;stroke:#ffffff;stroke-width:0.20877px;stroke-linecap:round;stroke-linejoin:round"
             inkscape:connector-curvature="0"
             id="path3"
             d="M 2.652438,6.3277342 V 6.515627 H 1.6795704 V 7.2254446 H 2.652438 V 7.4091621 H 0.54386229 V 7.2254446 H 1.4499236 V 6.515627 H 0.54386229 V 6.3277342 Z"
             class="cls-3" />
          <path
             style="fill:#ffffff;stroke:#ffffff;stroke-width:0.20877px;stroke-linecap:round;stroke-linejoin:round"
             inkscape:connector-curvature="0"
             id="path4"
             d="m 2.1472149,2.8390348 v 0.6179588 c 0,0.041754 0.029228,0.083508 0.075157,0.096034 l 0.4342413,0.1419635 v 0.242173 L 0.54386229,3.1939436 v -0.083508 c 0,0 2.11275111,-0.7432207 2.11275111,-0.7432207 v 0.242173 L 2.2098459,2.7597022 c -0.037579,0.012526 -0.058456,0.041754 -0.058456,0.079333 z M 1.9384451,3.3609595 V 2.9434197 c 0,-0.045929 -0.050105,-0.079333 -0.096034,-0.062631 l -0.6263098,0.20877 c -0.062631,0.020877 -0.062631,0.1043849 0,0.1252619 l 0.6263096,0.2087699 c 0.045929,0.016701 0.096034,-0.016702 0.096034,-0.062631 z"
             class="cls-3" />
        </g>
        <g
           id="g1">
          <g
             id="g62"
             transform="matrix(0.34794991,0,0,0.34794991,1.1553511,1.2526327)"
             style="fill:#ffffff;stroke:#ffffff">
            <g
               id="g53"
               transform="matrix(1.0839262,0,0,1.0839262,6.1398718,0.0201412)"
               style="fill:#ffffff;fill-opacity:1;stroke:#ffffff">
              <circle
                 style="fill:#ffffff;fill-opacity:1;stroke:#ffffff;stroke-width:0;stroke-linecap:round;stroke-linejoin:round;stroke-miterlimit:7.5;stroke-dasharray:none;stroke-opacity:1"
                 id="path61"
                 cx="4.3574357"
                 cy="11.775326"
                 r="0.3057923" />
              <circle
                 style="fill:#ffffff;fill-opacity:1;stroke:#ffffff;stroke-width:0;stroke-linecap:round;stroke-linejoin:round;stroke-miterlimit:7.5;stroke-dasharray:none;stroke-opacity:1"
                 id="circle61"
                 cx="4.3574357"
                 cy="10.674009"
                 r="0.3057923" />
              <circle
                 style="fill:#ffffff;fill-opacity:1;stroke:#ffffff;stroke-width:0;stroke-linecap:round;stroke-linejoin:round;stroke-miterlimit:7.5;stroke-dasharray:none;stroke-opacity:1"
                 id="circle62"
                 cx="4.3574357"
                 cy="9.5726938"
                 r="0.3057923" />
              <circle
                 style="fill:#ffffff;fill-opacity:1;stroke:#ffffff;stroke-width:0;stroke-linecap:round;stroke-linejoin:round;stroke-miterlimit:7.5;stroke-dasharray:none;stroke-opacity:1"
                 id="circle67"
                 cx="4.3574357"
                 cy="8.4713774"
                 r="0.3057923" />
            </g>
          </g>
          <g
             id="g27"
             style="fill:#ffffff"
             transform="matrix(0.41753975,0,0,0.41753975,0.43530196,0.48716266)">
            <g
               id="g15"
               transform="matrix(1.0692048,0,0,1.0692048,-0.60316622,-0.13901553)"
               style="fill:#ffffff;fill-opacity:1">
              <path
                 style="fill:#ffffff;fill-opacity:1;stroke-width:1.00659"
                 inkscape:connector-curvature="0"
                 id="path13"
                 d="m 14.838512,15.868873 -8.4136356,-5.3e-5 c -0.049475,0 2.8135476,-2.467751 3.8228526,-3.317641 0.197905,-0.163833 0.621598,-0.167486 0.829396,-0.0037 z"
                 class="cls-1"
                 sodipodi:nodetypes="csccc" />
            </g>
          </g>
          <path
             style="display:inline;fill:#ffffff;stroke:#ffffff;stroke-width:0.201265;stroke-linecap:round;stroke-miterlimit:10;stroke-dasharray:none;stroke-opacity:1"
             inkscape:connector-curvature="0"
             id="path39"
             d="m 3.0514297,1.8225955 c -6.265e-4,0.1625186 -0.016617,0.7670985 0.00584,1.1239117 0.020484,0.3243536 0.051604,0.5754215 0.199862,0.731264 0.3825764,0.4021477 0.9040148,0.4110329 1.6964481,0.4366127 0.072672,0.00234 0.056496,-0.098407 -0.006,-0.1003973 C 4.7303546,4.0070745 4.2410638,3.9793851 4.095408,3.9406269 3.7598812,3.8513551 3.6018705,3.7686034 3.4536582,3.5789163 3.3472309,3.4427024 3.2704231,3.2621447 3.2621617,2.9467958 3.2517462,2.5498483 3.2583743,1.9601393 3.2586899,1.8117503 3.2590686,1.6286479 3.2631086,0.92029663 3.2621617,0.85225404 3.2609924,0.77525524 3.2757334,0.58847314 3.2305997,0.58772386 3.1982643,0.58718936 3.1228941,0.58650051 3.0793858,0.5875094 3.0408959,0.58837783 3.0539942,0.76723705 3.0540415,0.84747207 3.053628,1.1725119 3.05199,1.6600693 3.0513587,1.8225879 Z"
             class="cls-2"
             sodipodi:nodetypes="zsssssssssssszz" />
          <path
             style="display:inline;fill:#ffffff;stroke:#ffffff;stroke-width:0.201265;stroke-linecap:round;stroke-miterlimit:10;stroke-dasharray:none;stroke-opacity:1"
             inkscape:connector-curvature="0"
             id="path58"
             d="M 6.8166746,6.3014767 C 6.8173011,6.1389581 6.833292,5.534378 6.8108356,5.1775648 6.7902824,4.8532112 6.7591575,4.6021433 6.6108994,4.4463008 6.4391371,4.2657516 6.2353188,4.1593215 5.990989,4.10536 5.5147933,4.0001905 5.3399931,4.027045 4.9177133,4.0129494 c -0.072672,-0.00241 -0.059447,0.090586 0.00268,0.097135 0.1275265,0.013445 0.7065167,0.034601 0.852174,0.07336 0.3355268,0.089272 0.4935375,0.1720235 0.6417498,0.3617105 0.1064273,0.136214 0.1832351,0.3167715 0.1914965,0.6321206 0.010415,0.3969475 0.00379,0.9866563 0.00347,1.1350458 -3.787e-4,0.1831026 -0.00442,0.891453 -0.00347,0.9594961 0.00117,0.076996 -0.023419,0.1398199 0.021778,0.1405774 0.032335,5.429e-4 0.1340441,7.512e-4 0.1821999,2.115e-4 0.011836,-1.279e-4 0.00426,-0.078605 0.0041,-0.1360009 -3.077e-4,-0.3250403 0.00205,-0.8125968 0.00268,-0.9751162 z"
             class="cls-2"
             sodipodi:nodetypes="zssssssssssssszz" />
          <path
             style="display:inline;fill:#ffffff;stroke:#ffffff;stroke-width:0;stroke-linecap:round;stroke-miterlimit:10;stroke-dasharray:none;stroke-opacity:1"
             inkscape:connector-curvature="0"
             id="path60"
             d="M 6.917446,1.805607 C 6.9180725,1.9642069 6.9340634,2.5542089 6.911607,2.9024183 6.8911232,3.218951 6.860003,3.4639651 6.7117434,3.6160497 6.3291686,4.0085008 5.7816284,4.0170369 5.0152969,4.0421344 c -0.06647,0.00218 -0.058579,-0.07918 -0.009,-0.095291 0.00458,-0.0015 0.00963,-0.0023 0.014992,-0.00267 0.1128501,-0.00838 0.605395,-0.02724 0.852174,-0.071591 C 6.2146536,3.8112721 6.3670052,3.7047106 6.5152175,3.5195972 6.6216448,3.3866673 6.6984526,3.2104637 6.706714,2.9027191 6.71713,2.5153428 6.710504,1.9398531 6.710184,1.795042 6.7098053,1.6163546 6.705764,0.92508333 6.706714,0.85868165 c 0.00117,-0.0751429 0.00852,-0.30130247 0.00868,-0.33019201 1.673e-4,-0.0196837 0.026749,-0.0405651 0.04788,-0.0412421 0.02293,-7.3476e-4 0.072814,5.697e-5 0.095949,-8.6006e-4 0.022346,-8.8942e-4 0.053845,0.0198415 0.054665,0.0403111 0.001,0.0247021 9.185e-4,0.24902592 8.759e-4,0.32732586 4.15e-4,0.31720206 0.00205,0.79300326 0.00268,0.95160326 z"
             class="cls-2"
             sodipodi:nodetypes="zssssssssssssssszz" />
          <path
             style="display:inline;fill:#ffffff;stroke:#ffffff;stroke-width:0;stroke-linecap:round;stroke-miterlimit:10;stroke-dasharray:none;stroke-opacity:1"
             inkscape:connector-curvature="0"
             id="path79"
             d="M 2.9506568,6.2257299 C 2.9500319,6.0709133 2.9340394,5.4949832 2.9564958,5.1550791 2.9769796,4.8460963 3.0080998,4.6069262 3.1563594,4.4584692 3.5389342,4.0753785 4.0864696,4.0669146 4.8528059,4.0425474 c 0.072672,-0.00234 0.328943,0.072316 -0.006,0.095639 C 4.6267853,4.1535101 4.3441675,4.1548389 3.9946335,4.2080683 3.652444,4.260182 3.501096,4.3719396 3.3528837,4.5526379 3.2464564,4.6823974 3.1696486,4.854398 3.1613872,5.1548024 c -0.010416,0.378137 -0.00379,0.9399005 -0.00347,1.0812572 3.803e-4,0.1744261 0.00442,0.8492103 0.00347,0.9140278 -0.00117,0.07335 -0.00852,0.2941158 -0.00868,0.3223165 -1.673e-4,0.019221 -0.026749,0.039595 -0.047896,0.040257 -0.02293,7.511e-4 -0.072814,-5.53e-5 -0.095949,8.774e-4 -0.022346,8.348e-4 -0.053845,-0.019363 -0.054666,-0.039358 -0.001,-0.024113 -9.185e-4,-0.2430863 -8.774e-4,-0.3195185 -4.151e-4,-0.3096364 -0.00205,-0.7740879 -0.00268,-0.9289062 z"
             class="cls-2"
             sodipodi:nodetypes="zsssssssssssssszz" />
          <path
             style="display:inline;fill:#ffffff;fill-opacity:1;stroke:#ffffff;stroke-width:0.0816249px;stroke-linecap:round;stroke-miterlimit:10;stroke-opacity:1"
             inkscape:connector-curvature="0"
             id="path21"
             d="m 6.0851308,0.84996484 c -0.060347,6.3e-7 -2.8804152,0.003267 -2.8804152,0.003267 -0.066517,0 -0.1039496,0.0282054 -0.1039496,0.0615334 0,0.0333327 0.045733,0.061535 0.1039496,0.061535 0,0 2.8244793,-1.58e-6 2.8813099,0 0.056528,1.58e-6 0.1188312,0.005081 0.1183578,-0.0207268 -3.867e-4,-0.0213486 -0.00142,-0.0597123 -0.00138,-0.0848451 5.21e-5,-0.0275805 -0.057538,-0.0207599 -0.1178843,-0.0207584 z"
             class="cls-2"
             sodipodi:nodetypes="zsssssszz" />
          <path
             id="path5"
             style="display:inline;fill:#ffffff;fill-opacity:1;stroke:#ffffff;stroke-width:0.0816249px;stroke-linecap:round;stroke-miterlimit:10;stroke-opacity:1"
             class="cls-2"
             d="m 4.3002742,3.4143759 c -0.013887,2.083e-4 -0.028958,8.351e-4 -0.044029,8.351e-4 -0.02222,5e-7 -0.5687341,2.576e-4 -1.060976,8.352e-4 v 0.1255886 c 0.4928132,0 1.0408473,-8e-7 1.0617919,0 0.056528,1.7e-6 0.1187207,0.00461 0.1182472,-0.021202 -3.85e-4,-0.021348 -0.00174,-0.059681 -0.00158,-0.084813 3.95e-5,-0.020686 -0.031751,-0.021828 -0.073398,-0.021202 z" />
          <path
             id="path7"
             style="display:inline;fill:#ffffff;fill-opacity:1;stroke:#ffffff;stroke-width:0.0816249px;stroke-linecap:round;stroke-miterlimit:10;stroke-opacity:1"
             class="cls-2"
             d="m 4.6688843,2.901422 c -0.013887,2.085e-4 -0.028958,8.352e-4 -0.044045,8.352e-4 -0.032746,5e-7 -0.7967764,7.515e-4 -1.5633273,0.00163 v 0.1247727 c 0.7674868,0 1.5332912,-8e-7 1.5641431,0 0.056528,1.6e-6 0.1187207,0.00461 0.1182473,-0.021203 -3.866e-4,-0.021348 -8.774e-4,-0.059679 -8.348e-4,-0.084814 3.94e-5,-0.020684 -0.032556,-0.021828 -0.074218,-0.021202 z" />
          <path
             id="path9"
             style="display:inline;fill:#ffffff;fill-opacity:1;stroke:#ffffff;stroke-width:0.0816249px;stroke-linecap:round;stroke-miterlimit:10;stroke-opacity:1"
             class="cls-2"
             d="m 5.0334151,2.3884679 c -0.013887,2.083e-4 -0.028958,8.349e-4 -0.044045,8.349e-4 -0.041346,5e-7 -1.1358191,0.0015 -1.9735283,0.00246 v 0.1231409 c 0.8387523,-3e-7 1.9353998,-7e-7 1.9743442,0 0.056528,1.8e-6 0.1187207,0.00541 0.1182472,-0.020389 -3.85e-4,-0.021349 -8.758e-4,-0.059679 -8.348e-4,-0.084814 3.95e-5,-0.020684 -0.032556,-0.021828 -0.074202,-0.021202 z" />
          <path
             id="path11"
             style="display:inline;fill:#ffffff;fill-opacity:1;stroke:#ffffff;stroke-width:0.0816249px;stroke-linecap:round;stroke-miterlimit:10;stroke-opacity:1"
             class="cls-2"
             d="m 5.4003934,1.8755135 c -0.013887,2.083e-4 -0.028958,8.352e-4 -0.044045,8.352e-4 -0.048826,4e-7 -1.6242294,0.00163 -2.3307208,0.00246 v 0.123141 c 0.707383,-5e-7 2.285546,-1.3e-6 2.3315367,0 0.056528,1.5e-6 0.1187207,0.00541 0.1182472,-0.020389 -3.85e-4,-0.021349 -0.00174,-0.059679 -0.00158,-0.084812 4.11e-5,-0.020686 -0.031751,-0.021828 -0.073397,-0.021203 z" />
          <path
             id="path15"
             style="display:inline;fill:#ffffff;fill-opacity:1;stroke:#ffffff;stroke-width:0.0816249px;stroke-linecap:round;stroke-miterlimit:10;stroke-opacity:1"
             class="cls-2"
             d="m 5.7233349,1.3625597 c -0.056717,8e-7 -2.4081647,0.00292 -2.7074851,0.00327 v 0.1231409 c 0.2997023,-1e-7 2.654879,-1.6e-6 2.7083009,0 0.056528,1.7e-6 0.1187207,0.00541 0.1182473,-0.020388 -3.866e-4,-0.021349 -0.00174,-0.059679 -0.00158,-0.084812 5.21e-5,-0.027579 -0.057096,-0.021203 -0.1174266,-0.021203 z" />
        </g>
      </g>
      <g
         id="g4">
        <path
           id="path10"
           style="display:inline;fill:#ffffff;fill-opacity:1;stroke:#ffffff;stroke-width:0.0816249px;stroke-linecap:round;stroke-miterlimit:10;stroke-opacity:1"
           class="cls-2"
           d="M 8.3369569,0.52717137 C 8.3111486,0.52669794 8.3157519,0.5897078 8.3157535,0.64623545 V 1.820566 c 7.32e-5,0.013777 -3e-7,0.028275 0,0.042407 V 3.527423 4.4734117 4.74416 7.354599 c -1.6e-6,0.056528 -0.00461,0.1187222 0.021203,0.1182488 0.021349,-3.866e-4 0.059679,-8.58e-4 0.084812,-8.154e-4 0.02758,5.21e-5 0.020389,-0.057902 0.020388,-0.1182488 -7e-7,-0.054675 -0.00276,-2.1739646 -0.00327,-2.6096234 -5.22e-5,-0.0452 0,-0.2707484 0,-0.2707484 5.04e-4,-0.435659 0.00327,-2.5549494 0.00327,-2.6096235 9e-7,-0.037717 0.00311,-0.074883 -0.00163,-0.097046 6.035e-4,-0.5297453 0.00163,-1.096233 0.00163,-1.11969165 1.5e-6,-0.0603467 0.0072,-0.11830059 -0.020388,-0.11824852 -0.025133,4.261e-5 -0.063463,-0.001244 -0.084812,-0.001631 z" />
        <text
           xml:space="preserve"
           style="font-style:normal;font-variant:normal;font-weight:normal;font-stretch:normal;font-size:3.34032px;font-family:'Varela Round';-inkscape-font-specification:'Varela Round, Normal';font-variant-ligatures:normal;font-variant-caps:normal;font-variant-numeric:normal;font-variant-east-asian:normal;fill:#ffffff;fill-opacity:1;stroke:none;stroke-width:0.0410307;stroke-linecap:round;stroke-linejoin:round;stroke-miterlimit:7.5;stroke-dasharray:none"
           x="9.511549"
           y="3.2145903"
           id="text1"><tspan
             sodipodi:role="line"
             id="tspan1"
             style="font-style:normal;font-variant:normal;font-weight:normal;font-stretch:normal;font-size:3.34032px;font-family:'Varela Round';-inkscape-font-specification:'Varela Round, Normal';font-variant-ligatures:normal;font-variant-caps:normal;font-variant-numeric:normal;font-variant-east-asian:normal;fill:#ffffff;fill-opacity:1;stroke:none;stroke-width:0.0410307;stroke-dasharray:none;stroke-opacity:1"
             x="9.511549"
             y="3.2145903">Human, Ancient DNA,</tspan></text>
        <text
           xml:space="preserve"
           style="font-style:normal;font-variant:normal;font-weight:normal;font-stretch:normal;font-size:3.34032px;font-family:'Varela Round';-inkscape-font-specification:'Varela Round, Normal';font-variant-ligatures:normal;font-variant-caps:normal;font-variant-numeric:normal;font-variant-east-asian:normal;fill:#ffffff;fill-opacity:1;stroke:#000000;stroke-width:0.0417539;stroke-linecap:round;stroke-linejoin:round;stroke-miterlimit:7.5"
           x="9.6685438"
           y="6.5480099"
           id="text2"><tspan
             sodipodi:role="line"
             id="tspan2"
             style="font-style:normal;font-variant:normal;font-weight:normal;font-stretch:normal;font-size:3.34032px;font-family:'Varela Round';-inkscape-font-specification:'Varela Round, Normal';font-variant-ligatures:normal;font-variant-caps:normal;font-variant-numeric:normal;font-variant-east-asian:normal;fill:#ffffff;fill-opacity:1;stroke:none;stroke-width:0.0417539"
             x="9.6685438"
             y="6.5480099">Ancestry, and Mobility</tspan></text>
      </g>
    </g>
  </g>
</svg>
